<?xml version="1.0" encoding="UTF-8" standalone="no"?><svg xmlns="http://www.w3.org/2000/svg" xmlns:xlink="http://www.w3.org/1999/xlink" contentScriptType="application/ecmascript" contentStyleType="text/css" height="258px" preserveAspectRatio="none" style="width:425px;height:258px;" version="1.1" viewBox="0 0 425 258" width="425px" zoomAndPan="magnify"><defs><filter height="300%" id="f1j79gawpjfmtr" width="300%" x="-1" y="-1"><feGaussianBlur result="blurOut" stdDeviation="2.0"/><feColorMatrix in="blurOut" result="blurOut2" type="matrix" values="0 0 0 0 0 0 0 0 0 0 0 0 0 0 0 0 0 0 .4 0"/><feOffset dx="4.0" dy="4.0" in="blurOut2" result="blurOut3"/><feBlend in="SourceGraphic" in2="blurOut3" mode="normal"/></filter></defs><g><!--class BangunDatar--><rect fill="#FEFECE" filter="url(#f1j79gawpjfmtr)" height="75.6719" id="BangunDatar" style="stroke: #A80036; stroke-width: 1.5;" width="105" x="158" y="8"/><ellipse cx="173" cy="24" fill="#ADD1B2" rx="11" ry="11" style="stroke: #A80036; stroke-width: 1.0;"/><path d="M175.7656,19.875 Q175.9219,19.6563 176.1094,19.5469 Q176.2969,19.4375 176.5156,19.4375 Q176.8906,19.4375 177.125,19.7031 Q177.3594,19.9531 177.3594,20.5625 L177.3594,22.0156 Q177.3594,22.625 177.125,22.8906 Q176.8906,23.1563 176.5156,23.1563 Q176.1719,23.1563 175.9688,22.9531 Q175.7656,22.7656 175.6563,22.25 Q175.6094,21.8906 175.4219,21.7031 Q175.0938,21.3281 174.4844,21.1094 Q173.875,20.8906 173.25,20.8906 Q172.4844,20.8906 171.8438,21.2188 Q171.2188,21.5469 170.7188,22.2969 Q170.2344,23.0469 170.2344,24.0781 L170.2344,25.1719 Q170.2344,26.4063 171.125,27.2344 Q172.0156,28.0469 173.6094,28.0469 Q174.5469,28.0469 175.2031,27.7969 Q175.5938,27.6406 176.0156,27.2031 Q176.2813,26.9375 176.4219,26.8594 Q176.5781,26.7813 176.7813,26.7813 Q177.1094,26.7813 177.3594,27.0469 Q177.625,27.2969 177.625,27.6406 Q177.625,27.9844 177.2813,28.3906 Q176.7813,28.9688 175.9844,29.2969 Q174.9063,29.75 173.6094,29.75 Q172.0938,29.75 170.8906,29.125 Q169.9063,28.625 169.2188,27.5625 Q168.5313,26.4844 168.5313,25.2031 L168.5313,24.0469 Q168.5313,22.7188 169.1406,21.5781 Q169.7656,20.4219 170.8594,19.8125 Q171.9531,19.1875 173.1875,19.1875 Q173.9219,19.1875 174.5625,19.3594 Q175.2188,19.5156 175.7656,19.875 Z "/><text fill="#000000" font-family="sans-serif" font-size="12" lengthAdjust="spacingAndGlyphs" textLength="73" x="187" y="28.9102">BangunDatar</text><line style="stroke: #A80036; stroke-width: 1.5;" x1="159" x2="262" y1="40" y2="40"/><line style="stroke: #A80036; stroke-width: 1.5;" x1="159" x2="262" y1="48" y2="48"/><text fill="#000000" font-family="sans-serif" font-size="11" lengthAdjust="spacingAndGlyphs" textLength="34" x="164" y="63.4189">+luas()</text><text fill="#000000" font-family="sans-serif" font-size="11" lengthAdjust="spacingAndGlyphs" textLength="45" x="164" y="77.2549">+keliling()</text><!--class Persegi--><rect fill="#FEFECE" filter="url(#f1j79gawpjfmtr)" height="103.3438" id="Persegi" style="stroke: #A80036; stroke-width: 1.5;" width="95" x="6" y="144"/><ellipse cx="30" cy="160" fill="#ADD1B2" rx="11" ry="11" style="stroke: #A80036; stroke-width: 1.0;"/><path d="M32.7656,155.875 Q32.9219,155.6563 33.1094,155.5469 Q33.2969,155.4375 33.5156,155.4375 Q33.8906,155.4375 34.125,155.7031 Q34.3594,155.9531 34.3594,156.5625 L34.3594,158.0156 Q34.3594,158.625 34.125,158.8906 Q33.8906,159.1563 33.5156,159.1563 Q33.1719,159.1563 32.9688,158.9531 Q32.7656,158.7656 32.6563,158.25 Q32.6094,157.8906 32.4219,157.7031 Q32.0938,157.3281 31.4844,157.1094 Q30.875,156.8906 30.25,156.8906 Q29.4844,156.8906 28.8438,157.2188 Q28.2188,157.5469 27.7188,158.2969 Q27.2344,159.0469 27.2344,160.0781 L27.2344,161.1719 Q27.2344,162.4063 28.125,163.2344 Q29.0156,164.0469 30.6094,164.0469 Q31.5469,164.0469 32.2031,163.7969 Q32.5938,163.6406 33.0156,163.2031 Q33.2813,162.9375 33.4219,162.8594 Q33.5781,162.7813 33.7813,162.7813 Q34.1094,162.7813 34.3594,163.0469 Q34.625,163.2969 34.625,163.6406 Q34.625,163.9844 34.2813,164.3906 Q33.7813,164.9688 32.9844,165.2969 Q31.9063,165.75 30.6094,165.75 Q29.0938,165.75 27.8906,165.125 Q26.9063,164.625 26.2188,163.5625 Q25.5313,162.4844 25.5313,161.2031 L25.5313,160.0469 Q25.5313,158.7188 26.1406,157.5781 Q26.7656,156.4219 27.8594,155.8125 Q28.9531,155.1875 30.1875,155.1875 Q30.9219,155.1875 31.5625,155.3594 Q32.2188,155.5156 32.7656,155.875 Z "/><text fill="#000000" font-family="sans-serif" font-size="12" lengthAdjust="spacingAndGlyphs" textLength="43" x="46" y="164.9102">Persegi</text><line style="stroke: #A80036; stroke-width: 1.5;" x1="7" x2="100" y1="176" y2="176"/><text fill="#000000" font-family="sans-serif" font-size="11" lengthAdjust="spacingAndGlyphs" textLength="37" x="12" y="191.4189">-sisi: int</text><line style="stroke: #A80036; stroke-width: 1.5;" x1="7" x2="100" y1="197.8359" y2="197.8359"/><text fill="#000000" font-family="sans-serif" font-size="11" lengthAdjust="spacingAndGlyphs" textLength="83" x="12" y="213.2549">+Persegi(sisi: int)</text><text fill="#000000" font-family="sans-serif" font-size="11" lengthAdjust="spacingAndGlyphs" textLength="34" x="12" y="227.0908">+luas()</text><text fill="#000000" font-family="sans-serif" font-size="11" lengthAdjust="spacingAndGlyphs" textLength="45" x="12" y="240.9268">+keliling()</text><!--class Segitiga--><rect fill="#FEFECE" filter="url(#f1j79gawpjfmtr)" height="103.3438" id="Segitiga" style="stroke: #A80036; stroke-width: 1.5;" width="149" x="136" y="144"/><ellipse cx="183.75" cy="160" fill="#ADD1B2" rx="11" ry="11" style="stroke: #A80036; stroke-width: 1.0;"/><path d="M186.5156,155.875 Q186.6719,155.6563 186.8594,155.5469 Q187.0469,155.4375 187.2656,155.4375 Q187.6406,155.4375 187.875,155.7031 Q188.1094,155.9531 188.1094,156.5625 L188.1094,158.0156 Q188.1094,158.625 187.875,158.8906 Q187.6406,159.1563 187.2656,159.1563 Q186.9219,159.1563 186.7188,158.9531 Q186.5156,158.7656 186.4063,158.25 Q186.3594,157.8906 186.1719,157.7031 Q185.8438,157.3281 185.2344,157.1094 Q184.625,156.8906 184,156.8906 Q183.2344,156.8906 182.5938,157.2188 Q181.9688,157.5469 181.4688,158.2969 Q180.9844,159.0469 180.9844,160.0781 L180.9844,161.1719 Q180.9844,162.4063 181.875,163.2344 Q182.7656,164.0469 184.3594,164.0469 Q185.2969,164.0469 185.9531,163.7969 Q186.3438,163.6406 186.7656,163.2031 Q187.0313,162.9375 187.1719,162.8594 Q187.3281,162.7813 187.5313,162.7813 Q187.8594,162.7813 188.1094,163.0469 Q188.375,163.2969 188.375,163.6406 Q188.375,163.9844 188.0313,164.3906 Q187.5313,164.9688 186.7344,165.2969 Q185.6563,165.75 184.3594,165.75 Q182.8438,165.75 181.6406,165.125 Q180.6563,164.625 179.9688,163.5625 Q179.2813,162.4844 179.2813,161.2031 L179.2813,160.0469 Q179.2813,158.7188 179.8906,157.5781 Q180.5156,156.4219 181.6094,155.8125 Q182.7031,155.1875 183.9375,155.1875 Q184.6719,155.1875 185.3125,155.3594 Q185.9688,155.5156 186.5156,155.875 Z "/><text fill="#000000" font-family="sans-serif" font-size="12" lengthAdjust="spacingAndGlyphs" textLength="45" x="204.25" y="164.9102">Segitiga</text><line style="stroke: #A80036; stroke-width: 1.5;" x1="137" x2="284" y1="176" y2="176"/><text fill="#000000" font-family="sans-serif" font-size="11" lengthAdjust="spacingAndGlyphs" textLength="41" x="142" y="191.4189">-alas: int</text><text fill="#000000" font-family="sans-serif" font-size="11" lengthAdjust="spacingAndGlyphs" textLength="46" x="142" y="205.2549">-tinggi: int</text><line style="stroke: #A80036; stroke-width: 1.5;" x1="137" x2="284" y1="211.6719" y2="211.6719"/><text fill="#000000" font-family="sans-serif" font-size="11" lengthAdjust="spacingAndGlyphs" textLength="137" x="142" y="227.0908">+Segitiga(alas: int, tinggi: int)</text><text fill="#000000" font-family="sans-serif" font-size="11" lengthAdjust="spacingAndGlyphs" textLength="34" x="142" y="240.9268">+luas()</text><!--class Lingkaran--><rect fill="#FEFECE" filter="url(#f1j79gawpjfmtr)" height="103.3438" id="Lingkaran" style="stroke: #A80036; stroke-width: 1.5;" width="94" x="320.5" y="144"/><ellipse cx="338.65" cy="160" fill="#ADD1B2" rx="11" ry="11" style="stroke: #A80036; stroke-width: 1.0;"/><path d="M341.4156,155.875 Q341.5719,155.6563 341.7594,155.5469 Q341.9469,155.4375 342.1656,155.4375 Q342.5406,155.4375 342.775,155.7031 Q343.0094,155.9531 343.0094,156.5625 L343.0094,158.0156 Q343.0094,158.625 342.775,158.8906 Q342.5406,159.1563 342.1656,159.1563 Q341.8219,159.1563 341.6188,158.9531 Q341.4156,158.7656 341.3063,158.25 Q341.2594,157.8906 341.0719,157.7031 Q340.7438,157.3281 340.1344,157.1094 Q339.525,156.8906 338.9,156.8906 Q338.1344,156.8906 337.4938,157.2188 Q336.8688,157.5469 336.3688,158.2969 Q335.8844,159.0469 335.8844,160.0781 L335.8844,161.1719 Q335.8844,162.4063 336.775,163.2344 Q337.6656,164.0469 339.2594,164.0469 Q340.1969,164.0469 340.8531,163.7969 Q341.2438,163.6406 341.6656,163.2031 Q341.9313,162.9375 342.0719,162.8594 Q342.2281,162.7813 342.4313,162.7813 Q342.7594,162.7813 343.0094,163.0469 Q343.275,163.2969 343.275,163.6406 Q343.275,163.9844 342.9313,164.3906 Q342.4313,164.9688 341.6344,165.2969 Q340.5563,165.75 339.2594,165.75 Q337.7438,165.75 336.5406,165.125 Q335.5563,164.625 334.8688,163.5625 Q334.1813,162.4844 334.1813,161.2031 L334.1813,160.0469 Q334.1813,158.7188 334.7906,157.5781 Q335.4156,156.4219 336.5094,155.8125 Q337.6031,155.1875 338.8375,155.1875 Q339.5719,155.1875 340.2125,155.3594 Q340.8688,155.5156 341.4156,155.875 Z "/><text fill="#000000" font-family="sans-serif" font-size="12" lengthAdjust="spacingAndGlyphs" textLength="55" x="353.35" y="164.9102">Lingkaran</text><line style="stroke: #A80036; stroke-width: 1.5;" x1="321.5" x2="413.5" y1="176" y2="176"/><text fill="#000000" font-family="sans-serif" font-size="11" lengthAdjust="spacingAndGlyphs" textLength="25" x="326.5" y="191.4189">-r: int</text><line style="stroke: #A80036; stroke-width: 1.5;" x1="321.5" x2="413.5" y1="197.8359" y2="197.8359"/><text fill="#000000" font-family="sans-serif" font-size="11" lengthAdjust="spacingAndGlyphs" textLength="82" x="326.5" y="213.2549">+Lingkaran(r: int)</text><text fill="#000000" font-family="sans-serif" font-size="11" lengthAdjust="spacingAndGlyphs" textLength="34" x="326.5" y="227.0908">+luas()</text><text fill="#000000" font-family="sans-serif" font-size="11" lengthAdjust="spacingAndGlyphs" textLength="45" x="326.5" y="240.9268">+keliling()</text><!--reverse link BangunDatar to Persegi--><path d="M156.093,98.115 C138.239,114.888 118.545,133.391 101.2246,149.6632 " fill="none" id="BangunDatar&lt;-Persegi" style="stroke: #A80036; stroke-width: 1.0;"/><polygon fill="none" points="151.513,92.813,170.882,84.22,161.099,103.016,151.513,92.813" style="stroke: #A80036; stroke-width: 1.0;"/><!--reverse link BangunDatar to Segitiga--><path d="M210.5,104.482 C210.5,117.494 210.5,131.217 210.5,143.919 " fill="none" id="BangunDatar&lt;-Segitiga" style="stroke: #A80036; stroke-width: 1.0;"/><polygon fill="none" points="203.5,104.221,210.5,84.22,217.5,104.22,203.5,104.221" style="stroke: #A80036; stroke-width: 1.0;"/><!--reverse link BangunDatar to Lingkaran--><path d="M264.767,97.984 C282.855,114.977 302.846,133.758 320.348,150.2014 " fill="none" id="BangunDatar&lt;-Lingkaran" style="stroke: #A80036; stroke-width: 1.0;"/><polygon fill="none" points="259.901,103.016,250.118,84.22,269.487,92.813,259.901,103.016" style="stroke: #A80036; stroke-width: 1.0;"/><!--
@startuml BangunDatar
skinparam classAttributeIconSize 0

BangunDatar <|- - Persegi
BangunDatar <|- - Segitiga
BangunDatar <|- - Lingkaran
class BangunDatar {
    +luas()
    +keliling()
}

class Persegi {
    -sisi: int
    +Persegi(sisi: int)
    +luas()
    +keliling()
}

class Segitiga {
    -alas: int
    -tinggi: int
    +Segitiga(alas: int, tinggi: int)
    +luas()
}

class Lingkaran {
    -r: int
    +Lingkaran(r: int)
    +luas()
    +keliling()
}
@enduml

PlantUML version 1.2019.09(Mon Aug 26 23:19:51 ICT 2019)
(GPL source distribution)
Java Runtime: Java(TM) SE Runtime Environment
JVM: Java HotSpot(TM) 64-Bit Server VM
Java Version: 11.0.6+8-LTS
Operating System: Windows 10
OS Version: 10.0
Default Encoding: Cp1252
Language: en
Country: US
--></g></svg>