<?xml version="1.0" encoding="UTF-8" standalone="no"?><svg xmlns="http://www.w3.org/2000/svg" xmlns:xlink="http://www.w3.org/1999/xlink" contentScriptType="application/ecmascript" contentStyleType="text/css" height="258px" preserveAspectRatio="none" style="width:456px;height:258px;" version="1.1" viewBox="0 0 456 258" width="456px" zoomAndPan="magnify"><defs><filter height="300%" id="f15getneabyo53" width="300%" x="-1" y="-1"><feGaussianBlur result="blurOut" stdDeviation="2.0"/><feColorMatrix in="blurOut" result="blurOut2" type="matrix" values="0 0 0 0 0 0 0 0 0 0 0 0 0 0 0 0 0 0 .4 0"/><feOffset dx="4.0" dy="4.0" in="blurOut2" result="blurOut3"/><feBlend in="SourceGraphic" in2="blurOut3" mode="normal"/></filter></defs><g><!--class BangunDatar--><rect fill="#FEFECE" filter="url(#f15getneabyo53)" height="75.6719" id="BangunDatar" style="stroke: #A80036; stroke-width: 1.5;" width="105" x="181.5" y="8"/><ellipse cx="196.5" cy="24" fill="#A9DCDF" rx="11" ry="11" style="stroke: #A80036; stroke-width: 1.0;"/><path d="M198.6875,25.7656 L194.5469,25.7656 L194.125,26.7969 L194.5469,26.7969 Q195.1563,26.7969 195.4219,27.0313 Q195.6875,27.2656 195.6875,27.6563 Q195.6875,28.0313 195.4219,28.2656 Q195.1563,28.5 194.5469,28.5 L192.25,28.5 Q191.6406,28.5 191.3906,28.2656 Q191.125,28.0313 191.125,27.6406 Q191.125,27.2656 191.4063,27.0313 Q191.6719,26.7813 192.2969,26.7969 L194.9688,20.1406 L193.8594,20.1406 Q193.25,20.1406 192.9844,19.9063 Q192.7188,19.6719 192.7188,19.2813 Q192.7188,18.9063 192.9844,18.6719 Q193.25,18.4375 193.8594,18.4375 L197.5313,18.4375 L200.9219,26.7969 Q201.5156,26.7969 201.7031,26.9375 Q202.0938,27.2031 202.0938,27.6563 Q202.0938,28.0313 201.8281,28.2656 Q201.5781,28.5 200.9688,28.5 L198.6719,28.5 Q198.0625,28.5 197.7969,28.2656 Q197.5313,28.0313 197.5313,27.6406 Q197.5313,27.2656 197.7969,27.0313 Q198.0625,26.7969 198.6719,26.7969 L199.0938,26.7969 L198.6875,25.7656 Z M197.9688,24.0625 L196.6094,20.6875 L195.2344,24.0625 L197.9688,24.0625 Z "/><text fill="#000000" font-family="sans-serif" font-size="12" font-style="italic" lengthAdjust="spacingAndGlyphs" textLength="73" x="210.5" y="28.9102">BangunDatar</text><line style="stroke: #A80036; stroke-width: 1.5;" x1="182.5" x2="285.5" y1="40" y2="40"/><ellipse cx="192.5" cy="51" fill="none" rx="3" ry="3" style="stroke: #038048; stroke-width: 1.0;"/><text fill="#000000" font-family="sans-serif" font-size="11" lengthAdjust="spacingAndGlyphs" textLength="66" x="201.5" y="55.4189">warna: String</text><line style="stroke: #A80036; stroke-width: 1.5;" x1="182.5" x2="285.5" y1="61.8359" y2="61.8359"/><text fill="#000000" font-family="sans-serif" font-size="11" font-style="italic" lengthAdjust="spacingAndGlyphs" textLength="55" x="187.5" y="77.2549">void Luas()</text><!--class Segitiga--><rect fill="#FEFECE" filter="url(#f15getneabyo53)" height="103.3438" id="Segitiga" style="stroke: #A80036; stroke-width: 1.5;" width="220" x="6" y="144"/><ellipse cx="89.25" cy="160" fill="#ADD1B2" rx="11" ry="11" style="stroke: #A80036; stroke-width: 1.0;"/><path d="M92.0156,155.875 Q92.1719,155.6563 92.3594,155.5469 Q92.5469,155.4375 92.7656,155.4375 Q93.1406,155.4375 93.375,155.7031 Q93.6094,155.9531 93.6094,156.5625 L93.6094,158.0156 Q93.6094,158.625 93.375,158.8906 Q93.1406,159.1563 92.7656,159.1563 Q92.4219,159.1563 92.2188,158.9531 Q92.0156,158.7656 91.9063,158.25 Q91.8594,157.8906 91.6719,157.7031 Q91.3438,157.3281 90.7344,157.1094 Q90.125,156.8906 89.5,156.8906 Q88.7344,156.8906 88.0938,157.2188 Q87.4688,157.5469 86.9688,158.2969 Q86.4844,159.0469 86.4844,160.0781 L86.4844,161.1719 Q86.4844,162.4063 87.375,163.2344 Q88.2656,164.0469 89.8594,164.0469 Q90.7969,164.0469 91.4531,163.7969 Q91.8438,163.6406 92.2656,163.2031 Q92.5313,162.9375 92.6719,162.8594 Q92.8281,162.7813 93.0313,162.7813 Q93.3594,162.7813 93.6094,163.0469 Q93.875,163.2969 93.875,163.6406 Q93.875,163.9844 93.5313,164.3906 Q93.0313,164.9688 92.2344,165.2969 Q91.1563,165.75 89.8594,165.75 Q88.3438,165.75 87.1406,165.125 Q86.1563,164.625 85.4688,163.5625 Q84.7813,162.4844 84.7813,161.2031 L84.7813,160.0469 Q84.7813,158.7188 85.3906,157.5781 Q86.0156,156.4219 87.1094,155.8125 Q88.2031,155.1875 89.4375,155.1875 Q90.1719,155.1875 90.8125,155.3594 Q91.4688,155.5156 92.0156,155.875 Z "/><text fill="#000000" font-family="sans-serif" font-size="12" lengthAdjust="spacingAndGlyphs" textLength="45" x="109.75" y="164.9102">Segitiga</text><line style="stroke: #A80036; stroke-width: 1.5;" x1="7" x2="225" y1="176" y2="176"/><rect fill="none" height="6" style="stroke: #C82930; stroke-width: 1.0;" width="6" x="14" y="184"/><text fill="#000000" font-family="sans-serif" font-size="11" lengthAdjust="spacingAndGlyphs" textLength="37" x="26" y="191.4189">alas: int</text><rect fill="none" height="6" style="stroke: #C82930; stroke-width: 1.0;" width="6" x="14" y="197.8359"/><text fill="#000000" font-family="sans-serif" font-size="11" lengthAdjust="spacingAndGlyphs" textLength="42" x="26" y="205.2549">tinggi: int</text><line style="stroke: #A80036; stroke-width: 1.5;" x1="7" x2="225" y1="211.6719" y2="211.6719"/><ellipse cx="17" cy="222.6719" fill="#84BE84" rx="3" ry="3" style="stroke: #038048; stroke-width: 1.0;"/><text fill="#000000" font-family="sans-serif" font-size="11" lengthAdjust="spacingAndGlyphs" textLength="194" x="26" y="227.0908">Segitiga(int alas, int tinggi, String warna)</text><ellipse cx="17" cy="236.5078" fill="#84BE84" rx="3" ry="3" style="stroke: #038048; stroke-width: 1.0;"/><text fill="#000000" font-family="sans-serif" font-size="11" lengthAdjust="spacingAndGlyphs" textLength="51" x="26" y="240.9268">void luas()</text><!--class Lingkaran--><rect fill="#FEFECE" filter="url(#f15getneabyo53)" height="89.5078" id="Lingkaran" style="stroke: #A80036; stroke-width: 1.5;" width="184" x="261" y="150.5"/><ellipse cx="321.25" cy="166.5" fill="#ADD1B2" rx="11" ry="11" style="stroke: #A80036; stroke-width: 1.0;"/><path d="M324.0156,162.375 Q324.1719,162.1563 324.3594,162.0469 Q324.5469,161.9375 324.7656,161.9375 Q325.1406,161.9375 325.375,162.2031 Q325.6094,162.4531 325.6094,163.0625 L325.6094,164.5156 Q325.6094,165.125 325.375,165.3906 Q325.1406,165.6563 324.7656,165.6563 Q324.4219,165.6563 324.2188,165.4531 Q324.0156,165.2656 323.9063,164.75 Q323.8594,164.3906 323.6719,164.2031 Q323.3438,163.8281 322.7344,163.6094 Q322.125,163.3906 321.5,163.3906 Q320.7344,163.3906 320.0938,163.7188 Q319.4688,164.0469 318.9688,164.7969 Q318.4844,165.5469 318.4844,166.5781 L318.4844,167.6719 Q318.4844,168.9063 319.375,169.7344 Q320.2656,170.5469 321.8594,170.5469 Q322.7969,170.5469 323.4531,170.2969 Q323.8438,170.1406 324.2656,169.7031 Q324.5313,169.4375 324.6719,169.3594 Q324.8281,169.2813 325.0313,169.2813 Q325.3594,169.2813 325.6094,169.5469 Q325.875,169.7969 325.875,170.1406 Q325.875,170.4844 325.5313,170.8906 Q325.0313,171.4688 324.2344,171.7969 Q323.1563,172.25 321.8594,172.25 Q320.3438,172.25 319.1406,171.625 Q318.1563,171.125 317.4688,170.0625 Q316.7813,168.9844 316.7813,167.7031 L316.7813,166.5469 Q316.7813,165.2188 317.3906,164.0781 Q318.0156,162.9219 319.1094,162.3125 Q320.2031,161.6875 321.4375,161.6875 Q322.1719,161.6875 322.8125,161.8594 Q323.4688,162.0156 324.0156,162.375 Z "/><text fill="#000000" font-family="sans-serif" font-size="12" lengthAdjust="spacingAndGlyphs" textLength="55" x="341.75" y="171.4102">Lingkaran</text><line style="stroke: #A80036; stroke-width: 1.5;" x1="262" x2="444" y1="182.5" y2="182.5"/><rect fill="none" height="6" style="stroke: #C82930; stroke-width: 1.0;" width="6" x="269" y="190.5"/><text fill="#000000" font-family="sans-serif" font-size="11" lengthAdjust="spacingAndGlyphs" textLength="37" x="281" y="197.9189">jari2: int</text><line style="stroke: #A80036; stroke-width: 1.5;" x1="262" x2="444" y1="204.3359" y2="204.3359"/><ellipse cx="272" cy="215.3359" fill="#84BE84" rx="3" ry="3" style="stroke: #038048; stroke-width: 1.0;"/><text fill="#000000" font-family="sans-serif" font-size="11" lengthAdjust="spacingAndGlyphs" textLength="158" x="281" y="219.7549">Lingkaran(int jari2, String warna)</text><ellipse cx="272" cy="229.1719" fill="#84BE84" rx="3" ry="3" style="stroke: #038048; stroke-width: 1.0;"/><text fill="#000000" font-family="sans-serif" font-size="11" lengthAdjust="spacingAndGlyphs" textLength="51" x="281" y="233.5908">void luas()</text><!--reverse link BangunDatar to Segitiga--><path d="M191.379,100.276 C179.995,114.506 167.728,129.84 156.464,143.919 " fill="none" id="BangunDatar&lt;-Segitiga" style="stroke: #A80036; stroke-width: 1.0;"/><polygon fill="none" points="186.264,95.465,204.224,84.22,197.196,104.211,186.264,95.465" style="stroke: #A80036; stroke-width: 1.0;"/><!--reverse link BangunDatar to Lingkaran--><path d="M276.633,99.843 C290.016,116.432 304.641,134.559 317.477,150.4699 " fill="none" id="BangunDatar&lt;-Lingkaran" style="stroke: #A80036; stroke-width: 1.0;"/><polygon fill="none" points="271.139,104.182,264.029,84.22,282.035,95.391,271.139,104.182" style="stroke: #A80036; stroke-width: 1.0;"/><!--
@startuml abstract
BangunDatar <|- - Segitiga
BangunDatar <|- - Lingkaran

abstract class BangunDatar {
    +warna: String
    {abstract} void Luas()
}

class Segitiga {
    -alas: int
    -tinggi: int
    +Segitiga(int alas, int tinggi, String warna)
    +void luas()
}

class Lingkaran {
    -jari2: int
    +Lingkaran(int jari2, String warna)
    +void luas()
}
@enduml

PlantUML version 1.2019.09(Mon Aug 26 23:19:51 ICT 2019)
(GPL source distribution)
Java Runtime: Java(TM) SE Runtime Environment
JVM: Java HotSpot(TM) 64-Bit Server VM
Java Version: 11.0.6+8-LTS
Operating System: Windows 10
OS Version: 10.0
Default Encoding: Cp1252
Language: en
Country: US
--></g></svg>