<?xml version="1.0" encoding="UTF-8" standalone="no"?><svg xmlns="http://www.w3.org/2000/svg" xmlns:xlink="http://www.w3.org/1999/xlink" contentScriptType="application/ecmascript" contentStyleType="text/css" height="175px" preserveAspectRatio="none" style="width:112px;height:175px;" version="1.1" viewBox="0 0 112 175" width="112px" zoomAndPan="magnify"><defs><filter height="300%" id="f1wdeer021n6r7" width="300%" x="-1" y="-1"><feGaussianBlur result="blurOut" stdDeviation="2.0"/><feColorMatrix in="blurOut" result="blurOut2" type="matrix" values="0 0 0 0 0 0 0 0 0 0 0 0 0 0 0 0 0 0 .4 0"/><feOffset dx="4.0" dy="4.0" in="blurOut2" result="blurOut3"/><feBlend in="SourceGraphic" in2="blurOut3" mode="normal"/></filter></defs><g><!--class Dosen--><rect fill="#FEFECE" filter="url(#f1wdeer021n6r7)" height="48" id="Dosen" style="stroke: #A80036; stroke-width: 1.5;" width="69" x="19" y="8"/><ellipse cx="34" cy="24" fill="#ADD1B2" rx="11" ry="11" style="stroke: #A80036; stroke-width: 1.0;"/><path d="M36.7656,19.875 Q36.9219,19.6563 37.1094,19.5469 Q37.2969,19.4375 37.5156,19.4375 Q37.8906,19.4375 38.125,19.7031 Q38.3594,19.9531 38.3594,20.5625 L38.3594,22.0156 Q38.3594,22.625 38.125,22.8906 Q37.8906,23.1563 37.5156,23.1563 Q37.1719,23.1563 36.9688,22.9531 Q36.7656,22.7656 36.6563,22.25 Q36.6094,21.8906 36.4219,21.7031 Q36.0938,21.3281 35.4844,21.1094 Q34.875,20.8906 34.25,20.8906 Q33.4844,20.8906 32.8438,21.2188 Q32.2188,21.5469 31.7188,22.2969 Q31.2344,23.0469 31.2344,24.0781 L31.2344,25.1719 Q31.2344,26.4063 32.125,27.2344 Q33.0156,28.0469 34.6094,28.0469 Q35.5469,28.0469 36.2031,27.7969 Q36.5938,27.6406 37.0156,27.2031 Q37.2813,26.9375 37.4219,26.8594 Q37.5781,26.7813 37.7813,26.7813 Q38.1094,26.7813 38.3594,27.0469 Q38.625,27.2969 38.625,27.6406 Q38.625,27.9844 38.2813,28.3906 Q37.7813,28.9688 36.9844,29.2969 Q35.9063,29.75 34.6094,29.75 Q33.0938,29.75 31.8906,29.125 Q30.9063,28.625 30.2188,27.5625 Q29.5313,26.4844 29.5313,25.2031 L29.5313,24.0469 Q29.5313,22.7188 30.1406,21.5781 Q30.7656,20.4219 31.8594,19.8125 Q32.9531,19.1875 34.1875,19.1875 Q34.9219,19.1875 35.5625,19.3594 Q36.2188,19.5156 36.7656,19.875 Z "/><text fill="#000000" font-family="sans-serif" font-size="12" lengthAdjust="spacingAndGlyphs" textLength="37" x="48" y="28.9102">Dosen</text><line style="stroke: #A80036; stroke-width: 1.5;" x1="20" x2="87" y1="40" y2="40"/><line style="stroke: #A80036; stroke-width: 1.5;" x1="20" x2="87" y1="48" y2="48"/><!--class Mahasiswa--><rect fill="#FEFECE" filter="url(#f1wdeer021n6r7)" height="48" id="Mahasiswa" style="stroke: #A80036; stroke-width: 1.5;" width="95" x="6" y="116"/><ellipse cx="21" cy="132" fill="#ADD1B2" rx="11" ry="11" style="stroke: #A80036; stroke-width: 1.0;"/><path d="M23.7656,127.875 Q23.9219,127.6563 24.1094,127.5469 Q24.2969,127.4375 24.5156,127.4375 Q24.8906,127.4375 25.125,127.7031 Q25.3594,127.9531 25.3594,128.5625 L25.3594,130.0156 Q25.3594,130.625 25.125,130.8906 Q24.8906,131.1563 24.5156,131.1563 Q24.1719,131.1563 23.9688,130.9531 Q23.7656,130.7656 23.6563,130.25 Q23.6094,129.8906 23.4219,129.7031 Q23.0938,129.3281 22.4844,129.1094 Q21.875,128.8906 21.25,128.8906 Q20.4844,128.8906 19.8438,129.2188 Q19.2188,129.5469 18.7188,130.2969 Q18.2344,131.0469 18.2344,132.0781 L18.2344,133.1719 Q18.2344,134.4063 19.125,135.2344 Q20.0156,136.0469 21.6094,136.0469 Q22.5469,136.0469 23.2031,135.7969 Q23.5938,135.6406 24.0156,135.2031 Q24.2813,134.9375 24.4219,134.8594 Q24.5781,134.7813 24.7813,134.7813 Q25.1094,134.7813 25.3594,135.0469 Q25.625,135.2969 25.625,135.6406 Q25.625,135.9844 25.2813,136.3906 Q24.7813,136.9688 23.9844,137.2969 Q22.9063,137.75 21.6094,137.75 Q20.0938,137.75 18.8906,137.125 Q17.9063,136.625 17.2188,135.5625 Q16.5313,134.4844 16.5313,133.2031 L16.5313,132.0469 Q16.5313,130.7188 17.1406,129.5781 Q17.7656,128.4219 18.8594,127.8125 Q19.9531,127.1875 21.1875,127.1875 Q21.9219,127.1875 22.5625,127.3594 Q23.2188,127.5156 23.7656,127.875 Z "/><text fill="#000000" font-family="sans-serif" font-size="12" lengthAdjust="spacingAndGlyphs" textLength="63" x="35" y="136.9102">Mahasiswa</text><line style="stroke: #A80036; stroke-width: 1.5;" x1="7" x2="100" y1="148" y2="148"/><line style="stroke: #A80036; stroke-width: 1.5;" x1="7" x2="100" y1="156" y2="156"/><!--link Dosen to Mahasiswa--><path d="M53.5,56 C53.5,73.6584 53.5,97.9408 53.5,115.6784 " fill="none" id="Dosen-Mahasiswa" style="stroke: #A80036; stroke-width: 1.0;"/><text fill="#000000" font-family="sans-serif" font-size="13" lengthAdjust="spacingAndGlyphs" textLength="7" x="45.6469" y="77.338">1</text><text fill="#000000" font-family="sans-serif" font-size="13" lengthAdjust="spacingAndGlyphs" textLength="32" x="17.6" y="105.338">many</text><!--
@startuml DosenMahasiswa
Dosen "1" - - "many" Mahasiswa
@enduml

PlantUML version 1.2019.09(Mon Aug 26 23:19:51 ICT 2019)
(GPL source distribution)
Java Runtime: Java(TM) SE Runtime Environment
JVM: Java HotSpot(TM) 64-Bit Server VM
Java Version: 11.0.6+8-LTS
Operating System: Windows 10
OS Version: 10.0
Default Encoding: Cp1252
Language: en
Country: US
--></g></svg>