<?xml version="1.0" encoding="UTF-8" standalone="no"?><svg xmlns="http://www.w3.org/2000/svg" xmlns:xlink="http://www.w3.org/1999/xlink" contentScriptType="application/ecmascript" contentStyleType="text/css" height="244px" preserveAspectRatio="none" style="width:339px;height:244px;" version="1.1" viewBox="0 0 339 244" width="339px" zoomAndPan="magnify"><defs><filter height="300%" id="fk3o55nydkchv" width="300%" x="-1" y="-1"><feGaussianBlur result="blurOut" stdDeviation="2.0"/><feColorMatrix in="blurOut" result="blurOut2" type="matrix" values="0 0 0 0 0 0 0 0 0 0 0 0 0 0 0 0 0 0 .4 0"/><feOffset dx="4.0" dy="4.0" in="blurOut2" result="blurOut3"/><feBlend in="SourceGraphic" in2="blurOut3" mode="normal"/></filter></defs><g><!--class Karyawan--><rect fill="#FEFECE" filter="url(#fk3o55nydkchv)" height="89.5078" id="Karyawan" style="stroke: #A80036; stroke-width: 1.5;" width="134" x="69" y="8"/><ellipse cx="105.6" cy="24" fill="#ADD1B2" rx="11" ry="11" style="stroke: #A80036; stroke-width: 1.0;"/><path d="M108.3656,19.875 Q108.5219,19.6563 108.7094,19.5469 Q108.8969,19.4375 109.1156,19.4375 Q109.4906,19.4375 109.725,19.7031 Q109.9594,19.9531 109.9594,20.5625 L109.9594,22.0156 Q109.9594,22.625 109.725,22.8906 Q109.4906,23.1563 109.1156,23.1563 Q108.7719,23.1563 108.5688,22.9531 Q108.3656,22.7656 108.2563,22.25 Q108.2094,21.8906 108.0219,21.7031 Q107.6938,21.3281 107.0844,21.1094 Q106.475,20.8906 105.85,20.8906 Q105.0844,20.8906 104.4438,21.2188 Q103.8188,21.5469 103.3188,22.2969 Q102.8344,23.0469 102.8344,24.0781 L102.8344,25.1719 Q102.8344,26.4063 103.725,27.2344 Q104.6156,28.0469 106.2094,28.0469 Q107.1469,28.0469 107.8031,27.7969 Q108.1938,27.6406 108.6156,27.2031 Q108.8813,26.9375 109.0219,26.8594 Q109.1781,26.7813 109.3813,26.7813 Q109.7094,26.7813 109.9594,27.0469 Q110.225,27.2969 110.225,27.6406 Q110.225,27.9844 109.8813,28.3906 Q109.3813,28.9688 108.5844,29.2969 Q107.5063,29.75 106.2094,29.75 Q104.6938,29.75 103.4906,29.125 Q102.5063,28.625 101.8188,27.5625 Q101.1313,26.4844 101.1313,25.2031 L101.1313,24.0469 Q101.1313,22.7188 101.7406,21.5781 Q102.3656,20.4219 103.4594,19.8125 Q104.5531,19.1875 105.7875,19.1875 Q106.5219,19.1875 107.1625,19.3594 Q107.8188,19.5156 108.3656,19.875 Z "/><text fill="#000000" font-family="sans-serif" font-size="12" lengthAdjust="spacingAndGlyphs" textLength="54" x="124.4" y="28.9102">Karyawan</text><line style="stroke: #A80036; stroke-width: 1.5;" x1="70" x2="202" y1="40" y2="40"/><text fill="#000000" font-family="sans-serif" font-size="11" lengthAdjust="spacingAndGlyphs" textLength="63" x="75" y="55.4189">#String nama</text><line style="stroke: #A80036; stroke-width: 1.5;" x1="70" x2="202" y1="61.8359" y2="61.8359"/><text fill="#000000" font-family="sans-serif" font-size="11" lengthAdjust="spacingAndGlyphs" textLength="122" x="75" y="77.2549">+Karyawan(String nama)</text><text fill="#000000" font-family="sans-serif" font-size="11" lengthAdjust="spacingAndGlyphs" textLength="37" x="75" y="91.0908">+kerja()</text><!--class Dosen--><rect fill="#FEFECE" filter="url(#fk3o55nydkchv)" height="75.6719" id="Dosen" style="stroke: #A80036; stroke-width: 1.5;" width="114" x="6" y="158"/><ellipse cx="41.25" cy="174" fill="#ADD1B2" rx="11" ry="11" style="stroke: #A80036; stroke-width: 1.0;"/><path d="M44.0156,169.875 Q44.1719,169.6563 44.3594,169.5469 Q44.5469,169.4375 44.7656,169.4375 Q45.1406,169.4375 45.375,169.7031 Q45.6094,169.9531 45.6094,170.5625 L45.6094,172.0156 Q45.6094,172.625 45.375,172.8906 Q45.1406,173.1563 44.7656,173.1563 Q44.4219,173.1563 44.2188,172.9531 Q44.0156,172.7656 43.9063,172.25 Q43.8594,171.8906 43.6719,171.7031 Q43.3438,171.3281 42.7344,171.1094 Q42.125,170.8906 41.5,170.8906 Q40.7344,170.8906 40.0938,171.2188 Q39.4688,171.5469 38.9688,172.2969 Q38.4844,173.0469 38.4844,174.0781 L38.4844,175.1719 Q38.4844,176.4063 39.375,177.2344 Q40.2656,178.0469 41.8594,178.0469 Q42.7969,178.0469 43.4531,177.7969 Q43.8438,177.6406 44.2656,177.2031 Q44.5313,176.9375 44.6719,176.8594 Q44.8281,176.7813 45.0313,176.7813 Q45.3594,176.7813 45.6094,177.0469 Q45.875,177.2969 45.875,177.6406 Q45.875,177.9844 45.5313,178.3906 Q45.0313,178.9688 44.2344,179.2969 Q43.1563,179.75 41.8594,179.75 Q40.3438,179.75 39.1406,179.125 Q38.1563,178.625 37.4688,177.5625 Q36.7813,176.4844 36.7813,175.2031 L36.7813,174.0469 Q36.7813,172.7188 37.3906,171.5781 Q38.0156,170.4219 39.1094,169.8125 Q40.2031,169.1875 41.4375,169.1875 Q42.1719,169.1875 42.8125,169.3594 Q43.4688,169.5156 44.0156,169.875 Z "/><text fill="#000000" font-family="sans-serif" font-size="12" lengthAdjust="spacingAndGlyphs" textLength="37" x="59.75" y="178.9102">Dosen</text><line style="stroke: #A80036; stroke-width: 1.5;" x1="7" x2="119" y1="190" y2="190"/><line style="stroke: #A80036; stroke-width: 1.5;" x1="7" x2="119" y1="198" y2="198"/><text fill="#000000" font-family="sans-serif" font-size="11" lengthAdjust="spacingAndGlyphs" textLength="102" x="12" y="213.4189">+Dosen(String nama)</text><text fill="#000000" font-family="sans-serif" font-size="11" lengthAdjust="spacingAndGlyphs" textLength="37" x="12" y="227.2549">+kerja()</text><!--class Staff--><rect fill="#FEFECE" filter="url(#fk3o55nydkchv)" height="75.6719" id="Staff" style="stroke: #A80036; stroke-width: 1.5;" width="107" x="155.5" y="158"/><ellipse cx="193.45" cy="174" fill="#ADD1B2" rx="11" ry="11" style="stroke: #A80036; stroke-width: 1.0;"/><path d="M196.2156,169.875 Q196.3719,169.6563 196.5594,169.5469 Q196.7469,169.4375 196.9656,169.4375 Q197.3406,169.4375 197.575,169.7031 Q197.8094,169.9531 197.8094,170.5625 L197.8094,172.0156 Q197.8094,172.625 197.575,172.8906 Q197.3406,173.1563 196.9656,173.1563 Q196.6219,173.1563 196.4188,172.9531 Q196.2156,172.7656 196.1063,172.25 Q196.0594,171.8906 195.8719,171.7031 Q195.5438,171.3281 194.9344,171.1094 Q194.325,170.8906 193.7,170.8906 Q192.9344,170.8906 192.2938,171.2188 Q191.6688,171.5469 191.1688,172.2969 Q190.6844,173.0469 190.6844,174.0781 L190.6844,175.1719 Q190.6844,176.4063 191.575,177.2344 Q192.4656,178.0469 194.0594,178.0469 Q194.9969,178.0469 195.6531,177.7969 Q196.0438,177.6406 196.4656,177.2031 Q196.7313,176.9375 196.8719,176.8594 Q197.0281,176.7813 197.2313,176.7813 Q197.5594,176.7813 197.8094,177.0469 Q198.075,177.2969 198.075,177.6406 Q198.075,177.9844 197.7313,178.3906 Q197.2313,178.9688 196.4344,179.2969 Q195.3563,179.75 194.0594,179.75 Q192.5438,179.75 191.3406,179.125 Q190.3563,178.625 189.6688,177.5625 Q188.9813,176.4844 188.9813,175.2031 L188.9813,174.0469 Q188.9813,172.7188 189.5906,171.5781 Q190.2156,170.4219 191.3094,169.8125 Q192.4031,169.1875 193.6375,169.1875 Q194.3719,169.1875 195.0125,169.3594 Q195.6688,169.5156 196.2156,169.875 Z "/><text fill="#000000" font-family="sans-serif" font-size="12" lengthAdjust="spacingAndGlyphs" textLength="24" x="212.55" y="178.9102">Staff</text><line style="stroke: #A80036; stroke-width: 1.5;" x1="156.5" x2="261.5" y1="190" y2="190"/><line style="stroke: #A80036; stroke-width: 1.5;" x1="156.5" x2="261.5" y1="198" y2="198"/><text fill="#000000" font-family="sans-serif" font-size="11" lengthAdjust="spacingAndGlyphs" textLength="95" x="161.5" y="213.4189">+Staff(String nama)</text><text fill="#000000" font-family="sans-serif" font-size="11" lengthAdjust="spacingAndGlyphs" textLength="37" x="161.5" y="227.2549">+kerja()</text><path d="M238.5,40 L238.5,66.3516 L327.5,66.3516 L327.5,50 L317.5,40 L238.5,40 " fill="#FBFB77" filter="url(#fk3o55nydkchv)" style="stroke: #A80036; stroke-width: 1.0;"/><path d="M317.5,40 L317.5,50 L327.5,50 L317.5,40 " fill="#FBFB77" style="stroke: #A80036; stroke-width: 1.0;"/><text fill="#000000" font-family="sans-serif" font-size="13" lengthAdjust="spacingAndGlyphs" textLength="68" x="244.5" y="58.4951">Hierarchical</text><!--reverse link Karyawan to Dosen--><path d="M103.7512,116.289 C96.4615,130.369 88.9424,144.8921 82.3785,157.5703 " fill="none" id="Karyawan&lt;-Dosen" style="stroke: #A80036; stroke-width: 1.0;"/><polygon fill="none" points="97.691,112.769,113.103,98.226,110.124,119.206,97.691,112.769" style="stroke: #A80036; stroke-width: 1.0;"/><!--reverse link Karyawan to Staff--><path d="M168.249,116.289 C175.539,130.369 183.058,144.8921 189.622,157.5703 " fill="none" id="Karyawan&lt;-Staff" style="stroke: #A80036; stroke-width: 1.0;"/><polygon fill="none" points="161.876,119.206,158.897,98.226,174.309,112.769,161.876,119.206" style="stroke: #A80036; stroke-width: 1.0;"/><!--
@startuml inheritance
skinparam classAttributeIconSize 0
Karyawan <|- - Dosen
Karyawan <|- - Staff
Class Karyawan {
    #String nama
    +Karyawan(String nama)
    +kerja()
}
class Dosen {
    +Dosen(String nama)
    +kerja()
}
class Staff {
    +Staff(String nama)
    +kerja()
}
note "Hierarchical" as n
@enduml

PlantUML version 1.2019.09(Mon Aug 26 23:19:51 ICT 2019)
(GPL source distribution)
Java Runtime: Java(TM) SE Runtime Environment
JVM: Java HotSpot(TM) 64-Bit Server VM
Java Version: 11.0.6+8-LTS
Operating System: Windows 10
OS Version: 10.0
Default Encoding: Cp1252
Language: en
Country: US
--></g></svg>