<?xml version="1.0" encoding="UTF-8" standalone="no"?><svg xmlns="http://www.w3.org/2000/svg" xmlns:xlink="http://www.w3.org/1999/xlink" contentScriptType="application/ecmascript" contentStyleType="text/css" height="352px" preserveAspectRatio="none" style="width:246px;height:352px;" version="1.1" viewBox="0 0 246 352" width="246px" zoomAndPan="magnify"><defs><filter height="300%" id="f1n034g1snn8y5" width="300%" x="-1" y="-1"><feGaussianBlur result="blurOut" stdDeviation="2.0"/><feColorMatrix in="blurOut" result="blurOut2" type="matrix" values="0 0 0 0 0 0 0 0 0 0 0 0 0 0 0 0 0 0 .4 0"/><feOffset dx="4.0" dy="4.0" in="blurOut2" result="blurOut3"/><feBlend in="SourceGraphic" in2="blurOut3" mode="normal"/></filter></defs><g><!--class Binatang--><rect fill="#FEFECE" filter="url(#f1n034g1snn8y5)" height="89.5078" id="Binatang" style="stroke: #A80036; stroke-width: 1.5;" width="119" x="6" y="8"/><ellipse cx="38.1" cy="24" fill="#ADD1B2" rx="11" ry="11" style="stroke: #A80036; stroke-width: 1.0;"/><path d="M40.8656,19.875 Q41.0219,19.6563 41.2094,19.5469 Q41.3969,19.4375 41.6156,19.4375 Q41.9906,19.4375 42.225,19.7031 Q42.4594,19.9531 42.4594,20.5625 L42.4594,22.0156 Q42.4594,22.625 42.225,22.8906 Q41.9906,23.1563 41.6156,23.1563 Q41.2719,23.1563 41.0688,22.9531 Q40.8656,22.7656 40.7563,22.25 Q40.7094,21.8906 40.5219,21.7031 Q40.1938,21.3281 39.5844,21.1094 Q38.975,20.8906 38.35,20.8906 Q37.5844,20.8906 36.9438,21.2188 Q36.3188,21.5469 35.8188,22.2969 Q35.3344,23.0469 35.3344,24.0781 L35.3344,25.1719 Q35.3344,26.4063 36.225,27.2344 Q37.1156,28.0469 38.7094,28.0469 Q39.6469,28.0469 40.3031,27.7969 Q40.6938,27.6406 41.1156,27.2031 Q41.3813,26.9375 41.5219,26.8594 Q41.6781,26.7813 41.8813,26.7813 Q42.2094,26.7813 42.4594,27.0469 Q42.725,27.2969 42.725,27.6406 Q42.725,27.9844 42.3813,28.3906 Q41.8813,28.9688 41.0844,29.2969 Q40.0063,29.75 38.7094,29.75 Q37.1938,29.75 35.9906,29.125 Q35.0063,28.625 34.3188,27.5625 Q33.6313,26.4844 33.6313,25.2031 L33.6313,24.0469 Q33.6313,22.7188 34.2406,21.5781 Q34.8656,20.4219 35.9594,19.8125 Q37.0531,19.1875 38.2875,19.1875 Q39.0219,19.1875 39.6625,19.3594 Q40.3188,19.5156 40.8656,19.875 Z "/><text fill="#000000" font-family="sans-serif" font-size="12" lengthAdjust="spacingAndGlyphs" textLength="49" x="55.9" y="28.9102">Binatang</text><line style="stroke: #A80036; stroke-width: 1.5;" x1="7" x2="124" y1="40" y2="40"/><text fill="#000000" font-family="sans-serif" font-size="11" lengthAdjust="spacingAndGlyphs" textLength="61" x="12" y="55.4189">-String name</text><line style="stroke: #A80036; stroke-width: 1.5;" x1="7" x2="124" y1="61.8359" y2="61.8359"/><text fill="#000000" font-family="sans-serif" font-size="11" lengthAdjust="spacingAndGlyphs" textLength="107" x="12" y="77.2549">Binatang(String nama)</text><text fill="#000000" font-family="sans-serif" font-size="11" lengthAdjust="spacingAndGlyphs" textLength="58" x="12" y="91.0908">+bersuara()</text><!--class Kucing--><rect fill="#FEFECE" filter="url(#f1n034g1snn8y5)" height="61.8359" id="Kucing" style="stroke: #A80036; stroke-width: 1.5;" width="110" x="10.5" y="158"/><ellipse cx="43.5" cy="174" fill="#ADD1B2" rx="11" ry="11" style="stroke: #A80036; stroke-width: 1.0;"/><path d="M46.2656,169.875 Q46.4219,169.6563 46.6094,169.5469 Q46.7969,169.4375 47.0156,169.4375 Q47.3906,169.4375 47.625,169.7031 Q47.8594,169.9531 47.8594,170.5625 L47.8594,172.0156 Q47.8594,172.625 47.625,172.8906 Q47.3906,173.1563 47.0156,173.1563 Q46.6719,173.1563 46.4688,172.9531 Q46.2656,172.7656 46.1563,172.25 Q46.1094,171.8906 45.9219,171.7031 Q45.5938,171.3281 44.9844,171.1094 Q44.375,170.8906 43.75,170.8906 Q42.9844,170.8906 42.3438,171.2188 Q41.7188,171.5469 41.2188,172.2969 Q40.7344,173.0469 40.7344,174.0781 L40.7344,175.1719 Q40.7344,176.4063 41.625,177.2344 Q42.5156,178.0469 44.1094,178.0469 Q45.0469,178.0469 45.7031,177.7969 Q46.0938,177.6406 46.5156,177.2031 Q46.7813,176.9375 46.9219,176.8594 Q47.0781,176.7813 47.2813,176.7813 Q47.6094,176.7813 47.8594,177.0469 Q48.125,177.2969 48.125,177.6406 Q48.125,177.9844 47.7813,178.3906 Q47.2813,178.9688 46.4844,179.2969 Q45.4063,179.75 44.1094,179.75 Q42.5938,179.75 41.3906,179.125 Q40.4063,178.625 39.7188,177.5625 Q39.0313,176.4844 39.0313,175.2031 L39.0313,174.0469 Q39.0313,172.7188 39.6406,171.5781 Q40.2656,170.4219 41.3594,169.8125 Q42.4531,169.1875 43.6875,169.1875 Q44.4219,169.1875 45.0625,169.3594 Q45.7188,169.5156 46.2656,169.875 Z "/><text fill="#000000" font-family="sans-serif" font-size="12" lengthAdjust="spacingAndGlyphs" textLength="38" x="61.5" y="178.9102">Kucing</text><line style="stroke: #A80036; stroke-width: 1.5;" x1="11.5" x2="119.5" y1="190" y2="190"/><line style="stroke: #A80036; stroke-width: 1.5;" x1="11.5" x2="119.5" y1="198" y2="198"/><text fill="#000000" font-family="sans-serif" font-size="11" lengthAdjust="spacingAndGlyphs" textLength="98" x="16.5" y="213.4189">Kucing(String nama)</text><!--class Cemeng--><rect fill="#FEFECE" filter="url(#f1n034g1snn8y5)" height="61.8359" id="Cemeng" style="stroke: #A80036; stroke-width: 1.5;" width="116" x="7.5" y="280"/><ellipse cx="38.7" cy="296" fill="#ADD1B2" rx="11" ry="11" style="stroke: #A80036; stroke-width: 1.0;"/><path d="M41.4656,291.875 Q41.6219,291.6563 41.8094,291.5469 Q41.9969,291.4375 42.2156,291.4375 Q42.5906,291.4375 42.825,291.7031 Q43.0594,291.9531 43.0594,292.5625 L43.0594,294.0156 Q43.0594,294.625 42.825,294.8906 Q42.5906,295.1563 42.2156,295.1563 Q41.8719,295.1563 41.6688,294.9531 Q41.4656,294.7656 41.3563,294.25 Q41.3094,293.8906 41.1219,293.7031 Q40.7938,293.3281 40.1844,293.1094 Q39.575,292.8906 38.95,292.8906 Q38.1844,292.8906 37.5438,293.2188 Q36.9188,293.5469 36.4188,294.2969 Q35.9344,295.0469 35.9344,296.0781 L35.9344,297.1719 Q35.9344,298.4063 36.825,299.2344 Q37.7156,300.0469 39.3094,300.0469 Q40.2469,300.0469 40.9031,299.7969 Q41.2938,299.6406 41.7156,299.2031 Q41.9813,298.9375 42.1219,298.8594 Q42.2781,298.7813 42.4813,298.7813 Q42.8094,298.7813 43.0594,299.0469 Q43.325,299.2969 43.325,299.6406 Q43.325,299.9844 42.9813,300.3906 Q42.4813,300.9688 41.6844,301.2969 Q40.6063,301.75 39.3094,301.75 Q37.7938,301.75 36.5906,301.125 Q35.6063,300.625 34.9188,299.5625 Q34.2313,298.4844 34.2313,297.2031 L34.2313,296.0469 Q34.2313,294.7188 34.8406,293.5781 Q35.4656,292.4219 36.5594,291.8125 Q37.6531,291.1875 38.8875,291.1875 Q39.6219,291.1875 40.2625,291.3594 Q40.9188,291.5156 41.4656,291.875 Z "/><text fill="#000000" font-family="sans-serif" font-size="12" lengthAdjust="spacingAndGlyphs" textLength="48" x="56.3" y="300.9102">Cemeng</text><line style="stroke: #A80036; stroke-width: 1.5;" x1="8.5" x2="122.5" y1="312" y2="312"/><line style="stroke: #A80036; stroke-width: 1.5;" x1="8.5" x2="122.5" y1="320" y2="320"/><text fill="#000000" font-family="sans-serif" font-size="11" lengthAdjust="spacingAndGlyphs" textLength="104" x="13.5" y="335.4189">Cemeng(String nama)</text><path d="M160.5,40 L160.5,66.3516 L234.5,66.3516 L234.5,50 L224.5,40 L160.5,40 " fill="#FBFB77" filter="url(#f1n034g1snn8y5)" style="stroke: #A80036; stroke-width: 1.0;"/><path d="M224.5,40 L224.5,50 L234.5,50 L224.5,40 " fill="#FBFB77" style="stroke: #A80036; stroke-width: 1.0;"/><text fill="#000000" font-family="sans-serif" font-size="13" lengthAdjust="spacingAndGlyphs" textLength="53" x="166.5" y="58.4951">Multilevel</text><!--reverse link Binatang to Kucing--><path d="M65.5,118.61 C65.5,132.289 65.5,146.1 65.5,157.761 " fill="none" id="Binatang&lt;-Kucing" style="stroke: #A80036; stroke-width: 1.0;"/><polygon fill="none" points="58.5001,118.248,65.5,98.248,72.5001,118.248,58.5001,118.248" style="stroke: #A80036; stroke-width: 1.0;"/><!--reverse link Kucing to Cemeng--><path d="M65.5,240.373 C65.5,253.7544 65.5,267.7919 65.5,279.7286 " fill="none" id="Kucing&lt;-Cemeng" style="stroke: #A80036; stroke-width: 1.0;"/><polygon fill="none" points="58.5001,240.281,65.5,220.281,72.5001,240.281,58.5001,240.281" style="stroke: #A80036; stroke-width: 1.0;"/><!--
@startuml kucing
skinparam classAttributeIconSize 0
Binatang <|- - Kucing
Kucing <|- - Cemeng
class Binatang {
    -String name
    Binatang(String nama)
    +bersuara()
}
class Kucing {
    Kucing(String nama)
}
class Cemeng {
    Cemeng(String nama)
}
note "Multilevel" as n
@enduml

PlantUML version 1.2019.09(Mon Aug 26 23:19:51 ICT 2019)
(GPL source distribution)
Java Runtime: Java(TM) SE Runtime Environment
JVM: Java HotSpot(TM) 64-Bit Server VM
Java Version: 11.0.6+8-LTS
Operating System: Windows 10
OS Version: 10.0
Default Encoding: Cp1252
Language: en
Country: US
--></g></svg>