<?xml version="1.0" encoding="UTF-8" standalone="no"?><svg xmlns="http://www.w3.org/2000/svg" xmlns:xlink="http://www.w3.org/1999/xlink" contentScriptType="application/ecmascript" contentStyleType="text/css" height="175px" preserveAspectRatio="none" style="width:294px;height:175px;" version="1.1" viewBox="0 0 294 175" width="294px" zoomAndPan="magnify"><defs><filter height="300%" id="f1ej0nt6003tc5" width="300%" x="-1" y="-1"><feGaussianBlur result="blurOut" stdDeviation="2.0"/><feColorMatrix in="blurOut" result="blurOut2" type="matrix" values="0 0 0 0 0 0 0 0 0 0 0 0 0 0 0 0 0 0 .4 0"/><feOffset dx="4.0" dy="4.0" in="blurOut2" result="blurOut3"/><feBlend in="SourceGraphic" in2="blurOut3" mode="normal"/></filter></defs><g><!--class ClassI--><rect fill="#FEFECE" filter="url(#f1ej0nt6003tc5)" height="48" id="ClassI" style="stroke: #A80036; stroke-width: 1.5;" width="68" x="6" y="8"/><ellipse cx="21" cy="24" fill="#ADD1B2" rx="11" ry="11" style="stroke: #A80036; stroke-width: 1.0;"/><path d="M23.7656,19.875 Q23.9219,19.6563 24.1094,19.5469 Q24.2969,19.4375 24.5156,19.4375 Q24.8906,19.4375 25.125,19.7031 Q25.3594,19.9531 25.3594,20.5625 L25.3594,22.0156 Q25.3594,22.625 25.125,22.8906 Q24.8906,23.1563 24.5156,23.1563 Q24.1719,23.1563 23.9688,22.9531 Q23.7656,22.7656 23.6563,22.25 Q23.6094,21.8906 23.4219,21.7031 Q23.0938,21.3281 22.4844,21.1094 Q21.875,20.8906 21.25,20.8906 Q20.4844,20.8906 19.8438,21.2188 Q19.2188,21.5469 18.7188,22.2969 Q18.2344,23.0469 18.2344,24.0781 L18.2344,25.1719 Q18.2344,26.4063 19.125,27.2344 Q20.0156,28.0469 21.6094,28.0469 Q22.5469,28.0469 23.2031,27.7969 Q23.5938,27.6406 24.0156,27.2031 Q24.2813,26.9375 24.4219,26.8594 Q24.5781,26.7813 24.7813,26.7813 Q25.1094,26.7813 25.3594,27.0469 Q25.625,27.2969 25.625,27.6406 Q25.625,27.9844 25.2813,28.3906 Q24.7813,28.9688 23.9844,29.2969 Q22.9063,29.75 21.6094,29.75 Q20.0938,29.75 18.8906,29.125 Q17.9063,28.625 17.2188,27.5625 Q16.5313,26.4844 16.5313,25.2031 L16.5313,24.0469 Q16.5313,22.7188 17.1406,21.5781 Q17.7656,20.4219 18.8594,19.8125 Q19.9531,19.1875 21.1875,19.1875 Q21.9219,19.1875 22.5625,19.3594 Q23.2188,19.5156 23.7656,19.875 Z "/><text fill="#000000" font-family="sans-serif" font-size="12" lengthAdjust="spacingAndGlyphs" textLength="36" x="35" y="28.9102">ClassI</text><line style="stroke: #A80036; stroke-width: 1.5;" x1="7" x2="73" y1="40" y2="40"/><line style="stroke: #A80036; stroke-width: 1.5;" x1="7" x2="73" y1="48" y2="48"/><!--class ClassK--><rect fill="#FEFECE" filter="url(#f1ej0nt6003tc5)" height="48" id="ClassK" style="stroke: #A80036; stroke-width: 1.5;" width="73" x="55.5" y="116"/><ellipse cx="70.5" cy="132" fill="#ADD1B2" rx="11" ry="11" style="stroke: #A80036; stroke-width: 1.0;"/><path d="M73.2656,127.875 Q73.4219,127.6563 73.6094,127.5469 Q73.7969,127.4375 74.0156,127.4375 Q74.3906,127.4375 74.625,127.7031 Q74.8594,127.9531 74.8594,128.5625 L74.8594,130.0156 Q74.8594,130.625 74.625,130.8906 Q74.3906,131.1563 74.0156,131.1563 Q73.6719,131.1563 73.4688,130.9531 Q73.2656,130.7656 73.1563,130.25 Q73.1094,129.8906 72.9219,129.7031 Q72.5938,129.3281 71.9844,129.1094 Q71.375,128.8906 70.75,128.8906 Q69.9844,128.8906 69.3438,129.2188 Q68.7188,129.5469 68.2188,130.2969 Q67.7344,131.0469 67.7344,132.0781 L67.7344,133.1719 Q67.7344,134.4063 68.625,135.2344 Q69.5156,136.0469 71.1094,136.0469 Q72.0469,136.0469 72.7031,135.7969 Q73.0938,135.6406 73.5156,135.2031 Q73.7813,134.9375 73.9219,134.8594 Q74.0781,134.7813 74.2813,134.7813 Q74.6094,134.7813 74.8594,135.0469 Q75.125,135.2969 75.125,135.6406 Q75.125,135.9844 74.7813,136.3906 Q74.2813,136.9688 73.4844,137.2969 Q72.4063,137.75 71.1094,137.75 Q69.5938,137.75 68.3906,137.125 Q67.4063,136.625 66.7188,135.5625 Q66.0313,134.4844 66.0313,133.2031 L66.0313,132.0469 Q66.0313,130.7188 66.6406,129.5781 Q67.2656,128.4219 68.3594,127.8125 Q69.4531,127.1875 70.6875,127.1875 Q71.4219,127.1875 72.0625,127.3594 Q72.7188,127.5156 73.2656,127.875 Z "/><text fill="#000000" font-family="sans-serif" font-size="12" lengthAdjust="spacingAndGlyphs" textLength="41" x="84.5" y="136.9102">ClassK</text><line style="stroke: #A80036; stroke-width: 1.5;" x1="56.5" x2="127.5" y1="148" y2="148"/><line style="stroke: #A80036; stroke-width: 1.5;" x1="56.5" x2="127.5" y1="156" y2="156"/><!--class ClassJ--><rect fill="#FEFECE" filter="url(#f1ej0nt6003tc5)" height="48" id="ClassJ" style="stroke: #A80036; stroke-width: 1.5;" width="71" x="109.5" y="8"/><ellipse cx="124.5" cy="24" fill="#ADD1B2" rx="11" ry="11" style="stroke: #A80036; stroke-width: 1.0;"/><path d="M127.2656,19.875 Q127.4219,19.6563 127.6094,19.5469 Q127.7969,19.4375 128.0156,19.4375 Q128.3906,19.4375 128.625,19.7031 Q128.8594,19.9531 128.8594,20.5625 L128.8594,22.0156 Q128.8594,22.625 128.625,22.8906 Q128.3906,23.1563 128.0156,23.1563 Q127.6719,23.1563 127.4688,22.9531 Q127.2656,22.7656 127.1563,22.25 Q127.1094,21.8906 126.9219,21.7031 Q126.5938,21.3281 125.9844,21.1094 Q125.375,20.8906 124.75,20.8906 Q123.9844,20.8906 123.3438,21.2188 Q122.7188,21.5469 122.2188,22.2969 Q121.7344,23.0469 121.7344,24.0781 L121.7344,25.1719 Q121.7344,26.4063 122.625,27.2344 Q123.5156,28.0469 125.1094,28.0469 Q126.0469,28.0469 126.7031,27.7969 Q127.0938,27.6406 127.5156,27.2031 Q127.7813,26.9375 127.9219,26.8594 Q128.0781,26.7813 128.2813,26.7813 Q128.6094,26.7813 128.8594,27.0469 Q129.125,27.2969 129.125,27.6406 Q129.125,27.9844 128.7813,28.3906 Q128.2813,28.9688 127.4844,29.2969 Q126.4063,29.75 125.1094,29.75 Q123.5938,29.75 122.3906,29.125 Q121.4063,28.625 120.7188,27.5625 Q120.0313,26.4844 120.0313,25.2031 L120.0313,24.0469 Q120.0313,22.7188 120.6406,21.5781 Q121.2656,20.4219 122.3594,19.8125 Q123.4531,19.1875 124.6875,19.1875 Q125.4219,19.1875 126.0625,19.3594 Q126.7188,19.5156 127.2656,19.875 Z "/><text fill="#000000" font-family="sans-serif" font-size="12" lengthAdjust="spacingAndGlyphs" textLength="39" x="138.5" y="28.9102">ClassJ</text><line style="stroke: #A80036; stroke-width: 1.5;" x1="110.5" x2="179.5" y1="40" y2="40"/><line style="stroke: #A80036; stroke-width: 1.5;" x1="110.5" x2="179.5" y1="48" y2="48"/><path d="M216,19 L216,45.3516 L282,45.3516 L282,29 L272,19 L216,19 " fill="#FBFB77" filter="url(#f1ej0nt6003tc5)" style="stroke: #A80036; stroke-width: 1.0;"/><path d="M272,19 L272,29 L282,29 L272,19 " fill="#FBFB77" style="stroke: #A80036; stroke-width: 1.0;"/><text fill="#000000" font-family="sans-serif" font-size="13" lengthAdjust="spacingAndGlyphs" textLength="45" x="222" y="37.4951">Multiple</text><!--reverse link ClassI to ClassK--><path d="M60.1591,74.0936 C67.0772,88.1958 74.577,103.4838 80.5592,115.6784 " fill="none" id="ClassI&lt;-ClassK" style="stroke: #A80036; stroke-width: 1.0;"/><polygon fill="none" points="53.8073,77.0392,51.2832,56,66.3763,70.8732,53.8073,77.0392" style="stroke: #A80036; stroke-width: 1.0;"/><!--reverse link ClassJ to ClassK--><path d="M124.453,74.0936 C117.402,88.1958 109.758,103.4838 103.6608,115.6784 " fill="none" id="ClassJ&lt;-ClassK" style="stroke: #A80036; stroke-width: 1.0;"/><polygon fill="none" points="118.294,70.7585,133.5,56,130.816,77.0195,118.294,70.7585" style="stroke: #A80036; stroke-width: 1.0;"/><!--
@startuml inheritance
skinparam classAttributeIconSize 0
ClassI <|- - ClassK
ClassJ <|- - ClassK
note "Multiple" as n
@enduml

PlantUML version 1.2019.09(Mon Aug 26 23:19:51 ICT 2019)
(GPL source distribution)
Java Runtime: Java(TM) SE Runtime Environment
JVM: Java HotSpot(TM) 64-Bit Server VM
Java Version: 11.0.6+8-LTS
Operating System: Windows 10
OS Version: 10.0
Default Encoding: Cp1252
Language: en
Country: US
--></g></svg>