<?xml version="1.0" encoding="UTF-8" standalone="no"?><svg xmlns="http://www.w3.org/2000/svg" xmlns:xlink="http://www.w3.org/1999/xlink" contentScriptType="application/ecmascript" contentStyleType="text/css" height="327px" preserveAspectRatio="none" style="width:285px;height:327px;" version="1.1" viewBox="0 0 285 327" width="285px" zoomAndPan="magnify"><defs><filter height="300%" id="fyov64qlrcred" width="300%" x="-1" y="-1"><feGaussianBlur result="blurOut" stdDeviation="2.0"/><feColorMatrix in="blurOut" result="blurOut2" type="matrix" values="0 0 0 0 0 0 0 0 0 0 0 0 0 0 0 0 0 0 .4 0"/><feOffset dx="4.0" dy="4.0" in="blurOut2" result="blurOut3"/><feBlend in="SourceGraphic" in2="blurOut3" mode="normal"/></filter></defs><g><!--class Jurusan--><rect fill="#FEFECE" filter="url(#fyov64qlrcred)" height="131.0156" id="Jurusan" style="stroke: #A80036; stroke-width: 1.5;" width="268" x="6" y="8"/><ellipse cx="113.25" cy="24" fill="#ADD1B2" rx="11" ry="11" style="stroke: #A80036; stroke-width: 1.0;"/><path d="M116.0156,19.875 Q116.1719,19.6563 116.3594,19.5469 Q116.5469,19.4375 116.7656,19.4375 Q117.1406,19.4375 117.375,19.7031 Q117.6094,19.9531 117.6094,20.5625 L117.6094,22.0156 Q117.6094,22.625 117.375,22.8906 Q117.1406,23.1563 116.7656,23.1563 Q116.4219,23.1563 116.2188,22.9531 Q116.0156,22.7656 115.9063,22.25 Q115.8594,21.8906 115.6719,21.7031 Q115.3438,21.3281 114.7344,21.1094 Q114.125,20.8906 113.5,20.8906 Q112.7344,20.8906 112.0938,21.2188 Q111.4688,21.5469 110.9688,22.2969 Q110.4844,23.0469 110.4844,24.0781 L110.4844,25.1719 Q110.4844,26.4063 111.375,27.2344 Q112.2656,28.0469 113.8594,28.0469 Q114.7969,28.0469 115.4531,27.7969 Q115.8438,27.6406 116.2656,27.2031 Q116.5313,26.9375 116.6719,26.8594 Q116.8281,26.7813 117.0313,26.7813 Q117.3594,26.7813 117.6094,27.0469 Q117.875,27.2969 117.875,27.6406 Q117.875,27.9844 117.5313,28.3906 Q117.0313,28.9688 116.2344,29.2969 Q115.1563,29.75 113.8594,29.75 Q112.3438,29.75 111.1406,29.125 Q110.1563,28.625 109.4688,27.5625 Q108.7813,26.4844 108.7813,25.2031 L108.7813,24.0469 Q108.7813,22.7188 109.3906,21.5781 Q110.0156,20.4219 111.1094,19.8125 Q112.2031,19.1875 113.4375,19.1875 Q114.1719,19.1875 114.8125,19.3594 Q115.4688,19.5156 116.0156,19.875 Z "/><text fill="#000000" font-family="sans-serif" font-size="12" lengthAdjust="spacingAndGlyphs" textLength="45" x="133.75" y="28.9102">Jurusan</text><line style="stroke: #A80036; stroke-width: 1.5;" x1="7" x2="273" y1="40" y2="40"/><rect fill="none" height="6" style="stroke: #C82930; stroke-width: 1.0;" width="6" x="14" y="48"/><text fill="#000000" font-family="sans-serif" font-size="11" lengthAdjust="spacingAndGlyphs" textLength="93" x="26" y="55.4189">String kodeJurusan</text><rect fill="none" height="6" style="stroke: #C82930; stroke-width: 1.0;" width="6" x="14" y="61.8359"/><text fill="#000000" font-family="sans-serif" font-size="11" lengthAdjust="spacingAndGlyphs" textLength="96" x="26" y="69.2549">String namaJurusan</text><rect fill="none" height="6" style="stroke: #C82930; stroke-width: 1.0;" width="6" x="14" y="75.6719"/><text fill="#000000" font-family="sans-serif" font-size="11" lengthAdjust="spacingAndGlyphs" textLength="121" x="26" y="83.0908">Mahasiswa[] mahasiswa</text><line style="stroke: #A80036; stroke-width: 1.5;" x1="7" x2="273" y1="89.5078" y2="89.5078"/><ellipse cx="17" cy="100.5078" fill="#84BE84" rx="3" ry="3" style="stroke: #038048; stroke-width: 1.0;"/><text fill="#000000" font-family="sans-serif" font-size="11" lengthAdjust="spacingAndGlyphs" textLength="242" x="26" y="104.9268">Jurusan(String kodeJurusan, String namaJurusan)</text><ellipse cx="17" cy="114.3438" fill="#84BE84" rx="3" ry="3" style="stroke: #038048; stroke-width: 1.0;"/><text fill="#000000" font-family="sans-serif" font-size="11" lengthAdjust="spacingAndGlyphs" textLength="200" x="26" y="118.7627">setMahasiswa(Mahasiswa[] mahasiswa)</text><ellipse cx="17" cy="128.1797" fill="#84BE84" rx="3" ry="3" style="stroke: #038048; stroke-width: 1.0;"/><text fill="#000000" font-family="sans-serif" font-size="11" lengthAdjust="spacingAndGlyphs" textLength="86" x="26" y="132.5986">displayInformasi()</text><!--class Mahasiswa--><rect fill="#FEFECE" filter="url(#fyov64qlrcred)" height="117.1797" id="Mahasiswa" style="stroke: #A80036; stroke-width: 1.5;" width="204" x="38" y="199"/><ellipse cx="104.25" cy="215" fill="#ADD1B2" rx="11" ry="11" style="stroke: #A80036; stroke-width: 1.0;"/><path d="M107.0156,210.875 Q107.1719,210.6563 107.3594,210.5469 Q107.5469,210.4375 107.7656,210.4375 Q108.1406,210.4375 108.375,210.7031 Q108.6094,210.9531 108.6094,211.5625 L108.6094,213.0156 Q108.6094,213.625 108.375,213.8906 Q108.1406,214.1563 107.7656,214.1563 Q107.4219,214.1563 107.2188,213.9531 Q107.0156,213.7656 106.9063,213.25 Q106.8594,212.8906 106.6719,212.7031 Q106.3438,212.3281 105.7344,212.1094 Q105.125,211.8906 104.5,211.8906 Q103.7344,211.8906 103.0938,212.2188 Q102.4688,212.5469 101.9688,213.2969 Q101.4844,214.0469 101.4844,215.0781 L101.4844,216.1719 Q101.4844,217.4063 102.375,218.2344 Q103.2656,219.0469 104.8594,219.0469 Q105.7969,219.0469 106.4531,218.7969 Q106.8438,218.6406 107.2656,218.2031 Q107.5313,217.9375 107.6719,217.8594 Q107.8281,217.7813 108.0313,217.7813 Q108.3594,217.7813 108.6094,218.0469 Q108.875,218.2969 108.875,218.6406 Q108.875,218.9844 108.5313,219.3906 Q108.0313,219.9688 107.2344,220.2969 Q106.1563,220.75 104.8594,220.75 Q103.3438,220.75 102.1406,220.125 Q101.1563,219.625 100.4688,218.5625 Q99.7813,217.4844 99.7813,216.2031 L99.7813,215.0469 Q99.7813,213.7188 100.3906,212.5781 Q101.0156,211.4219 102.1094,210.8125 Q103.2031,210.1875 104.4375,210.1875 Q105.1719,210.1875 105.8125,210.3594 Q106.4688,210.5156 107.0156,210.875 Z "/><text fill="#000000" font-family="sans-serif" font-size="12" lengthAdjust="spacingAndGlyphs" textLength="63" x="124.75" y="219.9102">Mahasiswa</text><line style="stroke: #A80036; stroke-width: 1.5;" x1="39" x2="241" y1="231" y2="231"/><rect fill="none" height="6" style="stroke: #C82930; stroke-width: 1.0;" width="6" x="46" y="239"/><text fill="#000000" font-family="sans-serif" font-size="11" lengthAdjust="spacingAndGlyphs" textLength="51" x="58" y="246.4189">String npm</text><rect fill="none" height="6" style="stroke: #C82930; stroke-width: 1.0;" width="6" x="46" y="252.8359"/><text fill="#000000" font-family="sans-serif" font-size="11" lengthAdjust="spacingAndGlyphs" textLength="57" x="58" y="260.2549">String nama</text><line style="stroke: #A80036; stroke-width: 1.5;" x1="39" x2="241" y1="266.6719" y2="266.6719"/><ellipse cx="49" cy="277.6719" fill="#84BE84" rx="3" ry="3" style="stroke: #038048; stroke-width: 1.0;"/><text fill="#000000" font-family="sans-serif" font-size="11" lengthAdjust="spacingAndGlyphs" textLength="178" x="58" y="282.0908">Mahasiswa(String npm, String nama)</text><ellipse cx="49" cy="291.5078" fill="#84BE84" rx="3" ry="3" style="stroke: #038048; stroke-width: 1.0;"/><text fill="#000000" font-family="sans-serif" font-size="11" lengthAdjust="spacingAndGlyphs" textLength="78" x="58" y="295.9268">getNPM(): String</text><ellipse cx="49" cy="305.3438" fill="#84BE84" rx="3" ry="3" style="stroke: #038048; stroke-width: 1.0;"/><text fill="#000000" font-family="sans-serif" font-size="11" lengthAdjust="spacingAndGlyphs" textLength="84" x="58" y="309.7627">getNama(): String</text><!--reverse link Jurusan to Mahasiswa--><path d="M140,152.197 C140,167.896 140,184.135 140,198.99 " fill="none" id="Jurusan&lt;-Mahasiswa" style="stroke: #A80036; stroke-width: 1.0;"/><polygon fill="#FFFFFF" points="140,139.179,136,145.179,140,151.179,144,145.179,140,139.179" style="stroke: #A80036; stroke-width: 1.0;"/><text fill="#000000" font-family="sans-serif" font-size="13" lengthAdjust="spacingAndGlyphs" textLength="7" x="132.6391" y="160.2896">1</text><text fill="#000000" font-family="sans-serif" font-size="13" lengthAdjust="spacingAndGlyphs" textLength="5" x="134.6797" y="187.9745">*</text><!--
@startuml jurusanmahasiswa
Jurusan "1" o- - "*" Mahasiswa
class Jurusan {
    -String kodeJurusan
    -String namaJurusan
    -Mahasiswa[] mahasiswa
    +Jurusan(String kodeJurusan, String namaJurusan)
    +setMahasiswa(Mahasiswa[] mahasiswa)
    +displayInformasi()
}
class Mahasiswa {
    -String npm
    -String nama
    +Mahasiswa(String npm, String nama)
    +getNPM(): String
    +getNama(): String
}
@enduml

PlantUML version 1.2019.09(Mon Aug 26 23:19:51 ICT 2019)
(GPL source distribution)
Java Runtime: Java(TM) SE Runtime Environment
JVM: Java HotSpot(TM) 64-Bit Server VM
Java Version: 11.0.6+8-LTS
Operating System: Windows 10
OS Version: 10.0
Default Encoding: Cp1252
Language: en
Country: US
--></g></svg>