<?xml version="1.0" encoding="UTF-8" standalone="no"?><svg xmlns="http://www.w3.org/2000/svg" xmlns:xlink="http://www.w3.org/1999/xlink" contentScriptType="application/ecmascript" contentStyleType="text/css" height="271px" preserveAspectRatio="none" style="width:197px;height:271px;" version="1.1" viewBox="0 0 197 271" width="197px" zoomAndPan="magnify"><defs><filter height="300%" id="f1axbs4l17o3vv" width="300%" x="-1" y="-1"><feGaussianBlur result="blurOut" stdDeviation="2.0"/><feColorMatrix in="blurOut" result="blurOut2" type="matrix" values="0 0 0 0 0 0 0 0 0 0 0 0 0 0 0 0 0 0 .4 0"/><feOffset dx="4.0" dy="4.0" in="blurOut2" result="blurOut3"/><feBlend in="SourceGraphic" in2="blurOut3" mode="normal"/></filter></defs><g><!--class Mobil--><rect fill="#FEFECE" filter="url(#f1axbs4l17o3vv)" height="103.3438" id="Mobil" style="stroke: #A80036; stroke-width: 1.5;" width="180" x="6" y="8"/><ellipse cx="77.25" cy="24" fill="#ADD1B2" rx="11" ry="11" style="stroke: #A80036; stroke-width: 1.0;"/><path d="M80.0156,19.875 Q80.1719,19.6563 80.3594,19.5469 Q80.5469,19.4375 80.7656,19.4375 Q81.1406,19.4375 81.375,19.7031 Q81.6094,19.9531 81.6094,20.5625 L81.6094,22.0156 Q81.6094,22.625 81.375,22.8906 Q81.1406,23.1563 80.7656,23.1563 Q80.4219,23.1563 80.2188,22.9531 Q80.0156,22.7656 79.9063,22.25 Q79.8594,21.8906 79.6719,21.7031 Q79.3438,21.3281 78.7344,21.1094 Q78.125,20.8906 77.5,20.8906 Q76.7344,20.8906 76.0938,21.2188 Q75.4688,21.5469 74.9688,22.2969 Q74.4844,23.0469 74.4844,24.0781 L74.4844,25.1719 Q74.4844,26.4063 75.375,27.2344 Q76.2656,28.0469 77.8594,28.0469 Q78.7969,28.0469 79.4531,27.7969 Q79.8438,27.6406 80.2656,27.2031 Q80.5313,26.9375 80.6719,26.8594 Q80.8281,26.7813 81.0313,26.7813 Q81.3594,26.7813 81.6094,27.0469 Q81.875,27.2969 81.875,27.6406 Q81.875,27.9844 81.5313,28.3906 Q81.0313,28.9688 80.2344,29.2969 Q79.1563,29.75 77.8594,29.75 Q76.3438,29.75 75.1406,29.125 Q74.1563,28.625 73.4688,27.5625 Q72.7813,26.4844 72.7813,25.2031 L72.7813,24.0469 Q72.7813,22.7188 73.3906,21.5781 Q74.0156,20.4219 75.1094,19.8125 Q76.2031,19.1875 77.4375,19.1875 Q78.1719,19.1875 78.8125,19.3594 Q79.4688,19.5156 80.0156,19.875 Z "/><text fill="#000000" font-family="sans-serif" font-size="12" lengthAdjust="spacingAndGlyphs" textLength="29" x="97.75" y="28.9102">Mobil</text><line style="stroke: #A80036; stroke-width: 1.5;" x1="7" x2="185" y1="40" y2="40"/><rect fill="none" height="6" style="stroke: #C82930; stroke-width: 1.0;" width="6" x="14" y="48"/><text fill="#000000" font-family="sans-serif" font-size="11" lengthAdjust="spacingAndGlyphs" textLength="60" x="26" y="55.4189">String: nama</text><rect fill="none" height="6" style="stroke: #C82930; stroke-width: 1.0;" width="6" x="14" y="61.8359"/><text fill="#000000" font-family="sans-serif" font-size="11" lengthAdjust="spacingAndGlyphs" textLength="62" x="26" y="69.2549">Mesin: mesin</text><line style="stroke: #A80036; stroke-width: 1.5;" x1="7" x2="185" y1="75.6719" y2="75.6719"/><ellipse cx="17" cy="86.6719" fill="#84BE84" rx="3" ry="3" style="stroke: #038048; stroke-width: 1.0;"/><text fill="#000000" font-family="sans-serif" font-size="11" lengthAdjust="spacingAndGlyphs" textLength="154" x="26" y="91.0908">Mobil(String nama, Mesin mesin)</text><ellipse cx="17" cy="100.5078" fill="#84BE84" rx="3" ry="3" style="stroke: #038048; stroke-width: 1.0;"/><text fill="#000000" font-family="sans-serif" font-size="11" lengthAdjust="spacingAndGlyphs" textLength="86" x="26" y="104.9268">displayInformasi()</text><!--class Mesin--><rect fill="#FEFECE" filter="url(#f1axbs4l17o3vv)" height="89.5078" id="Mesin" style="stroke: #A80036; stroke-width: 1.5;" width="158" x="17" y="171"/><ellipse cx="75.25" cy="187" fill="#ADD1B2" rx="11" ry="11" style="stroke: #A80036; stroke-width: 1.0;"/><path d="M78.0156,182.875 Q78.1719,182.6563 78.3594,182.5469 Q78.5469,182.4375 78.7656,182.4375 Q79.1406,182.4375 79.375,182.7031 Q79.6094,182.9531 79.6094,183.5625 L79.6094,185.0156 Q79.6094,185.625 79.375,185.8906 Q79.1406,186.1563 78.7656,186.1563 Q78.4219,186.1563 78.2188,185.9531 Q78.0156,185.7656 77.9063,185.25 Q77.8594,184.8906 77.6719,184.7031 Q77.3438,184.3281 76.7344,184.1094 Q76.125,183.8906 75.5,183.8906 Q74.7344,183.8906 74.0938,184.2188 Q73.4688,184.5469 72.9688,185.2969 Q72.4844,186.0469 72.4844,187.0781 L72.4844,188.1719 Q72.4844,189.4063 73.375,190.2344 Q74.2656,191.0469 75.8594,191.0469 Q76.7969,191.0469 77.4531,190.7969 Q77.8438,190.6406 78.2656,190.2031 Q78.5313,189.9375 78.6719,189.8594 Q78.8281,189.7813 79.0313,189.7813 Q79.3594,189.7813 79.6094,190.0469 Q79.875,190.2969 79.875,190.6406 Q79.875,190.9844 79.5313,191.3906 Q79.0313,191.9688 78.2344,192.2969 Q77.1563,192.75 75.8594,192.75 Q74.3438,192.75 73.1406,192.125 Q72.1563,191.625 71.4688,190.5625 Q70.7813,189.4844 70.7813,188.2031 L70.7813,187.0469 Q70.7813,185.7188 71.3906,184.5781 Q72.0156,183.4219 73.1094,182.8125 Q74.2031,182.1875 75.4375,182.1875 Q76.1719,182.1875 76.8125,182.3594 Q77.4688,182.5156 78.0156,182.875 Z "/><text fill="#000000" font-family="sans-serif" font-size="12" lengthAdjust="spacingAndGlyphs" textLength="33" x="95.75" y="191.9102">Mesin</text><line style="stroke: #A80036; stroke-width: 1.5;" x1="18" x2="174" y1="203" y2="203"/><rect fill="none" height="6" style="stroke: #C82930; stroke-width: 1.0;" width="6" x="25" y="211"/><text fill="#000000" font-family="sans-serif" font-size="11" lengthAdjust="spacingAndGlyphs" textLength="99" x="37" y="218.4189">TipeMEsin: tipeMesin</text><line style="stroke: #A80036; stroke-width: 1.5;" x1="18" x2="174" y1="224.8359" y2="224.8359"/><ellipse cx="28" cy="235.8359" fill="#84BE84" rx="3" ry="3" style="stroke: #038048; stroke-width: 1.0;"/><text fill="#000000" font-family="sans-serif" font-size="11" lengthAdjust="spacingAndGlyphs" textLength="132" x="37" y="240.2549">Mesin(TipeMesin tipeMesin)</text><ellipse cx="28" cy="249.6719" fill="#84BE84" rx="3" ry="3" style="stroke: #038048; stroke-width: 1.0;"/><text fill="#000000" font-family="sans-serif" font-size="11" lengthAdjust="spacingAndGlyphs" textLength="125" x="37" y="254.0908">getTipeMesin(): TipeMesin</text><!--reverse link Mobil to Mesin--><path d="M96,124.511 C96,140.077 96,156.381 96,170.7944 " fill="none" id="Mobil&lt;-Mesin" style="stroke: #A80036; stroke-width: 1.0;"/><polygon fill="#A80036" points="96,111.089,92,117.089,96,123.089,100,117.089,96,111.089" style="stroke: #A80036; stroke-width: 1.0;"/><!--
@startuml komposisi
Mobil *- - Mesin
class Mesin {
    -TipeMEsin: tipeMesin
    +Mesin(TipeMesin tipeMesin)
    +getTipeMesin(): TipeMesin
}
class Mobil {
    -String: nama
    -Mesin: mesin
    +Mobil(String nama, Mesin mesin)
    +displayInformasi()

}
@enduml

PlantUML version 1.2019.09(Mon Aug 26 23:19:51 ICT 2019)
(GPL source distribution)
Java Runtime: Java(TM) SE Runtime Environment
JVM: Java HotSpot(TM) 64-Bit Server VM
Java Version: 11.0.6+8-LTS
Operating System: Windows 10
OS Version: 10.0
Default Encoding: Cp1252
Language: en
Country: US
--></g></svg>