<?xml version="1.0" encoding="UTF-8" standalone="no"?><svg xmlns="http://www.w3.org/2000/svg" xmlns:xlink="http://www.w3.org/1999/xlink" contentScriptType="application/ecmascript" contentStyleType="text/css" height="175px" preserveAspectRatio="none" style="width:410px;height:175px;" version="1.1" viewBox="0 0 410 175" width="410px" zoomAndPan="magnify"><defs><filter height="300%" id="fqv8oqlfgrkf9" width="300%" x="-1" y="-1"><feGaussianBlur result="blurOut" stdDeviation="2.0"/><feColorMatrix in="blurOut" result="blurOut2" type="matrix" values="0 0 0 0 0 0 0 0 0 0 0 0 0 0 0 0 0 0 .4 0"/><feOffset dx="4.0" dy="4.0" in="blurOut2" result="blurOut3"/><feBlend in="SourceGraphic" in2="blurOut3" mode="normal"/></filter></defs><g><!--class Clas1--><rect fill="#FEFECE" filter="url(#fqv8oqlfgrkf9)" height="48" id="Clas1" style="stroke: #A80036; stroke-width: 1.5;" width="65" x="9.5" y="8"/><ellipse cx="24.5" cy="24" fill="#ADD1B2" rx="11" ry="11" style="stroke: #A80036; stroke-width: 1.0;"/><path d="M27.2656,19.875 Q27.4219,19.6563 27.6094,19.5469 Q27.7969,19.4375 28.0156,19.4375 Q28.3906,19.4375 28.625,19.7031 Q28.8594,19.9531 28.8594,20.5625 L28.8594,22.0156 Q28.8594,22.625 28.625,22.8906 Q28.3906,23.1563 28.0156,23.1563 Q27.6719,23.1563 27.4688,22.9531 Q27.2656,22.7656 27.1563,22.25 Q27.1094,21.8906 26.9219,21.7031 Q26.5938,21.3281 25.9844,21.1094 Q25.375,20.8906 24.75,20.8906 Q23.9844,20.8906 23.3438,21.2188 Q22.7188,21.5469 22.2188,22.2969 Q21.7344,23.0469 21.7344,24.0781 L21.7344,25.1719 Q21.7344,26.4063 22.625,27.2344 Q23.5156,28.0469 25.1094,28.0469 Q26.0469,28.0469 26.7031,27.7969 Q27.0938,27.6406 27.5156,27.2031 Q27.7813,26.9375 27.9219,26.8594 Q28.0781,26.7813 28.2813,26.7813 Q28.6094,26.7813 28.8594,27.0469 Q29.125,27.2969 29.125,27.6406 Q29.125,27.9844 28.7813,28.3906 Q28.2813,28.9688 27.4844,29.2969 Q26.4063,29.75 25.1094,29.75 Q23.5938,29.75 22.3906,29.125 Q21.4063,28.625 20.7188,27.5625 Q20.0313,26.4844 20.0313,25.2031 L20.0313,24.0469 Q20.0313,22.7188 20.6406,21.5781 Q21.2656,20.4219 22.3594,19.8125 Q23.4531,19.1875 24.6875,19.1875 Q25.4219,19.1875 26.0625,19.3594 Q26.7188,19.5156 27.2656,19.875 Z "/><text fill="#000000" font-family="sans-serif" font-size="12" lengthAdjust="spacingAndGlyphs" textLength="33" x="38.5" y="28.9102">Clas1</text><line style="stroke: #A80036; stroke-width: 1.5;" x1="10.5" x2="73.5" y1="40" y2="40"/><line style="stroke: #A80036; stroke-width: 1.5;" x1="10.5" x2="73.5" y1="48" y2="48"/><!--class Class2--><rect fill="#FEFECE" filter="url(#fqv8oqlfgrkf9)" height="48" id="Class2" style="stroke: #A80036; stroke-width: 1.5;" width="72" x="6" y="116"/><ellipse cx="21" cy="132" fill="#ADD1B2" rx="11" ry="11" style="stroke: #A80036; stroke-width: 1.0;"/><path d="M23.7656,127.875 Q23.9219,127.6563 24.1094,127.5469 Q24.2969,127.4375 24.5156,127.4375 Q24.8906,127.4375 25.125,127.7031 Q25.3594,127.9531 25.3594,128.5625 L25.3594,130.0156 Q25.3594,130.625 25.125,130.8906 Q24.8906,131.1563 24.5156,131.1563 Q24.1719,131.1563 23.9688,130.9531 Q23.7656,130.7656 23.6563,130.25 Q23.6094,129.8906 23.4219,129.7031 Q23.0938,129.3281 22.4844,129.1094 Q21.875,128.8906 21.25,128.8906 Q20.4844,128.8906 19.8438,129.2188 Q19.2188,129.5469 18.7188,130.2969 Q18.2344,131.0469 18.2344,132.0781 L18.2344,133.1719 Q18.2344,134.4063 19.125,135.2344 Q20.0156,136.0469 21.6094,136.0469 Q22.5469,136.0469 23.2031,135.7969 Q23.5938,135.6406 24.0156,135.2031 Q24.2813,134.9375 24.4219,134.8594 Q24.5781,134.7813 24.7813,134.7813 Q25.1094,134.7813 25.3594,135.0469 Q25.625,135.2969 25.625,135.6406 Q25.625,135.9844 25.2813,136.3906 Q24.7813,136.9688 23.9844,137.2969 Q22.9063,137.75 21.6094,137.75 Q20.0938,137.75 18.8906,137.125 Q17.9063,136.625 17.2188,135.5625 Q16.5313,134.4844 16.5313,133.2031 L16.5313,132.0469 Q16.5313,130.7188 17.1406,129.5781 Q17.7656,128.4219 18.8594,127.8125 Q19.9531,127.1875 21.1875,127.1875 Q21.9219,127.1875 22.5625,127.3594 Q23.2188,127.5156 23.7656,127.875 Z "/><text fill="#000000" font-family="sans-serif" font-size="12" lengthAdjust="spacingAndGlyphs" textLength="40" x="35" y="136.9102">Class2</text><line style="stroke: #A80036; stroke-width: 1.5;" x1="7" x2="77" y1="148" y2="148"/><line style="stroke: #A80036; stroke-width: 1.5;" x1="7" x2="77" y1="156" y2="156"/><!--class Class3--><rect fill="#FEFECE" filter="url(#fqv8oqlfgrkf9)" height="48" id="Class3" style="stroke: #A80036; stroke-width: 1.5;" width="72" x="113" y="8"/><ellipse cx="128" cy="24" fill="#ADD1B2" rx="11" ry="11" style="stroke: #A80036; stroke-width: 1.0;"/><path d="M130.7656,19.875 Q130.9219,19.6563 131.1094,19.5469 Q131.2969,19.4375 131.5156,19.4375 Q131.8906,19.4375 132.125,19.7031 Q132.3594,19.9531 132.3594,20.5625 L132.3594,22.0156 Q132.3594,22.625 132.125,22.8906 Q131.8906,23.1563 131.5156,23.1563 Q131.1719,23.1563 130.9688,22.9531 Q130.7656,22.7656 130.6563,22.25 Q130.6094,21.8906 130.4219,21.7031 Q130.0938,21.3281 129.4844,21.1094 Q128.875,20.8906 128.25,20.8906 Q127.4844,20.8906 126.8438,21.2188 Q126.2188,21.5469 125.7188,22.2969 Q125.2344,23.0469 125.2344,24.0781 L125.2344,25.1719 Q125.2344,26.4063 126.125,27.2344 Q127.0156,28.0469 128.6094,28.0469 Q129.5469,28.0469 130.2031,27.7969 Q130.5938,27.6406 131.0156,27.2031 Q131.2813,26.9375 131.4219,26.8594 Q131.5781,26.7813 131.7813,26.7813 Q132.1094,26.7813 132.3594,27.0469 Q132.625,27.2969 132.625,27.6406 Q132.625,27.9844 132.2813,28.3906 Q131.7813,28.9688 130.9844,29.2969 Q129.9063,29.75 128.6094,29.75 Q127.0938,29.75 125.8906,29.125 Q124.9063,28.625 124.2188,27.5625 Q123.5313,26.4844 123.5313,25.2031 L123.5313,24.0469 Q123.5313,22.7188 124.1406,21.5781 Q124.7656,20.4219 125.8594,19.8125 Q126.9531,19.1875 128.1875,19.1875 Q128.9219,19.1875 129.5625,19.3594 Q130.2188,19.5156 130.7656,19.875 Z "/><text fill="#000000" font-family="sans-serif" font-size="12" lengthAdjust="spacingAndGlyphs" textLength="40" x="142" y="28.9102">Class3</text><line style="stroke: #A80036; stroke-width: 1.5;" x1="114" x2="184" y1="40" y2="40"/><line style="stroke: #A80036; stroke-width: 1.5;" x1="114" x2="184" y1="48" y2="48"/><!--class Class4--><rect fill="#FEFECE" filter="url(#fqv8oqlfgrkf9)" height="48" id="Class4" style="stroke: #A80036; stroke-width: 1.5;" width="72" x="113" y="116"/><ellipse cx="128" cy="132" fill="#ADD1B2" rx="11" ry="11" style="stroke: #A80036; stroke-width: 1.0;"/><path d="M130.7656,127.875 Q130.9219,127.6563 131.1094,127.5469 Q131.2969,127.4375 131.5156,127.4375 Q131.8906,127.4375 132.125,127.7031 Q132.3594,127.9531 132.3594,128.5625 L132.3594,130.0156 Q132.3594,130.625 132.125,130.8906 Q131.8906,131.1563 131.5156,131.1563 Q131.1719,131.1563 130.9688,130.9531 Q130.7656,130.7656 130.6563,130.25 Q130.6094,129.8906 130.4219,129.7031 Q130.0938,129.3281 129.4844,129.1094 Q128.875,128.8906 128.25,128.8906 Q127.4844,128.8906 126.8438,129.2188 Q126.2188,129.5469 125.7188,130.2969 Q125.2344,131.0469 125.2344,132.0781 L125.2344,133.1719 Q125.2344,134.4063 126.125,135.2344 Q127.0156,136.0469 128.6094,136.0469 Q129.5469,136.0469 130.2031,135.7969 Q130.5938,135.6406 131.0156,135.2031 Q131.2813,134.9375 131.4219,134.8594 Q131.5781,134.7813 131.7813,134.7813 Q132.1094,134.7813 132.3594,135.0469 Q132.625,135.2969 132.625,135.6406 Q132.625,135.9844 132.2813,136.3906 Q131.7813,136.9688 130.9844,137.2969 Q129.9063,137.75 128.6094,137.75 Q127.0938,137.75 125.8906,137.125 Q124.9063,136.625 124.2188,135.5625 Q123.5313,134.4844 123.5313,133.2031 L123.5313,132.0469 Q123.5313,130.7188 124.1406,129.5781 Q124.7656,128.4219 125.8594,127.8125 Q126.9531,127.1875 128.1875,127.1875 Q128.9219,127.1875 129.5625,127.3594 Q130.2188,127.5156 130.7656,127.875 Z "/><text fill="#000000" font-family="sans-serif" font-size="12" lengthAdjust="spacingAndGlyphs" textLength="40" x="142" y="136.9102">Class4</text><line style="stroke: #A80036; stroke-width: 1.5;" x1="114" x2="184" y1="148" y2="148"/><line style="stroke: #A80036; stroke-width: 1.5;" x1="114" x2="184" y1="156" y2="156"/><!--class Class5--><rect fill="#FEFECE" filter="url(#fqv8oqlfgrkf9)" height="48" id="Class5" style="stroke: #A80036; stroke-width: 1.5;" width="72" x="220" y="8"/><ellipse cx="235" cy="24" fill="#ADD1B2" rx="11" ry="11" style="stroke: #A80036; stroke-width: 1.0;"/><path d="M237.7656,19.875 Q237.9219,19.6563 238.1094,19.5469 Q238.2969,19.4375 238.5156,19.4375 Q238.8906,19.4375 239.125,19.7031 Q239.3594,19.9531 239.3594,20.5625 L239.3594,22.0156 Q239.3594,22.625 239.125,22.8906 Q238.8906,23.1563 238.5156,23.1563 Q238.1719,23.1563 237.9688,22.9531 Q237.7656,22.7656 237.6563,22.25 Q237.6094,21.8906 237.4219,21.7031 Q237.0938,21.3281 236.4844,21.1094 Q235.875,20.8906 235.25,20.8906 Q234.4844,20.8906 233.8438,21.2188 Q233.2188,21.5469 232.7188,22.2969 Q232.2344,23.0469 232.2344,24.0781 L232.2344,25.1719 Q232.2344,26.4063 233.125,27.2344 Q234.0156,28.0469 235.6094,28.0469 Q236.5469,28.0469 237.2031,27.7969 Q237.5938,27.6406 238.0156,27.2031 Q238.2813,26.9375 238.4219,26.8594 Q238.5781,26.7813 238.7813,26.7813 Q239.1094,26.7813 239.3594,27.0469 Q239.625,27.2969 239.625,27.6406 Q239.625,27.9844 239.2813,28.3906 Q238.7813,28.9688 237.9844,29.2969 Q236.9063,29.75 235.6094,29.75 Q234.0938,29.75 232.8906,29.125 Q231.9063,28.625 231.2188,27.5625 Q230.5313,26.4844 230.5313,25.2031 L230.5313,24.0469 Q230.5313,22.7188 231.1406,21.5781 Q231.7656,20.4219 232.8594,19.8125 Q233.9531,19.1875 235.1875,19.1875 Q235.9219,19.1875 236.5625,19.3594 Q237.2188,19.5156 237.7656,19.875 Z "/><text fill="#000000" font-family="sans-serif" font-size="12" lengthAdjust="spacingAndGlyphs" textLength="40" x="249" y="28.9102">Class5</text><line style="stroke: #A80036; stroke-width: 1.5;" x1="221" x2="291" y1="40" y2="40"/><line style="stroke: #A80036; stroke-width: 1.5;" x1="221" x2="291" y1="48" y2="48"/><!--class Class6--><rect fill="#FEFECE" filter="url(#fqv8oqlfgrkf9)" height="48" id="Class6" style="stroke: #A80036; stroke-width: 1.5;" width="72" x="220" y="116"/><ellipse cx="235" cy="132" fill="#ADD1B2" rx="11" ry="11" style="stroke: #A80036; stroke-width: 1.0;"/><path d="M237.7656,127.875 Q237.9219,127.6563 238.1094,127.5469 Q238.2969,127.4375 238.5156,127.4375 Q238.8906,127.4375 239.125,127.7031 Q239.3594,127.9531 239.3594,128.5625 L239.3594,130.0156 Q239.3594,130.625 239.125,130.8906 Q238.8906,131.1563 238.5156,131.1563 Q238.1719,131.1563 237.9688,130.9531 Q237.7656,130.7656 237.6563,130.25 Q237.6094,129.8906 237.4219,129.7031 Q237.0938,129.3281 236.4844,129.1094 Q235.875,128.8906 235.25,128.8906 Q234.4844,128.8906 233.8438,129.2188 Q233.2188,129.5469 232.7188,130.2969 Q232.2344,131.0469 232.2344,132.0781 L232.2344,133.1719 Q232.2344,134.4063 233.125,135.2344 Q234.0156,136.0469 235.6094,136.0469 Q236.5469,136.0469 237.2031,135.7969 Q237.5938,135.6406 238.0156,135.2031 Q238.2813,134.9375 238.4219,134.8594 Q238.5781,134.7813 238.7813,134.7813 Q239.1094,134.7813 239.3594,135.0469 Q239.625,135.2969 239.625,135.6406 Q239.625,135.9844 239.2813,136.3906 Q238.7813,136.9688 237.9844,137.2969 Q236.9063,137.75 235.6094,137.75 Q234.0938,137.75 232.8906,137.125 Q231.9063,136.625 231.2188,135.5625 Q230.5313,134.4844 230.5313,133.2031 L230.5313,132.0469 Q230.5313,130.7188 231.1406,129.5781 Q231.7656,128.4219 232.8594,127.8125 Q233.9531,127.1875 235.1875,127.1875 Q235.9219,127.1875 236.5625,127.3594 Q237.2188,127.5156 237.7656,127.875 Z "/><text fill="#000000" font-family="sans-serif" font-size="12" lengthAdjust="spacingAndGlyphs" textLength="40" x="249" y="136.9102">Class6</text><line style="stroke: #A80036; stroke-width: 1.5;" x1="221" x2="291" y1="148" y2="148"/><line style="stroke: #A80036; stroke-width: 1.5;" x1="221" x2="291" y1="156" y2="156"/><!--class Class7--><rect fill="#FEFECE" filter="url(#fqv8oqlfgrkf9)" height="48" id="Class7" style="stroke: #A80036; stroke-width: 1.5;" width="72" x="327" y="8"/><ellipse cx="342" cy="24" fill="#ADD1B2" rx="11" ry="11" style="stroke: #A80036; stroke-width: 1.0;"/><path d="M344.7656,19.875 Q344.9219,19.6563 345.1094,19.5469 Q345.2969,19.4375 345.5156,19.4375 Q345.8906,19.4375 346.125,19.7031 Q346.3594,19.9531 346.3594,20.5625 L346.3594,22.0156 Q346.3594,22.625 346.125,22.8906 Q345.8906,23.1563 345.5156,23.1563 Q345.1719,23.1563 344.9688,22.9531 Q344.7656,22.7656 344.6563,22.25 Q344.6094,21.8906 344.4219,21.7031 Q344.0938,21.3281 343.4844,21.1094 Q342.875,20.8906 342.25,20.8906 Q341.4844,20.8906 340.8438,21.2188 Q340.2188,21.5469 339.7188,22.2969 Q339.2344,23.0469 339.2344,24.0781 L339.2344,25.1719 Q339.2344,26.4063 340.125,27.2344 Q341.0156,28.0469 342.6094,28.0469 Q343.5469,28.0469 344.2031,27.7969 Q344.5938,27.6406 345.0156,27.2031 Q345.2813,26.9375 345.4219,26.8594 Q345.5781,26.7813 345.7813,26.7813 Q346.1094,26.7813 346.3594,27.0469 Q346.625,27.2969 346.625,27.6406 Q346.625,27.9844 346.2813,28.3906 Q345.7813,28.9688 344.9844,29.2969 Q343.9063,29.75 342.6094,29.75 Q341.0938,29.75 339.8906,29.125 Q338.9063,28.625 338.2188,27.5625 Q337.5313,26.4844 337.5313,25.2031 L337.5313,24.0469 Q337.5313,22.7188 338.1406,21.5781 Q338.7656,20.4219 339.8594,19.8125 Q340.9531,19.1875 342.1875,19.1875 Q342.9219,19.1875 343.5625,19.3594 Q344.2188,19.5156 344.7656,19.875 Z "/><text fill="#000000" font-family="sans-serif" font-size="12" lengthAdjust="spacingAndGlyphs" textLength="40" x="356" y="28.9102">Class7</text><line style="stroke: #A80036; stroke-width: 1.5;" x1="328" x2="398" y1="40" y2="40"/><line style="stroke: #A80036; stroke-width: 1.5;" x1="328" x2="398" y1="48" y2="48"/><!--class Class8--><rect fill="#FEFECE" filter="url(#fqv8oqlfgrkf9)" height="48" id="Class8" style="stroke: #A80036; stroke-width: 1.5;" width="72" x="327" y="116"/><ellipse cx="342" cy="132" fill="#ADD1B2" rx="11" ry="11" style="stroke: #A80036; stroke-width: 1.0;"/><path d="M344.7656,127.875 Q344.9219,127.6563 345.1094,127.5469 Q345.2969,127.4375 345.5156,127.4375 Q345.8906,127.4375 346.125,127.7031 Q346.3594,127.9531 346.3594,128.5625 L346.3594,130.0156 Q346.3594,130.625 346.125,130.8906 Q345.8906,131.1563 345.5156,131.1563 Q345.1719,131.1563 344.9688,130.9531 Q344.7656,130.7656 344.6563,130.25 Q344.6094,129.8906 344.4219,129.7031 Q344.0938,129.3281 343.4844,129.1094 Q342.875,128.8906 342.25,128.8906 Q341.4844,128.8906 340.8438,129.2188 Q340.2188,129.5469 339.7188,130.2969 Q339.2344,131.0469 339.2344,132.0781 L339.2344,133.1719 Q339.2344,134.4063 340.125,135.2344 Q341.0156,136.0469 342.6094,136.0469 Q343.5469,136.0469 344.2031,135.7969 Q344.5938,135.6406 345.0156,135.2031 Q345.2813,134.9375 345.4219,134.8594 Q345.5781,134.7813 345.7813,134.7813 Q346.1094,134.7813 346.3594,135.0469 Q346.625,135.2969 346.625,135.6406 Q346.625,135.9844 346.2813,136.3906 Q345.7813,136.9688 344.9844,137.2969 Q343.9063,137.75 342.6094,137.75 Q341.0938,137.75 339.8906,137.125 Q338.9063,136.625 338.2188,135.5625 Q337.5313,134.4844 337.5313,133.2031 L337.5313,132.0469 Q337.5313,130.7188 338.1406,129.5781 Q338.7656,128.4219 339.8594,127.8125 Q340.9531,127.1875 342.1875,127.1875 Q342.9219,127.1875 343.5625,127.3594 Q344.2188,127.5156 344.7656,127.875 Z "/><text fill="#000000" font-family="sans-serif" font-size="12" lengthAdjust="spacingAndGlyphs" textLength="40" x="356" y="136.9102">Class8</text><line style="stroke: #A80036; stroke-width: 1.5;" x1="328" x2="398" y1="148" y2="148"/><line style="stroke: #A80036; stroke-width: 1.5;" x1="328" x2="398" y1="156" y2="156"/><!--link Clas1 to Class2--><path d="M42,56 C42,73.6584 42,97.9408 42,115.6784 " fill="none" id="Clas1-Class2" style="stroke: #A80036; stroke-width: 1.0;"/><!--reverse link Class3 to Class4--><path d="M149,61.131 C149,78.1538 149,99.6037 149,115.6784 " fill="none" id="Class3&lt;-Class4" style="stroke: #A80036; stroke-width: 1.0;"/><polygon fill="#A80036" points="149,56,145,65,149,61,153,65,149,56" style="stroke: #A80036; stroke-width: 1.0;"/><!--link Class5 to Class6--><path d="M256,56 C256,72.003 256,93.4461 256,110.528 " fill="none" id="Class5-&gt;Class6" style="stroke: #A80036; stroke-width: 1.0;"/><polygon fill="#A80036" points="256,115.6784,260,106.6784,256,110.6784,252,106.6784,256,115.6784" style="stroke: #A80036; stroke-width: 1.0;"/><!--link Class7 to Class8--><path d="M363,61.131 C363,76.4249 363,95.2923 363,110.6246 " fill="none" id="Class7-Class8" style="stroke: #A80036; stroke-width: 1.0;"/><polygon fill="#A80036" points="363,115.6784,367,106.6784,363,110.6784,359,106.6784,363,115.6784" style="stroke: #A80036; stroke-width: 1.0;"/><polygon fill="#A80036" points="363,56,359,65,363,61,367,65,363,56" style="stroke: #A80036; stroke-width: 1.0;"/><!--
@startuml asosiasi
Clas1 - - Class2
Class3 <- - Class4
Class5 - -> Class6
Class7 <- -> Class8
@enduml

PlantUML version 1.2019.09(Mon Aug 26 23:19:51 ICT 2019)
(GPL source distribution)
Java Runtime: Java(TM) SE Runtime Environment
JVM: Java HotSpot(TM) 64-Bit Server VM
Java Version: 11.0.6+8-LTS
Operating System: Windows 10
OS Version: 10.0
Default Encoding: Cp1252
Language: en
Country: US
--></g></svg>