<?xml version="1.0" encoding="UTF-8" standalone="no"?><svg xmlns="http://www.w3.org/2000/svg" xmlns:xlink="http://www.w3.org/1999/xlink" contentScriptType="application/ecmascript" contentStyleType="text/css" height="531px" preserveAspectRatio="none" style="width:420px;height:531px;" version="1.1" viewBox="0 0 420 531" width="420px" zoomAndPan="magnify"><defs><filter height="300%" id="f1ul70womgammc" width="300%" x="-1" y="-1"><feGaussianBlur result="blurOut" stdDeviation="2.0"/><feColorMatrix in="blurOut" result="blurOut2" type="matrix" values="0 0 0 0 0 0 0 0 0 0 0 0 0 0 0 0 0 0 .4 0"/><feOffset dx="4.0" dy="4.0" in="blurOut2" result="blurOut3"/><feBlend in="SourceGraphic" in2="blurOut3" mode="normal"/></filter></defs><g><!--class PenggunaHP--><rect fill="#FEFECE" filter="url(#f1ul70womgammc)" height="117.1797" id="PenggunaHP" style="stroke: #A80036; stroke-width: 1.5;" width="141" x="137" y="8"/><ellipse cx="167.75" cy="24" fill="#ADD1B2" rx="11" ry="11" style="stroke: #A80036; stroke-width: 1.0;"/><path d="M170.5156,19.875 Q170.6719,19.6563 170.8594,19.5469 Q171.0469,19.4375 171.2656,19.4375 Q171.6406,19.4375 171.875,19.7031 Q172.1094,19.9531 172.1094,20.5625 L172.1094,22.0156 Q172.1094,22.625 171.875,22.8906 Q171.6406,23.1563 171.2656,23.1563 Q170.9219,23.1563 170.7188,22.9531 Q170.5156,22.7656 170.4063,22.25 Q170.3594,21.8906 170.1719,21.7031 Q169.8438,21.3281 169.2344,21.1094 Q168.625,20.8906 168,20.8906 Q167.2344,20.8906 166.5938,21.2188 Q165.9688,21.5469 165.4688,22.2969 Q164.9844,23.0469 164.9844,24.0781 L164.9844,25.1719 Q164.9844,26.4063 165.875,27.2344 Q166.7656,28.0469 168.3594,28.0469 Q169.2969,28.0469 169.9531,27.7969 Q170.3438,27.6406 170.7656,27.2031 Q171.0313,26.9375 171.1719,26.8594 Q171.3281,26.7813 171.5313,26.7813 Q171.8594,26.7813 172.1094,27.0469 Q172.375,27.2969 172.375,27.6406 Q172.375,27.9844 172.0313,28.3906 Q171.5313,28.9688 170.7344,29.2969 Q169.6563,29.75 168.3594,29.75 Q166.8438,29.75 165.6406,29.125 Q164.6563,28.625 163.9688,27.5625 Q163.2813,26.4844 163.2813,25.2031 L163.2813,24.0469 Q163.2813,22.7188 163.8906,21.5781 Q164.5156,20.4219 165.6094,19.8125 Q166.7031,19.1875 167.9375,19.1875 Q168.6719,19.1875 169.3125,19.3594 Q169.9688,19.5156 170.5156,19.875 Z "/><text fill="#000000" font-family="sans-serif" font-size="12" lengthAdjust="spacingAndGlyphs" textLength="74" x="185.25" y="28.9102">PenggunaHP</text><line style="stroke: #A80036; stroke-width: 1.5;" x1="138" x2="277" y1="40" y2="40"/><rect fill="none" height="6" style="stroke: #C82930; stroke-width: 1.0;" width="6" x="145" y="48"/><text fill="#000000" font-family="sans-serif" font-size="11" lengthAdjust="spacingAndGlyphs" textLength="115" x="157" y="55.4189">handphone: Handphone</text><line style="stroke: #A80036; stroke-width: 1.5;" x1="138" x2="277" y1="61.8359" y2="61.8359"/><ellipse cx="148" cy="72.8359" fill="#84BE84" rx="3" ry="3" style="stroke: #038048; stroke-width: 1.0;"/><text fill="#000000" font-family="sans-serif" font-size="11" lengthAdjust="spacingAndGlyphs" textLength="64" x="157" y="77.2549">nyalakanHP()</text><ellipse cx="148" cy="86.6719" fill="#84BE84" rx="3" ry="3" style="stroke: #038048; stroke-width: 1.0;"/><text fill="#000000" font-family="sans-serif" font-size="11" lengthAdjust="spacingAndGlyphs" textLength="57" x="157" y="91.0908">matikanHP()</text><ellipse cx="148" cy="100.5078" fill="#84BE84" rx="3" ry="3" style="stroke: #038048; stroke-width: 1.0;"/><text fill="#000000" font-family="sans-serif" font-size="11" lengthAdjust="spacingAndGlyphs" textLength="95" x="157" y="104.9268">besarkanSuaraHP()</text><ellipse cx="148" cy="114.3438" fill="#84BE84" rx="3" ry="3" style="stroke: #038048; stroke-width: 1.0;"/><text fill="#000000" font-family="sans-serif" font-size="11" lengthAdjust="spacingAndGlyphs" textLength="88" x="157" y="118.7627">kecilkanSuaraHP()</text><!--class Handphone--><rect fill="#FEFECE" filter="url(#f1ul70womgammc)" height="131.0156" id="Handphone" style="stroke: #A80036; stroke-width: 1.5;" width="108" x="153.5" y="185"/><ellipse cx="173.45" cy="201" fill="#B4A7E5" rx="11" ry="11" style="stroke: #A80036; stroke-width: 1.0;"/><path d="M174.4031,197.6406 L174.4031,204.2969 L176.1219,204.2969 Q176.7313,204.2969 176.9969,204.5313 Q177.2625,204.7656 177.2625,205.1563 Q177.2625,205.5313 176.9969,205.7656 Q176.7313,206 176.1219,206 L170.9813,206 Q170.3719,206 170.1063,205.7656 Q169.8406,205.5313 169.8406,205.1406 Q169.8406,204.7656 170.1063,204.5313 Q170.3719,204.2969 170.9813,204.2969 L172.7,204.2969 L172.7,197.6406 L170.9813,197.6406 Q170.3719,197.6406 170.1063,197.4063 Q169.8406,197.1719 169.8406,196.7813 Q169.8406,196.4063 170.1063,196.1719 Q170.3719,195.9375 170.9813,195.9375 L176.1219,195.9375 Q176.7313,195.9375 176.9969,196.1719 Q177.2625,196.4063 177.2625,196.7813 Q177.2625,197.1719 176.9969,197.4063 Q176.7313,197.6406 176.1219,197.6406 L174.4031,197.6406 Z "/><text fill="#000000" font-family="sans-serif" font-size="12" font-style="italic" lengthAdjust="spacingAndGlyphs" textLength="65" x="188.55" y="205.9102">Handphone</text><line style="stroke: #A80036; stroke-width: 1.5;" x1="154.5" x2="260.5" y1="217" y2="217"/><text fill="#000000" font-family="sans-serif" font-size="11" lengthAdjust="spacingAndGlyphs" textLength="40" x="159.5" y="232.4189">MAX: int</text><text fill="#000000" font-family="sans-serif" font-size="11" lengthAdjust="spacingAndGlyphs" textLength="34" x="159.5" y="246.2549">MIN: int</text><line style="stroke: #A80036; stroke-width: 1.5;" x1="154.5" x2="260.5" y1="252.6719" y2="252.6719"/><ellipse cx="164.5" cy="263.6719" fill="#84BE84" rx="3" ry="3" style="stroke: #038048; stroke-width: 1.0;"/><text fill="#000000" font-family="sans-serif" font-size="11" lengthAdjust="spacingAndGlyphs" textLength="51" x="173.5" y="268.0908">nyalakan()</text><ellipse cx="164.5" cy="277.5078" fill="#84BE84" rx="3" ry="3" style="stroke: #038048; stroke-width: 1.0;"/><text fill="#000000" font-family="sans-serif" font-size="11" lengthAdjust="spacingAndGlyphs" textLength="44" x="173.5" y="281.9268">matikan()</text><ellipse cx="164.5" cy="291.3438" fill="#84BE84" rx="3" ry="3" style="stroke: #038048; stroke-width: 1.0;"/><text fill="#000000" font-family="sans-serif" font-size="11" lengthAdjust="spacingAndGlyphs" textLength="82" x="173.5" y="295.7627">besarkanSuara()</text><ellipse cx="164.5" cy="305.1797" fill="#84BE84" rx="3" ry="3" style="stroke: #038048; stroke-width: 1.0;"/><text fill="#000000" font-family="sans-serif" font-size="11" lengthAdjust="spacingAndGlyphs" textLength="75" x="173.5" y="309.5986">kecilkanSuara()</text><!--class Xiaomi--><rect fill="#FEFECE" filter="url(#f1ul70womgammc)" height="144.8516" id="Xiaomi" style="stroke: #A80036; stroke-width: 1.5;" width="111" x="6" y="376"/><ellipse cx="39.45" cy="392" fill="#ADD1B2" rx="11" ry="11" style="stroke: #A80036; stroke-width: 1.0;"/><path d="M42.2156,387.875 Q42.3719,387.6563 42.5594,387.5469 Q42.7469,387.4375 42.9656,387.4375 Q43.3406,387.4375 43.575,387.7031 Q43.8094,387.9531 43.8094,388.5625 L43.8094,390.0156 Q43.8094,390.625 43.575,390.8906 Q43.3406,391.1563 42.9656,391.1563 Q42.6219,391.1563 42.4188,390.9531 Q42.2156,390.7656 42.1063,390.25 Q42.0594,389.8906 41.8719,389.7031 Q41.5438,389.3281 40.9344,389.1094 Q40.325,388.8906 39.7,388.8906 Q38.9344,388.8906 38.2938,389.2188 Q37.6688,389.5469 37.1688,390.2969 Q36.6844,391.0469 36.6844,392.0781 L36.6844,393.1719 Q36.6844,394.4063 37.575,395.2344 Q38.4656,396.0469 40.0594,396.0469 Q40.9969,396.0469 41.6531,395.7969 Q42.0438,395.6406 42.4656,395.2031 Q42.7313,394.9375 42.8719,394.8594 Q43.0281,394.7813 43.2313,394.7813 Q43.5594,394.7813 43.8094,395.0469 Q44.075,395.2969 44.075,395.6406 Q44.075,395.9844 43.7313,396.3906 Q43.2313,396.9688 42.4344,397.2969 Q41.3563,397.75 40.0594,397.75 Q38.5438,397.75 37.3406,397.125 Q36.3563,396.625 35.6688,395.5625 Q34.9813,394.4844 34.9813,393.2031 L34.9813,392.0469 Q34.9813,390.7188 35.5906,389.5781 Q36.2156,388.4219 37.3094,387.8125 Q38.4031,387.1875 39.6375,387.1875 Q40.3719,387.1875 41.0125,387.3594 Q41.6688,387.5156 42.2156,387.875 Z "/><text fill="#000000" font-family="sans-serif" font-size="12" lengthAdjust="spacingAndGlyphs" textLength="38" x="57.55" y="396.9102">Xiaomi</text><line style="stroke: #A80036; stroke-width: 1.5;" x1="7" x2="116" y1="408" y2="408"/><rect fill="none" height="6" style="stroke: #C82930; stroke-width: 1.0;" width="6" x="14" y="416"/><text fill="#000000" font-family="sans-serif" font-size="11" lengthAdjust="spacingAndGlyphs" textLength="51" x="26" y="423.4189">volume: int</text><rect fill="none" height="6" style="stroke: #C82930; stroke-width: 1.0;" width="6" x="14" y="429.8359"/><text fill="#000000" font-family="sans-serif" font-size="11" lengthAdjust="spacingAndGlyphs" textLength="85" x="26" y="437.2549">menyala: Boolean</text><line style="stroke: #A80036; stroke-width: 1.5;" x1="7" x2="116" y1="443.6719" y2="443.6719"/><ellipse cx="17" cy="454.6719" fill="#84BE84" rx="3" ry="3" style="stroke: #038048; stroke-width: 1.0;"/><text fill="#000000" font-family="sans-serif" font-size="11" lengthAdjust="spacingAndGlyphs" textLength="51" x="26" y="459.0908">nyalakan()</text><ellipse cx="17" cy="468.5078" fill="#84BE84" rx="3" ry="3" style="stroke: #038048; stroke-width: 1.0;"/><text fill="#000000" font-family="sans-serif" font-size="11" lengthAdjust="spacingAndGlyphs" textLength="44" x="26" y="472.9268">matikan()</text><ellipse cx="17" cy="482.3438" fill="#84BE84" rx="3" ry="3" style="stroke: #038048; stroke-width: 1.0;"/><text fill="#000000" font-family="sans-serif" font-size="11" lengthAdjust="spacingAndGlyphs" textLength="82" x="26" y="486.7627">besarkanSuara()</text><ellipse cx="17" cy="496.1797" fill="#84BE84" rx="3" ry="3" style="stroke: #038048; stroke-width: 1.0;"/><text fill="#000000" font-family="sans-serif" font-size="11" lengthAdjust="spacingAndGlyphs" textLength="75" x="26" y="500.5986">kecilkanSuara()</text><ellipse cx="17" cy="510.0156" fill="#84BE84" rx="3" ry="3" style="stroke: #038048; stroke-width: 1.0;"/><text fill="#000000" font-family="sans-serif" font-size="11" lengthAdjust="spacingAndGlyphs" textLength="59" x="26" y="514.4346">getVolume()</text><!--class Vivo--><rect fill="#FEFECE" filter="url(#f1ul70womgammc)" height="144.8516" id="Vivo" style="stroke: #A80036; stroke-width: 1.5;" width="111" x="152" y="376"/><ellipse cx="192.65" cy="392" fill="#ADD1B2" rx="11" ry="11" style="stroke: #A80036; stroke-width: 1.0;"/><path d="M195.4156,387.875 Q195.5719,387.6563 195.7594,387.5469 Q195.9469,387.4375 196.1656,387.4375 Q196.5406,387.4375 196.775,387.7031 Q197.0094,387.9531 197.0094,388.5625 L197.0094,390.0156 Q197.0094,390.625 196.775,390.8906 Q196.5406,391.1563 196.1656,391.1563 Q195.8219,391.1563 195.6188,390.9531 Q195.4156,390.7656 195.3063,390.25 Q195.2594,389.8906 195.0719,389.7031 Q194.7438,389.3281 194.1344,389.1094 Q193.525,388.8906 192.9,388.8906 Q192.1344,388.8906 191.4938,389.2188 Q190.8688,389.5469 190.3688,390.2969 Q189.8844,391.0469 189.8844,392.0781 L189.8844,393.1719 Q189.8844,394.4063 190.775,395.2344 Q191.6656,396.0469 193.2594,396.0469 Q194.1969,396.0469 194.8531,395.7969 Q195.2438,395.6406 195.6656,395.2031 Q195.9313,394.9375 196.0719,394.8594 Q196.2281,394.7813 196.4313,394.7813 Q196.7594,394.7813 197.0094,395.0469 Q197.275,395.2969 197.275,395.6406 Q197.275,395.9844 196.9313,396.3906 Q196.4313,396.9688 195.6344,397.2969 Q194.5563,397.75 193.2594,397.75 Q191.7438,397.75 190.5406,397.125 Q189.5563,396.625 188.8688,395.5625 Q188.1813,394.4844 188.1813,393.2031 L188.1813,392.0469 Q188.1813,390.7188 188.7906,389.5781 Q189.4156,388.4219 190.5094,387.8125 Q191.6031,387.1875 192.8375,387.1875 Q193.5719,387.1875 194.2125,387.3594 Q194.8688,387.5156 195.4156,387.875 Z "/><text fill="#000000" font-family="sans-serif" font-size="12" lengthAdjust="spacingAndGlyphs" textLength="22" x="212.35" y="396.9102">Vivo</text><line style="stroke: #A80036; stroke-width: 1.5;" x1="153" x2="262" y1="408" y2="408"/><rect fill="none" height="6" style="stroke: #C82930; stroke-width: 1.0;" width="6" x="160" y="416"/><text fill="#000000" font-family="sans-serif" font-size="11" lengthAdjust="spacingAndGlyphs" textLength="51" x="172" y="423.4189">volume: int</text><rect fill="none" height="6" style="stroke: #C82930; stroke-width: 1.0;" width="6" x="160" y="429.8359"/><text fill="#000000" font-family="sans-serif" font-size="11" lengthAdjust="spacingAndGlyphs" textLength="85" x="172" y="437.2549">menyala: Boolean</text><line style="stroke: #A80036; stroke-width: 1.5;" x1="153" x2="262" y1="443.6719" y2="443.6719"/><ellipse cx="163" cy="454.6719" fill="#84BE84" rx="3" ry="3" style="stroke: #038048; stroke-width: 1.0;"/><text fill="#000000" font-family="sans-serif" font-size="11" lengthAdjust="spacingAndGlyphs" textLength="51" x="172" y="459.0908">nyalakan()</text><ellipse cx="163" cy="468.5078" fill="#84BE84" rx="3" ry="3" style="stroke: #038048; stroke-width: 1.0;"/><text fill="#000000" font-family="sans-serif" font-size="11" lengthAdjust="spacingAndGlyphs" textLength="44" x="172" y="472.9268">matikan()</text><ellipse cx="163" cy="482.3438" fill="#84BE84" rx="3" ry="3" style="stroke: #038048; stroke-width: 1.0;"/><text fill="#000000" font-family="sans-serif" font-size="11" lengthAdjust="spacingAndGlyphs" textLength="82" x="172" y="486.7627">besarkanSuara()</text><ellipse cx="163" cy="496.1797" fill="#84BE84" rx="3" ry="3" style="stroke: #038048; stroke-width: 1.0;"/><text fill="#000000" font-family="sans-serif" font-size="11" lengthAdjust="spacingAndGlyphs" textLength="75" x="172" y="500.5986">kecilkanSuara()</text><ellipse cx="163" cy="510.0156" fill="#84BE84" rx="3" ry="3" style="stroke: #038048; stroke-width: 1.0;"/><text fill="#000000" font-family="sans-serif" font-size="11" lengthAdjust="spacingAndGlyphs" textLength="59" x="172" y="514.4346">getVolume()</text><!--class Samsung--><rect fill="#FEFECE" filter="url(#f1ul70womgammc)" height="144.8516" id="Samsung" style="stroke: #A80036; stroke-width: 1.5;" width="111" x="298" y="376"/><ellipse cx="324.25" cy="392" fill="#ADD1B2" rx="11" ry="11" style="stroke: #A80036; stroke-width: 1.0;"/><path d="M327.0156,387.875 Q327.1719,387.6563 327.3594,387.5469 Q327.5469,387.4375 327.7656,387.4375 Q328.1406,387.4375 328.375,387.7031 Q328.6094,387.9531 328.6094,388.5625 L328.6094,390.0156 Q328.6094,390.625 328.375,390.8906 Q328.1406,391.1563 327.7656,391.1563 Q327.4219,391.1563 327.2188,390.9531 Q327.0156,390.7656 326.9063,390.25 Q326.8594,389.8906 326.6719,389.7031 Q326.3438,389.3281 325.7344,389.1094 Q325.125,388.8906 324.5,388.8906 Q323.7344,388.8906 323.0938,389.2188 Q322.4688,389.5469 321.9688,390.2969 Q321.4844,391.0469 321.4844,392.0781 L321.4844,393.1719 Q321.4844,394.4063 322.375,395.2344 Q323.2656,396.0469 324.8594,396.0469 Q325.7969,396.0469 326.4531,395.7969 Q326.8438,395.6406 327.2656,395.2031 Q327.5313,394.9375 327.6719,394.8594 Q327.8281,394.7813 328.0313,394.7813 Q328.3594,394.7813 328.6094,395.0469 Q328.875,395.2969 328.875,395.6406 Q328.875,395.9844 328.5313,396.3906 Q328.0313,396.9688 327.2344,397.2969 Q326.1563,397.75 324.8594,397.75 Q323.3438,397.75 322.1406,397.125 Q321.1563,396.625 320.4688,395.5625 Q319.7813,394.4844 319.7813,393.2031 L319.7813,392.0469 Q319.7813,390.7188 320.3906,389.5781 Q321.0156,388.4219 322.1094,387.8125 Q323.2031,387.1875 324.4375,387.1875 Q325.1719,387.1875 325.8125,387.3594 Q326.4688,387.5156 327.0156,387.875 Z "/><text fill="#000000" font-family="sans-serif" font-size="12" lengthAdjust="spacingAndGlyphs" textLength="54" x="340.75" y="396.9102">Samsung</text><line style="stroke: #A80036; stroke-width: 1.5;" x1="299" x2="408" y1="408" y2="408"/><rect fill="none" height="6" style="stroke: #C82930; stroke-width: 1.0;" width="6" x="306" y="416"/><text fill="#000000" font-family="sans-serif" font-size="11" lengthAdjust="spacingAndGlyphs" textLength="51" x="318" y="423.4189">volume: int</text><rect fill="none" height="6" style="stroke: #C82930; stroke-width: 1.0;" width="6" x="306" y="429.8359"/><text fill="#000000" font-family="sans-serif" font-size="11" lengthAdjust="spacingAndGlyphs" textLength="85" x="318" y="437.2549">menyala: Boolean</text><line style="stroke: #A80036; stroke-width: 1.5;" x1="299" x2="408" y1="443.6719" y2="443.6719"/><ellipse cx="309" cy="454.6719" fill="#84BE84" rx="3" ry="3" style="stroke: #038048; stroke-width: 1.0;"/><text fill="#000000" font-family="sans-serif" font-size="11" lengthAdjust="spacingAndGlyphs" textLength="51" x="318" y="459.0908">nyalakan()</text><ellipse cx="309" cy="468.5078" fill="#84BE84" rx="3" ry="3" style="stroke: #038048; stroke-width: 1.0;"/><text fill="#000000" font-family="sans-serif" font-size="11" lengthAdjust="spacingAndGlyphs" textLength="44" x="318" y="472.9268">matikan()</text><ellipse cx="309" cy="482.3438" fill="#84BE84" rx="3" ry="3" style="stroke: #038048; stroke-width: 1.0;"/><text fill="#000000" font-family="sans-serif" font-size="11" lengthAdjust="spacingAndGlyphs" textLength="82" x="318" y="486.7627">besarkanSuara()</text><ellipse cx="309" cy="496.1797" fill="#84BE84" rx="3" ry="3" style="stroke: #038048; stroke-width: 1.0;"/><text fill="#000000" font-family="sans-serif" font-size="11" lengthAdjust="spacingAndGlyphs" textLength="75" x="318" y="500.5986">kecilkanSuara()</text><ellipse cx="309" cy="510.0156" fill="#84BE84" rx="3" ry="3" style="stroke: #038048; stroke-width: 1.0;"/><text fill="#000000" font-family="sans-serif" font-size="11" lengthAdjust="spacingAndGlyphs" textLength="59" x="318" y="514.4346">getVolume()</text><!--link PenggunaHP to Handphone--><path d="M207.5,125.086 C207.5,142.411 207.5,161.612 207.5,179.641 " fill="none" id="PenggunaHP-&gt;Handphone" style="stroke: #A80036; stroke-width: 1.0;"/><polygon fill="#A80036" points="207.5,184.693,211.5,175.693,207.5,179.693,203.5,175.693,207.5,184.693" style="stroke: #A80036; stroke-width: 1.0;"/><!--reverse link Handphone to Xiaomi--><path d="M147.025,332.686 C136.386,346.968 125.381,361.742 114.951,375.744 " fill="none" id="Handphone&lt;-Xiaomi" style="stroke: #A80036; stroke-width: 1.0;"/><polygon fill="none" points="141.728,328.078,159.29,316.221,152.956,336.442,141.728,328.078" style="stroke: #A80036; stroke-width: 1.0;"/><!--reverse link Handphone to Vivo--><path d="M207.5,336.422 C207.5,349.532 207.5,362.959 207.5,375.744 " fill="none" id="Handphone&lt;-Vivo" style="stroke: #A80036; stroke-width: 1.0;"/><polygon fill="none" points="200.5,336.221,207.5,316.221,214.5,336.221,200.5,336.221" style="stroke: #A80036; stroke-width: 1.0;"/><!--reverse link Handphone to Samsung--><path d="M267.975,332.686 C278.614,346.968 289.619,361.742 300.049,375.744 " fill="none" id="Handphone&lt;-Samsung" style="stroke: #A80036; stroke-width: 1.0;"/><polygon fill="none" points="262.044,336.442,255.71,316.221,273.272,328.078,262.044,336.442" style="stroke: #A80036; stroke-width: 1.0;"/><!--
@startuml interface
PenggunaHP - -> Handphone
Handphone <|- - Xiaomi
Handphone <|- - Vivo
Handphone <|- - Samsung

class PenggunaHP {
    -handphone: Handphone
    +nyalakanHP()
    +matikanHP()
    +besarkanSuaraHP()
    +kecilkanSuaraHP()
}
interface Handphone {
    MAX: int
    MIN: int
    +nyalakan()
    +matikan()
    +besarkanSuara()
    +kecilkanSuara()
}
class Xiaomi {
    -volume: int
    -menyala: Boolean
    +nyalakan()
    +matikan()
    +besarkanSuara()
    +kecilkanSuara()
    +getVolume()
}
class Vivo {
    -volume: int
    -menyala: Boolean
    +nyalakan()
    +matikan()
    +besarkanSuara()
    +kecilkanSuara()
    +getVolume()
}
class Samsung {
    -volume: int
    -menyala: Boolean
    +nyalakan()
    +matikan()
    +besarkanSuara()
    +kecilkanSuara()
    +getVolume()
}
@enduml

PlantUML version 1.2019.09(Mon Aug 26 23:19:51 ICT 2019)
(GPL source distribution)
Java Runtime: Java(TM) SE Runtime Environment
JVM: Java HotSpot(TM) 64-Bit Server VM
Java Version: 11.0.6+8-LTS
Operating System: Windows 10
OS Version: 10.0
Default Encoding: Cp1252
Language: en
Country: US
--></g></svg>