<?xml version="1.0" encoding="UTF-8" standalone="no"?><svg xmlns="http://www.w3.org/2000/svg" xmlns:xlink="http://www.w3.org/1999/xlink" contentScriptType="application/ecmascript" contentStyleType="text/css" height="122px" preserveAspectRatio="none" style="width:124px;height:122px;" version="1.1" viewBox="0 0 124 122" width="124px" zoomAndPan="magnify"><defs><filter height="300%" id="fppne5wo7n4yu" width="300%" x="-1" y="-1"><feGaussianBlur result="blurOut" stdDeviation="2.0"/><feColorMatrix in="blurOut" result="blurOut2" type="matrix" values="0 0 0 0 0 0 0 0 0 0 0 0 0 0 0 0 0 0 .4 0"/><feOffset dx="4.0" dy="4.0" in="blurOut2" result="blurOut3"/><feBlend in="SourceGraphic" in2="blurOut3" mode="normal"/></filter></defs><g><!--class MobilSport--><rect fill="#FEFECE" filter="url(#fppne5wo7n4yu)" height="103.3438" id="MobilSport" style="stroke: #A80036; stroke-width: 1.5;" width="107" x="6" y="8"/><ellipse cx="28.65" cy="24" fill="#ADD1B2" rx="11" ry="11" style="stroke: #A80036; stroke-width: 1.0;"/><path d="M31.4156,19.875 Q31.5719,19.6563 31.7594,19.5469 Q31.9469,19.4375 32.1656,19.4375 Q32.5406,19.4375 32.775,19.7031 Q33.0094,19.9531 33.0094,20.5625 L33.0094,22.0156 Q33.0094,22.625 32.775,22.8906 Q32.5406,23.1563 32.1656,23.1563 Q31.8219,23.1563 31.6188,22.9531 Q31.4156,22.7656 31.3063,22.25 Q31.2594,21.8906 31.0719,21.7031 Q30.7438,21.3281 30.1344,21.1094 Q29.525,20.8906 28.9,20.8906 Q28.1344,20.8906 27.4938,21.2188 Q26.8688,21.5469 26.3688,22.2969 Q25.8844,23.0469 25.8844,24.0781 L25.8844,25.1719 Q25.8844,26.4063 26.775,27.2344 Q27.6656,28.0469 29.2594,28.0469 Q30.1969,28.0469 30.8531,27.7969 Q31.2438,27.6406 31.6656,27.2031 Q31.9313,26.9375 32.0719,26.8594 Q32.2281,26.7813 32.4313,26.7813 Q32.7594,26.7813 33.0094,27.0469 Q33.275,27.2969 33.275,27.6406 Q33.275,27.9844 32.9313,28.3906 Q32.4313,28.9688 31.6344,29.2969 Q30.5563,29.75 29.2594,29.75 Q27.7438,29.75 26.5406,29.125 Q25.5563,28.625 24.8688,27.5625 Q24.1813,26.4844 24.1813,25.2031 L24.1813,24.0469 Q24.1813,22.7188 24.7906,21.5781 Q25.4156,20.4219 26.5094,19.8125 Q27.6031,19.1875 28.8375,19.1875 Q29.5719,19.1875 30.2125,19.3594 Q30.8688,19.5156 31.4156,19.875 Z "/><text fill="#000000" font-family="sans-serif" font-size="12" lengthAdjust="spacingAndGlyphs" textLength="58" x="44.35" y="28.9102">MobilSport</text><line style="stroke: #A80036; stroke-width: 1.5;" x1="7" x2="112" y1="40" y2="40"/><text fill="#000000" font-family="sans-serif" font-size="11" lengthAdjust="spacingAndGlyphs" textLength="61" x="12" y="55.4189">-String nama</text><line style="stroke: #A80036; stroke-width: 1.5;" x1="7" x2="112" y1="61.8359" y2="61.8359"/><text fill="#000000" font-family="sans-serif" font-size="11" lengthAdjust="spacingAndGlyphs" textLength="95" x="12" y="77.2549">+Mobil(String nama)</text><text fill="#000000" font-family="sans-serif" font-size="11" lengthAdjust="spacingAndGlyphs" textLength="50" x="12" y="91.0908">+gigi(int g)</text><text fill="#000000" font-family="sans-serif" font-size="11" lengthAdjust="spacingAndGlyphs" textLength="73" x="12" y="104.9268">+gigi(int g, int t)</text><!--
@startuml MobilSport
skinparam classAttributeIconSize 0
Class MobilSport {
    -String nama
    +Mobil(String nama)
    +gigi(int g)
    +gigi(int g, int t)
}
@enduml

PlantUML version 1.2019.09(Mon Aug 26 23:19:51 ICT 2019)
(GPL source distribution)
Java Runtime: Java(TM) SE Runtime Environment
JVM: Java HotSpot(TM) 64-Bit Server VM
Java Version: 11.0.6+8-LTS
Operating System: Windows 10
OS Version: 10.0
Default Encoding: Cp1252
Language: en
Country: US
--></g></svg>