<?xml version="1.0" encoding="UTF-8" standalone="no"?><svg xmlns="http://www.w3.org/2000/svg" xmlns:xlink="http://www.w3.org/1999/xlink" contentScriptType="application/ecmascript" contentStyleType="text/css" height="341px" preserveAspectRatio="none" style="width:559px;height:341px;" version="1.1" viewBox="0 0 559 341" width="559px" zoomAndPan="magnify"><defs><filter height="300%" id="ft2g2ycfcb8fu" width="300%" x="-1" y="-1"><feGaussianBlur result="blurOut" stdDeviation="2.0"/><feColorMatrix in="blurOut" result="blurOut2" type="matrix" values="0 0 0 0 0 0 0 0 0 0 0 0 0 0 0 0 0 0 .4 0"/><feOffset dx="4.0" dy="4.0" in="blurOut2" result="blurOut3"/><feBlend in="SourceGraphic" in2="blurOut3" mode="normal"/></filter></defs><g><!--class Jurusan--><rect fill="#FEFECE" filter="url(#ft2g2ycfcb8fu)" height="131.0156" id="Jurusan" style="stroke: #A80036; stroke-width: 1.5;" width="268" x="6" y="15"/><ellipse cx="113.25" cy="31" fill="#ADD1B2" rx="11" ry="11" style="stroke: #A80036; stroke-width: 1.0;"/><path d="M116.0156,26.875 Q116.1719,26.6563 116.3594,26.5469 Q116.5469,26.4375 116.7656,26.4375 Q117.1406,26.4375 117.375,26.7031 Q117.6094,26.9531 117.6094,27.5625 L117.6094,29.0156 Q117.6094,29.625 117.375,29.8906 Q117.1406,30.1563 116.7656,30.1563 Q116.4219,30.1563 116.2188,29.9531 Q116.0156,29.7656 115.9063,29.25 Q115.8594,28.8906 115.6719,28.7031 Q115.3438,28.3281 114.7344,28.1094 Q114.125,27.8906 113.5,27.8906 Q112.7344,27.8906 112.0938,28.2188 Q111.4688,28.5469 110.9688,29.2969 Q110.4844,30.0469 110.4844,31.0781 L110.4844,32.1719 Q110.4844,33.4063 111.375,34.2344 Q112.2656,35.0469 113.8594,35.0469 Q114.7969,35.0469 115.4531,34.7969 Q115.8438,34.6406 116.2656,34.2031 Q116.5313,33.9375 116.6719,33.8594 Q116.8281,33.7813 117.0313,33.7813 Q117.3594,33.7813 117.6094,34.0469 Q117.875,34.2969 117.875,34.6406 Q117.875,34.9844 117.5313,35.3906 Q117.0313,35.9688 116.2344,36.2969 Q115.1563,36.75 113.8594,36.75 Q112.3438,36.75 111.1406,36.125 Q110.1563,35.625 109.4688,34.5625 Q108.7813,33.4844 108.7813,32.2031 L108.7813,31.0469 Q108.7813,29.7188 109.3906,28.5781 Q110.0156,27.4219 111.1094,26.8125 Q112.2031,26.1875 113.4375,26.1875 Q114.1719,26.1875 114.8125,26.3594 Q115.4688,26.5156 116.0156,26.875 Z "/><text fill="#000000" font-family="sans-serif" font-size="12" lengthAdjust="spacingAndGlyphs" textLength="45" x="133.75" y="35.9102">Jurusan</text><line style="stroke: #A80036; stroke-width: 1.5;" x1="7" x2="273" y1="47" y2="47"/><rect fill="none" height="6" style="stroke: #C82930; stroke-width: 1.0;" width="6" x="14" y="55"/><text fill="#000000" font-family="sans-serif" font-size="11" lengthAdjust="spacingAndGlyphs" textLength="93" x="26" y="62.4189">String kodeJurusan</text><rect fill="none" height="6" style="stroke: #C82930; stroke-width: 1.0;" width="6" x="14" y="68.8359"/><text fill="#000000" font-family="sans-serif" font-size="11" lengthAdjust="spacingAndGlyphs" textLength="96" x="26" y="76.2549">String namaJurusan</text><rect fill="none" height="6" style="stroke: #C82930; stroke-width: 1.0;" width="6" x="14" y="82.6719"/><text fill="#000000" font-family="sans-serif" font-size="11" lengthAdjust="spacingAndGlyphs" textLength="121" x="26" y="90.0908">Mahasiswa[] mahasiswa</text><line style="stroke: #A80036; stroke-width: 1.5;" x1="7" x2="273" y1="96.5078" y2="96.5078"/><ellipse cx="17" cy="107.5078" fill="#84BE84" rx="3" ry="3" style="stroke: #038048; stroke-width: 1.0;"/><text fill="#000000" font-family="sans-serif" font-size="11" lengthAdjust="spacingAndGlyphs" textLength="242" x="26" y="111.9268">Jurusan(String kodeJurusan, String namaJurusan)</text><ellipse cx="17" cy="121.3438" fill="#84BE84" rx="3" ry="3" style="stroke: #038048; stroke-width: 1.0;"/><text fill="#000000" font-family="sans-serif" font-size="11" lengthAdjust="spacingAndGlyphs" textLength="200" x="26" y="125.7627">setMahasiswa(Mahasiswa[] mahasiswa)</text><ellipse cx="17" cy="135.1797" fill="#84BE84" rx="3" ry="3" style="stroke: #038048; stroke-width: 1.0;"/><text fill="#000000" font-family="sans-serif" font-size="11" lengthAdjust="spacingAndGlyphs" textLength="86" x="26" y="139.5986">displayInformasi()</text><!--class Mahasiswa--><rect fill="#FEFECE" filter="url(#ft2g2ycfcb8fu)" height="117.1797" id="Mahasiswa" style="stroke: #A80036; stroke-width: 1.5;" width="204" x="182" y="213"/><ellipse cx="248.25" cy="229" fill="#ADD1B2" rx="11" ry="11" style="stroke: #A80036; stroke-width: 1.0;"/><path d="M251.0156,224.875 Q251.1719,224.6563 251.3594,224.5469 Q251.5469,224.4375 251.7656,224.4375 Q252.1406,224.4375 252.375,224.7031 Q252.6094,224.9531 252.6094,225.5625 L252.6094,227.0156 Q252.6094,227.625 252.375,227.8906 Q252.1406,228.1563 251.7656,228.1563 Q251.4219,228.1563 251.2188,227.9531 Q251.0156,227.7656 250.9063,227.25 Q250.8594,226.8906 250.6719,226.7031 Q250.3438,226.3281 249.7344,226.1094 Q249.125,225.8906 248.5,225.8906 Q247.7344,225.8906 247.0938,226.2188 Q246.4688,226.5469 245.9688,227.2969 Q245.4844,228.0469 245.4844,229.0781 L245.4844,230.1719 Q245.4844,231.4063 246.375,232.2344 Q247.2656,233.0469 248.8594,233.0469 Q249.7969,233.0469 250.4531,232.7969 Q250.8438,232.6406 251.2656,232.2031 Q251.5313,231.9375 251.6719,231.8594 Q251.8281,231.7813 252.0313,231.7813 Q252.3594,231.7813 252.6094,232.0469 Q252.875,232.2969 252.875,232.6406 Q252.875,232.9844 252.5313,233.3906 Q252.0313,233.9688 251.2344,234.2969 Q250.1563,234.75 248.8594,234.75 Q247.3438,234.75 246.1406,234.125 Q245.1563,233.625 244.4688,232.5625 Q243.7813,231.4844 243.7813,230.2031 L243.7813,229.0469 Q243.7813,227.7188 244.3906,226.5781 Q245.0156,225.4219 246.1094,224.8125 Q247.2031,224.1875 248.4375,224.1875 Q249.1719,224.1875 249.8125,224.3594 Q250.4688,224.5156 251.0156,224.875 Z "/><text fill="#000000" font-family="sans-serif" font-size="12" lengthAdjust="spacingAndGlyphs" textLength="63" x="268.75" y="233.9102">Mahasiswa</text><line style="stroke: #A80036; stroke-width: 1.5;" x1="183" x2="385" y1="245" y2="245"/><rect fill="none" height="6" style="stroke: #C82930; stroke-width: 1.0;" width="6" x="190" y="253"/><text fill="#000000" font-family="sans-serif" font-size="11" lengthAdjust="spacingAndGlyphs" textLength="51" x="202" y="260.4189">String npm</text><rect fill="none" height="6" style="stroke: #C82930; stroke-width: 1.0;" width="6" x="190" y="266.8359"/><text fill="#000000" font-family="sans-serif" font-size="11" lengthAdjust="spacingAndGlyphs" textLength="57" x="202" y="274.2549">String nama</text><line style="stroke: #A80036; stroke-width: 1.5;" x1="183" x2="385" y1="280.6719" y2="280.6719"/><ellipse cx="193" cy="291.6719" fill="#84BE84" rx="3" ry="3" style="stroke: #038048; stroke-width: 1.0;"/><text fill="#000000" font-family="sans-serif" font-size="11" lengthAdjust="spacingAndGlyphs" textLength="178" x="202" y="296.0908">Mahasiswa(String npm, String nama)</text><ellipse cx="193" cy="305.5078" fill="#84BE84" rx="3" ry="3" style="stroke: #038048; stroke-width: 1.0;"/><text fill="#000000" font-family="sans-serif" font-size="11" lengthAdjust="spacingAndGlyphs" textLength="78" x="202" y="309.9268">getNPM(): String</text><ellipse cx="193" cy="319.3438" fill="#84BE84" rx="3" ry="3" style="stroke: #038048; stroke-width: 1.0;"/><text fill="#000000" font-family="sans-serif" font-size="11" lengthAdjust="spacingAndGlyphs" textLength="84" x="202" y="323.7627">getNama(): String</text><!--class Dosen--><rect fill="#FEFECE" filter="url(#ft2g2ycfcb8fu)" height="144.8516" id="Dosen" style="stroke: #A80036; stroke-width: 1.5;" width="239" x="309.5" y="8"/><ellipse cx="406.25" cy="24" fill="#ADD1B2" rx="11" ry="11" style="stroke: #A80036; stroke-width: 1.0;"/><path d="M409.0156,19.875 Q409.1719,19.6563 409.3594,19.5469 Q409.5469,19.4375 409.7656,19.4375 Q410.1406,19.4375 410.375,19.7031 Q410.6094,19.9531 410.6094,20.5625 L410.6094,22.0156 Q410.6094,22.625 410.375,22.8906 Q410.1406,23.1563 409.7656,23.1563 Q409.4219,23.1563 409.2188,22.9531 Q409.0156,22.7656 408.9063,22.25 Q408.8594,21.8906 408.6719,21.7031 Q408.3438,21.3281 407.7344,21.1094 Q407.125,20.8906 406.5,20.8906 Q405.7344,20.8906 405.0938,21.2188 Q404.4688,21.5469 403.9688,22.2969 Q403.4844,23.0469 403.4844,24.0781 L403.4844,25.1719 Q403.4844,26.4063 404.375,27.2344 Q405.2656,28.0469 406.8594,28.0469 Q407.7969,28.0469 408.4531,27.7969 Q408.8438,27.6406 409.2656,27.2031 Q409.5313,26.9375 409.6719,26.8594 Q409.8281,26.7813 410.0313,26.7813 Q410.3594,26.7813 410.6094,27.0469 Q410.875,27.2969 410.875,27.6406 Q410.875,27.9844 410.5313,28.3906 Q410.0313,28.9688 409.2344,29.2969 Q408.1563,29.75 406.8594,29.75 Q405.3438,29.75 404.1406,29.125 Q403.1563,28.625 402.4688,27.5625 Q401.7813,26.4844 401.7813,25.2031 L401.7813,24.0469 Q401.7813,22.7188 402.3906,21.5781 Q403.0156,20.4219 404.1094,19.8125 Q405.2031,19.1875 406.4375,19.1875 Q407.1719,19.1875 407.8125,19.3594 Q408.4688,19.5156 409.0156,19.875 Z "/><text fill="#000000" font-family="sans-serif" font-size="12" lengthAdjust="spacingAndGlyphs" textLength="37" x="426.75" y="28.9102">Dosen</text><line style="stroke: #A80036; stroke-width: 1.5;" x1="310.5" x2="547.5" y1="40" y2="40"/><rect fill="none" height="6" style="stroke: #C82930; stroke-width: 1.0;" width="6" x="317.5" y="48"/><text fill="#000000" font-family="sans-serif" font-size="11" lengthAdjust="spacingAndGlyphs" textLength="51" x="329.5" y="55.4189">String nidn</text><rect fill="none" height="6" style="stroke: #C82930; stroke-width: 1.0;" width="6" x="317.5" y="61.8359"/><text fill="#000000" font-family="sans-serif" font-size="11" lengthAdjust="spacingAndGlyphs" textLength="57" x="329.5" y="69.2549">String nama</text><rect fill="none" height="6" style="stroke: #C82930; stroke-width: 1.0;" width="6" x="317.5" y="75.6719"/><text fill="#000000" font-family="sans-serif" font-size="11" lengthAdjust="spacingAndGlyphs" textLength="113" x="329.5" y="83.0908">String[] npmMahasiswa</text><line style="stroke: #A80036; stroke-width: 1.5;" x1="310.5" x2="547.5" y1="89.5078" y2="89.5078"/><ellipse cx="320.5" cy="100.5078" fill="#84BE84" rx="3" ry="3" style="stroke: #038048; stroke-width: 1.0;"/><text fill="#000000" font-family="sans-serif" font-size="11" lengthAdjust="spacingAndGlyphs" textLength="153" x="329.5" y="104.9268">Dosen(String nidn, String nama)</text><ellipse cx="320.5" cy="114.3438" fill="#84BE84" rx="3" ry="3" style="stroke: #038048; stroke-width: 1.0;"/><text fill="#000000" font-family="sans-serif" font-size="11" lengthAdjust="spacingAndGlyphs" textLength="213" x="329.5" y="118.7627">setNpmMahasiswa(String[] npmMahasiswa)</text><ellipse cx="320.5" cy="128.1797" fill="#84BE84" rx="3" ry="3" style="stroke: #038048; stroke-width: 1.0;"/><text fill="#000000" font-family="sans-serif" font-size="11" lengthAdjust="spacingAndGlyphs" textLength="78" x="329.5" y="132.5986">getNPM(): String</text><ellipse cx="320.5" cy="142.0156" fill="#84BE84" rx="3" ry="3" style="stroke: #038048; stroke-width: 1.0;"/><text fill="#000000" font-family="sans-serif" font-size="11" lengthAdjust="spacingAndGlyphs" textLength="84" x="329.5" y="146.4346">getNama(): String</text><!--reverse link Jurusan to Mahasiswa--><path d="M197.222,156.604 C211.509,175.355 226.607,195.172 240.133,212.925 " fill="none" id="Jurusan&lt;-Mahasiswa" style="stroke: #A80036; stroke-width: 1.0;"/><polygon fill="#FFFFFF" points="189.154,146.014,189.6083,153.2108,196.4262,155.5595,195.9719,148.3627,189.154,146.014" style="stroke: #A80036; stroke-width: 1.0;"/><text fill="#000000" font-family="sans-serif" font-size="13" lengthAdjust="spacingAndGlyphs" textLength="7" x="187.1474" y="167.5681">1</text><text fill="#000000" font-family="sans-serif" font-size="13" lengthAdjust="spacingAndGlyphs" textLength="5" x="229.482" y="202.3168">*</text><!--link Dosen to Mahasiswa--><path d="M373.975,153.222 C358.833,172.959 342.61,194.105 328.167,212.931 " fill="none" id="Dosen-Mahasiswa" style="stroke: #A80036; stroke-width: 1.0;"/><text fill="#000000" font-family="sans-serif" font-size="13" lengthAdjust="spacingAndGlyphs" textLength="7" x="361.3968" y="174.4348">1</text><text fill="#000000" font-family="sans-serif" font-size="13" lengthAdjust="spacingAndGlyphs" textLength="32" x="299.5999" y="202.3235">many</text><!--
@startuml jurusanmahasiswa
Jurusan "1" o- - "*" Mahasiswa
Dosen "1" - - "many" Mahasiswa
class Jurusan {
    -String kodeJurusan
    -String namaJurusan
    -Mahasiswa[] mahasiswa
    +Jurusan(String kodeJurusan, String namaJurusan)
    +setMahasiswa(Mahasiswa[] mahasiswa)
    +displayInformasi()
}
class Dosen {
    -String nidn
    -String nama
    -String[] npmMahasiswa
    +Dosen(String nidn, String nama)
    +setNpmMahasiswa(String[] npmMahasiswa)
    +getNPM(): String
    +getNama(): String
}
class Mahasiswa {
    -String npm
    -String nama
    +Mahasiswa(String npm, String nama)
    +getNPM(): String
    +getNama(): String
}
@enduml

PlantUML version 1.2019.09(Mon Aug 26 23:19:51 ICT 2019)
(GPL source distribution)
Java Runtime: Java(TM) SE Runtime Environment
JVM: Java HotSpot(TM) 64-Bit Server VM
Java Version: 11.0.6+8-LTS
Operating System: Windows 10
OS Version: 10.0
Default Encoding: Cp1252
Language: en
Country: US
--></g></svg>