<?xml version="1.0" encoding="UTF-8" standalone="no"?><svg xmlns="http://www.w3.org/2000/svg" xmlns:xlink="http://www.w3.org/1999/xlink" contentScriptType="application/ecmascript" contentStyleType="text/css" height="326px" preserveAspectRatio="none" style="width:427px;height:326px;" version="1.1" viewBox="0 0 427 326" width="427px" zoomAndPan="magnify"><defs><filter height="300%" id="fwci76pt3at4m" width="300%" x="-1" y="-1"><feGaussianBlur result="blurOut" stdDeviation="2.0"/><feColorMatrix in="blurOut" result="blurOut2" type="matrix" values="0 0 0 0 0 0 0 0 0 0 0 0 0 0 0 0 0 0 .4 0"/><feOffset dx="4.0" dy="4.0" in="blurOut2" result="blurOut3"/><feBlend in="SourceGraphic" in2="blurOut3" mode="normal"/></filter></defs><g><!--class Animal--><rect fill="#FEFECE" filter="url(#fwci76pt3at4m)" height="103.3438" id="Animal" style="stroke: #A80036; stroke-width: 1.5;" width="103" x="125.5" y="8"/><ellipse cx="154.9" cy="24" fill="#A9DCDF" rx="11" ry="11" style="stroke: #A80036; stroke-width: 1.0;"/><path d="M157.0875,25.7656 L152.9469,25.7656 L152.525,26.7969 L152.9469,26.7969 Q153.5563,26.7969 153.8219,27.0313 Q154.0875,27.2656 154.0875,27.6563 Q154.0875,28.0313 153.8219,28.2656 Q153.5563,28.5 152.9469,28.5 L150.65,28.5 Q150.0406,28.5 149.7906,28.2656 Q149.525,28.0313 149.525,27.6406 Q149.525,27.2656 149.8063,27.0313 Q150.0719,26.7813 150.6969,26.7969 L153.3688,20.1406 L152.2594,20.1406 Q151.65,20.1406 151.3844,19.9063 Q151.1188,19.6719 151.1188,19.2813 Q151.1188,18.9063 151.3844,18.6719 Q151.65,18.4375 152.2594,18.4375 L155.9313,18.4375 L159.3219,26.7969 Q159.9156,26.7969 160.1031,26.9375 Q160.4938,27.2031 160.4938,27.6563 Q160.4938,28.0313 160.2281,28.2656 Q159.9781,28.5 159.3688,28.5 L157.0719,28.5 Q156.4625,28.5 156.1969,28.2656 Q155.9313,28.0313 155.9313,27.6406 Q155.9313,27.2656 156.1969,27.0313 Q156.4625,26.7969 157.0719,26.7969 L157.4938,26.7969 L157.0875,25.7656 Z M156.3688,24.0625 L155.0094,20.6875 L153.6344,24.0625 L156.3688,24.0625 Z "/><text fill="#000000" font-family="sans-serif" font-size="12" font-style="italic" lengthAdjust="spacingAndGlyphs" textLength="39" x="172.1" y="28.9102">Animal</text><line style="stroke: #A80036; stroke-width: 1.5;" x1="126.5" x2="227.5" y1="40" y2="40"/><polygon fill="none" points="136.5,46,140.5,50,136.5,54,132.5,50" style="stroke: #B38D22; stroke-width: 1.0;"/><text fill="#000000" font-family="sans-serif" font-size="11" lengthAdjust="spacingAndGlyphs" textLength="37" x="145.5" y="55.4189">legs: int</text><line style="stroke: #A80036; stroke-width: 1.5;" x1="126.5" x2="227.5" y1="61.8359" y2="61.8359"/><polygon fill="#FFFF44" points="136.5,67.8359,140.5,71.8359,136.5,75.8359,132.5,71.8359" style="stroke: #B38D22; stroke-width: 1.0;"/><text fill="#000000" font-family="sans-serif" font-size="11" lengthAdjust="spacingAndGlyphs" textLength="77" x="145.5" y="77.2549">Animal(legs: int)</text><ellipse cx="136.5" cy="86.6719" fill="#84BE84" rx="3" ry="3" style="stroke: #038048; stroke-width: 1.0;"/><text fill="#000000" font-family="sans-serif" font-size="11" lengthAdjust="spacingAndGlyphs" textLength="31" x="145.5" y="91.0908">walk()</text><ellipse cx="136.5" cy="100.5078" fill="#84BE84" rx="3" ry="3" style="stroke: #038048; stroke-width: 1.0;"/><text fill="#000000" font-family="sans-serif" font-size="11" font-style="italic" lengthAdjust="spacingAndGlyphs" textLength="23" x="145.5" y="104.9268">eat()</text><!--class Spider--><rect fill="#FEFECE" filter="url(#fwci76pt3at4m)" height="75.6719" id="Spider" style="stroke: #A80036; stroke-width: 1.5;" width="68" x="6" y="205.5"/><ellipse cx="21" cy="221.5" fill="#ADD1B2" rx="11" ry="11" style="stroke: #A80036; stroke-width: 1.0;"/><path d="M23.7656,217.375 Q23.9219,217.1563 24.1094,217.0469 Q24.2969,216.9375 24.5156,216.9375 Q24.8906,216.9375 25.125,217.2031 Q25.3594,217.4531 25.3594,218.0625 L25.3594,219.5156 Q25.3594,220.125 25.125,220.3906 Q24.8906,220.6563 24.5156,220.6563 Q24.1719,220.6563 23.9688,220.4531 Q23.7656,220.2656 23.6563,219.75 Q23.6094,219.3906 23.4219,219.2031 Q23.0938,218.8281 22.4844,218.6094 Q21.875,218.3906 21.25,218.3906 Q20.4844,218.3906 19.8438,218.7188 Q19.2188,219.0469 18.7188,219.7969 Q18.2344,220.5469 18.2344,221.5781 L18.2344,222.6719 Q18.2344,223.9063 19.125,224.7344 Q20.0156,225.5469 21.6094,225.5469 Q22.5469,225.5469 23.2031,225.2969 Q23.5938,225.1406 24.0156,224.7031 Q24.2813,224.4375 24.4219,224.3594 Q24.5781,224.2813 24.7813,224.2813 Q25.1094,224.2813 25.3594,224.5469 Q25.625,224.7969 25.625,225.1406 Q25.625,225.4844 25.2813,225.8906 Q24.7813,226.4688 23.9844,226.7969 Q22.9063,227.25 21.6094,227.25 Q20.0938,227.25 18.8906,226.625 Q17.9063,226.125 17.2188,225.0625 Q16.5313,223.9844 16.5313,222.7031 L16.5313,221.5469 Q16.5313,220.2188 17.1406,219.0781 Q17.7656,217.9219 18.8594,217.3125 Q19.9531,216.6875 21.1875,216.6875 Q21.9219,216.6875 22.5625,216.8594 Q23.2188,217.0156 23.7656,217.375 Z "/><text fill="#000000" font-family="sans-serif" font-size="12" lengthAdjust="spacingAndGlyphs" textLength="36" x="35" y="226.4102">Spider</text><line style="stroke: #A80036; stroke-width: 1.5;" x1="7" x2="73" y1="237.5" y2="237.5"/><line style="stroke: #A80036; stroke-width: 1.5;" x1="7" x2="73" y1="245.5" y2="245.5"/><ellipse cx="17" cy="256.5" fill="#84BE84" rx="3" ry="3" style="stroke: #038048; stroke-width: 1.0;"/><text fill="#000000" font-family="sans-serif" font-size="11" lengthAdjust="spacingAndGlyphs" textLength="39" x="26" y="260.9189">Spider()</text><ellipse cx="17" cy="270.3359" fill="#84BE84" rx="3" ry="3" style="stroke: #038048; stroke-width: 1.0;"/><text fill="#000000" font-family="sans-serif" font-size="11" lengthAdjust="spacingAndGlyphs" textLength="23" x="26" y="274.7549">eat()</text><!--class Cat--><rect fill="#FEFECE" filter="url(#fwci76pt3at4m)" height="144.8516" id="Cat" style="stroke: #A80036; stroke-width: 1.5;" width="136" x="280" y="171"/><ellipse cx="334.25" cy="187" fill="#ADD1B2" rx="11" ry="11" style="stroke: #A80036; stroke-width: 1.0;"/><path d="M337.0156,182.875 Q337.1719,182.6563 337.3594,182.5469 Q337.5469,182.4375 337.7656,182.4375 Q338.1406,182.4375 338.375,182.7031 Q338.6094,182.9531 338.6094,183.5625 L338.6094,185.0156 Q338.6094,185.625 338.375,185.8906 Q338.1406,186.1563 337.7656,186.1563 Q337.4219,186.1563 337.2188,185.9531 Q337.0156,185.7656 336.9063,185.25 Q336.8594,184.8906 336.6719,184.7031 Q336.3438,184.3281 335.7344,184.1094 Q335.125,183.8906 334.5,183.8906 Q333.7344,183.8906 333.0938,184.2188 Q332.4688,184.5469 331.9688,185.2969 Q331.4844,186.0469 331.4844,187.0781 L331.4844,188.1719 Q331.4844,189.4063 332.375,190.2344 Q333.2656,191.0469 334.8594,191.0469 Q335.7969,191.0469 336.4531,190.7969 Q336.8438,190.6406 337.2656,190.2031 Q337.5313,189.9375 337.6719,189.8594 Q337.8281,189.7813 338.0313,189.7813 Q338.3594,189.7813 338.6094,190.0469 Q338.875,190.2969 338.875,190.6406 Q338.875,190.9844 338.5313,191.3906 Q338.0313,191.9688 337.2344,192.2969 Q336.1563,192.75 334.8594,192.75 Q333.3438,192.75 332.1406,192.125 Q331.1563,191.625 330.4688,190.5625 Q329.7813,189.4844 329.7813,188.2031 L329.7813,187.0469 Q329.7813,185.7188 330.3906,184.5781 Q331.0156,183.4219 332.1094,182.8125 Q333.2031,182.1875 334.4375,182.1875 Q335.1719,182.1875 335.8125,182.3594 Q336.4688,182.5156 337.0156,182.875 Z "/><text fill="#000000" font-family="sans-serif" font-size="12" lengthAdjust="spacingAndGlyphs" textLength="19" x="354.75" y="191.9102">Cat</text><line style="stroke: #A80036; stroke-width: 1.5;" x1="281" x2="415" y1="203" y2="203"/><rect fill="none" height="6" style="stroke: #C82930; stroke-width: 1.0;" width="6" x="288" y="211"/><text fill="#000000" font-family="sans-serif" font-size="11" lengthAdjust="spacingAndGlyphs" textLength="60" x="300" y="218.4189">name: String</text><line style="stroke: #A80036; stroke-width: 1.5;" x1="281" x2="415" y1="224.8359" y2="224.8359"/><ellipse cx="291" cy="235.8359" fill="#84BE84" rx="3" ry="3" style="stroke: #038048; stroke-width: 1.0;"/><text fill="#000000" font-family="sans-serif" font-size="11" lengthAdjust="spacingAndGlyphs" textLength="84" x="300" y="240.2549">Cat(name: String)</text><ellipse cx="291" cy="249.6719" fill="#84BE84" rx="3" ry="3" style="stroke: #038048; stroke-width: 1.0;"/><text fill="#000000" font-family="sans-serif" font-size="11" lengthAdjust="spacingAndGlyphs" textLength="24" x="300" y="254.0908">Cat()</text><ellipse cx="291" cy="263.5078" fill="#84BE84" rx="3" ry="3" style="stroke: #038048; stroke-width: 1.0;"/><text fill="#000000" font-family="sans-serif" font-size="11" lengthAdjust="spacingAndGlyphs" textLength="84" x="300" y="267.9268">getName(): String</text><ellipse cx="291" cy="277.3438" fill="#84BE84" rx="3" ry="3" style="stroke: #038048; stroke-width: 1.0;"/><text fill="#000000" font-family="sans-serif" font-size="11" lengthAdjust="spacingAndGlyphs" textLength="110" x="300" y="281.7627">setName(name: String)</text><ellipse cx="291" cy="291.1797" fill="#84BE84" rx="3" ry="3" style="stroke: #038048; stroke-width: 1.0;"/><text fill="#000000" font-family="sans-serif" font-size="11" lengthAdjust="spacingAndGlyphs" textLength="28" x="300" y="295.5986">play()</text><ellipse cx="291" cy="305.0156" fill="#84BE84" rx="3" ry="3" style="stroke: #038048; stroke-width: 1.0;"/><text fill="#000000" font-family="sans-serif" font-size="11" lengthAdjust="spacingAndGlyphs" textLength="23" x="300" y="309.4346">eat()</text><!--class Dog--><rect fill="#FEFECE" filter="url(#fwci76pt3at4m)" height="144.8516" id="Dog" style="stroke: #A80036; stroke-width: 1.5;" width="136" x="109" y="171"/><ellipse cx="161.25" cy="187" fill="#ADD1B2" rx="11" ry="11" style="stroke: #A80036; stroke-width: 1.0;"/><path d="M164.0156,182.875 Q164.1719,182.6563 164.3594,182.5469 Q164.5469,182.4375 164.7656,182.4375 Q165.1406,182.4375 165.375,182.7031 Q165.6094,182.9531 165.6094,183.5625 L165.6094,185.0156 Q165.6094,185.625 165.375,185.8906 Q165.1406,186.1563 164.7656,186.1563 Q164.4219,186.1563 164.2188,185.9531 Q164.0156,185.7656 163.9063,185.25 Q163.8594,184.8906 163.6719,184.7031 Q163.3438,184.3281 162.7344,184.1094 Q162.125,183.8906 161.5,183.8906 Q160.7344,183.8906 160.0938,184.2188 Q159.4688,184.5469 158.9688,185.2969 Q158.4844,186.0469 158.4844,187.0781 L158.4844,188.1719 Q158.4844,189.4063 159.375,190.2344 Q160.2656,191.0469 161.8594,191.0469 Q162.7969,191.0469 163.4531,190.7969 Q163.8438,190.6406 164.2656,190.2031 Q164.5313,189.9375 164.6719,189.8594 Q164.8281,189.7813 165.0313,189.7813 Q165.3594,189.7813 165.6094,190.0469 Q165.875,190.2969 165.875,190.6406 Q165.875,190.9844 165.5313,191.3906 Q165.0313,191.9688 164.2344,192.2969 Q163.1563,192.75 161.8594,192.75 Q160.3438,192.75 159.1406,192.125 Q158.1563,191.625 157.4688,190.5625 Q156.7813,189.4844 156.7813,188.2031 L156.7813,187.0469 Q156.7813,185.7188 157.3906,184.5781 Q158.0156,183.4219 159.1094,182.8125 Q160.2031,182.1875 161.4375,182.1875 Q162.1719,182.1875 162.8125,182.3594 Q163.4688,182.5156 164.0156,182.875 Z "/><text fill="#000000" font-family="sans-serif" font-size="12" lengthAdjust="spacingAndGlyphs" textLength="23" x="181.75" y="191.9102">Dog</text><line style="stroke: #A80036; stroke-width: 1.5;" x1="110" x2="244" y1="203" y2="203"/><rect fill="none" height="6" style="stroke: #C82930; stroke-width: 1.0;" width="6" x="117" y="211"/><text fill="#000000" font-family="sans-serif" font-size="11" lengthAdjust="spacingAndGlyphs" textLength="60" x="129" y="218.4189">name: String</text><line style="stroke: #A80036; stroke-width: 1.5;" x1="110" x2="244" y1="224.8359" y2="224.8359"/><ellipse cx="120" cy="235.8359" fill="#84BE84" rx="3" ry="3" style="stroke: #038048; stroke-width: 1.0;"/><text fill="#000000" font-family="sans-serif" font-size="11" lengthAdjust="spacingAndGlyphs" textLength="27" x="129" y="240.2549">Dog()</text><ellipse cx="120" cy="249.6719" fill="#84BE84" rx="3" ry="3" style="stroke: #038048; stroke-width: 1.0;"/><text fill="#000000" font-family="sans-serif" font-size="11" lengthAdjust="spacingAndGlyphs" textLength="84" x="129" y="254.0908">getName(): String</text><ellipse cx="120" cy="263.5078" fill="#84BE84" rx="3" ry="3" style="stroke: #038048; stroke-width: 1.0;"/><text fill="#000000" font-family="sans-serif" font-size="11" lengthAdjust="spacingAndGlyphs" textLength="110" x="129" y="267.9268">setName(name: String)</text><ellipse cx="120" cy="277.3438" fill="#84BE84" rx="3" ry="3" style="stroke: #038048; stroke-width: 1.0;"/><text fill="#000000" font-family="sans-serif" font-size="11" lengthAdjust="spacingAndGlyphs" textLength="28" x="129" y="281.7627">play()</text><ellipse cx="120" cy="291.1797" fill="#84BE84" rx="3" ry="3" style="stroke: #038048; stroke-width: 1.0;"/><text fill="#000000" font-family="sans-serif" font-size="11" lengthAdjust="spacingAndGlyphs" textLength="23" x="129" y="295.5986">eat()</text><ellipse cx="120" cy="305.0156" fill="#84BE84" rx="3" ry="3" style="stroke: #038048; stroke-width: 1.0;"/><text fill="#000000" font-family="sans-serif" font-size="11" lengthAdjust="spacingAndGlyphs" textLength="31" x="129" y="309.4346">walk()</text><!--class Pet--><rect fill="#FEFECE" filter="url(#fwci76pt3at4m)" height="89.5078" id="Pet" style="stroke: #A80036; stroke-width: 1.5;" width="136" x="272" y="14.5"/><ellipse cx="326.75" cy="30.5" fill="#B4A7E5" rx="11" ry="11" style="stroke: #A80036; stroke-width: 1.0;"/><path d="M327.7031,27.1406 L327.7031,33.7969 L329.4219,33.7969 Q330.0313,33.7969 330.2969,34.0313 Q330.5625,34.2656 330.5625,34.6563 Q330.5625,35.0313 330.2969,35.2656 Q330.0313,35.5 329.4219,35.5 L324.2813,35.5 Q323.6719,35.5 323.4063,35.2656 Q323.1406,35.0313 323.1406,34.6406 Q323.1406,34.2656 323.4063,34.0313 Q323.6719,33.7969 324.2813,33.7969 L326,33.7969 L326,27.1406 L324.2813,27.1406 Q323.6719,27.1406 323.4063,26.9063 Q323.1406,26.6719 323.1406,26.2813 Q323.1406,25.9063 323.4063,25.6719 Q323.6719,25.4375 324.2813,25.4375 L329.4219,25.4375 Q330.0313,25.4375 330.2969,25.6719 Q330.5625,25.9063 330.5625,26.2813 Q330.5625,26.6719 330.2969,26.9063 Q330.0313,27.1406 329.4219,27.1406 L327.7031,27.1406 Z "/><text fill="#000000" font-family="sans-serif" font-size="12" font-style="italic" lengthAdjust="spacingAndGlyphs" textLength="18" x="347.25" y="35.4102">Pet</text><line style="stroke: #A80036; stroke-width: 1.5;" x1="273" x2="407" y1="46.5" y2="46.5"/><line style="stroke: #A80036; stroke-width: 1.5;" x1="273" x2="407" y1="54.5" y2="54.5"/><ellipse cx="283" cy="65.5" fill="#84BE84" rx="3" ry="3" style="stroke: #038048; stroke-width: 1.0;"/><text fill="#000000" font-family="sans-serif" font-size="11" lengthAdjust="spacingAndGlyphs" textLength="110" x="292" y="69.9189">setName(name: String)</text><ellipse cx="283" cy="79.3359" fill="#84BE84" rx="3" ry="3" style="stroke: #038048; stroke-width: 1.0;"/><text fill="#000000" font-family="sans-serif" font-size="11" lengthAdjust="spacingAndGlyphs" textLength="84" x="292" y="83.7549">getName(): String</text><ellipse cx="283" cy="93.1719" fill="#84BE84" rx="3" ry="3" style="stroke: #038048; stroke-width: 1.0;"/><text fill="#000000" font-family="sans-serif" font-size="11" lengthAdjust="spacingAndGlyphs" textLength="28" x="292" y="97.5908">play()</text><!--reverse link Animal to Spider--><path d="M124.588,126.917 C113.39,141.363 101.7129,156.626 91,171 C82.7997,182.003 74.0618,194.107 66.1779,205.177 " fill="none" id="Animal&lt;-Spider" style="stroke: #A80036; stroke-width: 1.0;"/><polygon fill="none" points="119.137,122.523,136.949,111.045,130.183,131.125,119.137,122.523" style="stroke: #A80036; stroke-width: 1.0;"/><!--reverse link Animal to Cat--><path d="M238.542,126.001 C252.263,140.604 266.88,156.161 280.815,170.993 " fill="none" id="Animal&lt;-Cat" style="stroke: #A80036; stroke-width: 1.0;"/><polygon fill="none" points="233.226,130.566,224.633,111.197,243.429,120.98,233.226,130.566" style="stroke: #A80036; stroke-width: 1.0;"/><!--reverse link Animal to Dog--><path d="M177,131.577 C177,144.523 177,158.035 177,170.993 " fill="none" id="Animal&lt;-Dog" style="stroke: #A80036; stroke-width: 1.0;"/><polygon fill="none" points="170,131.197,177,111.197,184,131.197,170,131.197" style="stroke: #A80036; stroke-width: 1.0;"/><!--reverse link Pet to Cat--><path d="M342.824,124.742 C343.479,139.648 344.18,155.606 344.849,170.81 " fill="none" id="Pet&lt;-Cat" style="stroke: #A80036; stroke-width: 1.0; stroke-dasharray: 7.0,7.0;"/><polygon fill="none" points="335.822,124.845,341.937,104.557,349.808,124.23,335.822,124.845" style="stroke: #A80036; stroke-width: 1.0;"/><!--reverse link Pet to Dog--><path d="M287.028,119.646 C272.409,135.97 256.388,153.858 241.206,170.81 " fill="none" id="Pet&lt;-Dog" style="stroke: #A80036; stroke-width: 1.0; stroke-dasharray: 7.0,7.0;"/><polygon fill="none" points="281.985,114.785,300.542,104.557,292.414,124.126,281.985,114.785" style="stroke: #A80036; stroke-width: 1.0;"/><!--
@startuml animal
Animal <|- - Spider
Animal <|- - Cat
Animal <|- - Dog

Pet <|.. Cat
Pet <|.. Dog

interface Pet {
    +setName(name: String)
    +getName(): String
    +play()
}

abstract class Animal {
    #legs: int
    #Animal(legs: int)
    +walk()
    +{abstract} eat()
}
class Spider {
    +Spider()
    +eat()
}
class Dog {
    -name: String
    +Dog()
    +getName(): String
    +setName(name: String)
    +play()
    +eat()
    +walk()
}
class Cat {
    -name: String
    +Cat(name: String)
    +Cat()
    +getName(): String
    +setName(name: String)
    +play()
    +eat()
}
@enduml

PlantUML version 1.2019.09(Mon Aug 26 23:19:51 ICT 2019)
(GPL source distribution)
Java Runtime: Java(TM) SE Runtime Environment
JVM: Java HotSpot(TM) 64-Bit Server VM
Java Version: 11.0.6+8-LTS
Operating System: Windows 10
OS Version: 10.0
Default Encoding: Cp1252
Language: en
Country: US
--></g></svg>