<?xml version="1.0" encoding="UTF-8" standalone="no"?><svg xmlns="http://www.w3.org/2000/svg" xmlns:xlink="http://www.w3.org/1999/xlink" contentScriptType="application/ecmascript" contentStyleType="text/css" height="283px" preserveAspectRatio="none" style="width:201px;height:283px;" version="1.1" viewBox="0 0 201 283" width="201px" zoomAndPan="magnify"><defs><filter height="300%" id="fotcklo3rn5hf" width="300%" x="-1" y="-1"><feGaussianBlur result="blurOut" stdDeviation="2.0"/><feColorMatrix in="blurOut" result="blurOut2" type="matrix" values="0 0 0 0 0 0 0 0 0 0 0 0 0 0 0 0 0 0 .4 0"/><feOffset dx="4.0" dy="4.0" in="blurOut2" result="blurOut3"/><feBlend in="SourceGraphic" in2="blurOut3" mode="normal"/></filter></defs><g><!--class ClassC--><rect fill="#FEFECE" filter="url(#fotcklo3rn5hf)" height="48" id="ClassC" style="stroke: #A80036; stroke-width: 1.5;" width="74" x="6" y="8"/><ellipse cx="21" cy="24" fill="#ADD1B2" rx="11" ry="11" style="stroke: #A80036; stroke-width: 1.0;"/><path d="M23.7656,19.875 Q23.9219,19.6563 24.1094,19.5469 Q24.2969,19.4375 24.5156,19.4375 Q24.8906,19.4375 25.125,19.7031 Q25.3594,19.9531 25.3594,20.5625 L25.3594,22.0156 Q25.3594,22.625 25.125,22.8906 Q24.8906,23.1563 24.5156,23.1563 Q24.1719,23.1563 23.9688,22.9531 Q23.7656,22.7656 23.6563,22.25 Q23.6094,21.8906 23.4219,21.7031 Q23.0938,21.3281 22.4844,21.1094 Q21.875,20.8906 21.25,20.8906 Q20.4844,20.8906 19.8438,21.2188 Q19.2188,21.5469 18.7188,22.2969 Q18.2344,23.0469 18.2344,24.0781 L18.2344,25.1719 Q18.2344,26.4063 19.125,27.2344 Q20.0156,28.0469 21.6094,28.0469 Q22.5469,28.0469 23.2031,27.7969 Q23.5938,27.6406 24.0156,27.2031 Q24.2813,26.9375 24.4219,26.8594 Q24.5781,26.7813 24.7813,26.7813 Q25.1094,26.7813 25.3594,27.0469 Q25.625,27.2969 25.625,27.6406 Q25.625,27.9844 25.2813,28.3906 Q24.7813,28.9688 23.9844,29.2969 Q22.9063,29.75 21.6094,29.75 Q20.0938,29.75 18.8906,29.125 Q17.9063,28.625 17.2188,27.5625 Q16.5313,26.4844 16.5313,25.2031 L16.5313,24.0469 Q16.5313,22.7188 17.1406,21.5781 Q17.7656,20.4219 18.8594,19.8125 Q19.9531,19.1875 21.1875,19.1875 Q21.9219,19.1875 22.5625,19.3594 Q23.2188,19.5156 23.7656,19.875 Z "/><text fill="#000000" font-family="sans-serif" font-size="12" lengthAdjust="spacingAndGlyphs" textLength="42" x="35" y="28.9102">ClassC</text><line style="stroke: #A80036; stroke-width: 1.5;" x1="7" x2="79" y1="40" y2="40"/><line style="stroke: #A80036; stroke-width: 1.5;" x1="7" x2="79" y1="48" y2="48"/><!--class ClassD--><rect fill="#FEFECE" filter="url(#fotcklo3rn5hf)" height="48" id="ClassD" style="stroke: #A80036; stroke-width: 1.5;" width="74" x="6" y="116"/><ellipse cx="21" cy="132" fill="#ADD1B2" rx="11" ry="11" style="stroke: #A80036; stroke-width: 1.0;"/><path d="M23.7656,127.875 Q23.9219,127.6563 24.1094,127.5469 Q24.2969,127.4375 24.5156,127.4375 Q24.8906,127.4375 25.125,127.7031 Q25.3594,127.9531 25.3594,128.5625 L25.3594,130.0156 Q25.3594,130.625 25.125,130.8906 Q24.8906,131.1563 24.5156,131.1563 Q24.1719,131.1563 23.9688,130.9531 Q23.7656,130.7656 23.6563,130.25 Q23.6094,129.8906 23.4219,129.7031 Q23.0938,129.3281 22.4844,129.1094 Q21.875,128.8906 21.25,128.8906 Q20.4844,128.8906 19.8438,129.2188 Q19.2188,129.5469 18.7188,130.2969 Q18.2344,131.0469 18.2344,132.0781 L18.2344,133.1719 Q18.2344,134.4063 19.125,135.2344 Q20.0156,136.0469 21.6094,136.0469 Q22.5469,136.0469 23.2031,135.7969 Q23.5938,135.6406 24.0156,135.2031 Q24.2813,134.9375 24.4219,134.8594 Q24.5781,134.7813 24.7813,134.7813 Q25.1094,134.7813 25.3594,135.0469 Q25.625,135.2969 25.625,135.6406 Q25.625,135.9844 25.2813,136.3906 Q24.7813,136.9688 23.9844,137.2969 Q22.9063,137.75 21.6094,137.75 Q20.0938,137.75 18.8906,137.125 Q17.9063,136.625 17.2188,135.5625 Q16.5313,134.4844 16.5313,133.2031 L16.5313,132.0469 Q16.5313,130.7188 17.1406,129.5781 Q17.7656,128.4219 18.8594,127.8125 Q19.9531,127.1875 21.1875,127.1875 Q21.9219,127.1875 22.5625,127.3594 Q23.2188,127.5156 23.7656,127.875 Z "/><text fill="#000000" font-family="sans-serif" font-size="12" lengthAdjust="spacingAndGlyphs" textLength="42" x="35" y="136.9102">ClassD</text><line style="stroke: #A80036; stroke-width: 1.5;" x1="7" x2="79" y1="148" y2="148"/><line style="stroke: #A80036; stroke-width: 1.5;" x1="7" x2="79" y1="156" y2="156"/><!--class ClassE--><rect fill="#FEFECE" filter="url(#fotcklo3rn5hf)" height="48" id="ClassE" style="stroke: #A80036; stroke-width: 1.5;" width="73" x="6.5" y="224"/><ellipse cx="21.5" cy="240" fill="#ADD1B2" rx="11" ry="11" style="stroke: #A80036; stroke-width: 1.0;"/><path d="M24.2656,235.875 Q24.4219,235.6563 24.6094,235.5469 Q24.7969,235.4375 25.0156,235.4375 Q25.3906,235.4375 25.625,235.7031 Q25.8594,235.9531 25.8594,236.5625 L25.8594,238.0156 Q25.8594,238.625 25.625,238.8906 Q25.3906,239.1563 25.0156,239.1563 Q24.6719,239.1563 24.4688,238.9531 Q24.2656,238.7656 24.1563,238.25 Q24.1094,237.8906 23.9219,237.7031 Q23.5938,237.3281 22.9844,237.1094 Q22.375,236.8906 21.75,236.8906 Q20.9844,236.8906 20.3438,237.2188 Q19.7188,237.5469 19.2188,238.2969 Q18.7344,239.0469 18.7344,240.0781 L18.7344,241.1719 Q18.7344,242.4063 19.625,243.2344 Q20.5156,244.0469 22.1094,244.0469 Q23.0469,244.0469 23.7031,243.7969 Q24.0938,243.6406 24.5156,243.2031 Q24.7813,242.9375 24.9219,242.8594 Q25.0781,242.7813 25.2813,242.7813 Q25.6094,242.7813 25.8594,243.0469 Q26.125,243.2969 26.125,243.6406 Q26.125,243.9844 25.7813,244.3906 Q25.2813,244.9688 24.4844,245.2969 Q23.4063,245.75 22.1094,245.75 Q20.5938,245.75 19.3906,245.125 Q18.4063,244.625 17.7188,243.5625 Q17.0313,242.4844 17.0313,241.2031 L17.0313,240.0469 Q17.0313,238.7188 17.6406,237.5781 Q18.2656,236.4219 19.3594,235.8125 Q20.4531,235.1875 21.6875,235.1875 Q22.4219,235.1875 23.0625,235.3594 Q23.7188,235.5156 24.2656,235.875 Z "/><text fill="#000000" font-family="sans-serif" font-size="12" lengthAdjust="spacingAndGlyphs" textLength="41" x="35.5" y="244.9102">ClassE</text><line style="stroke: #A80036; stroke-width: 1.5;" x1="7.5" x2="78.5" y1="256" y2="256"/><line style="stroke: #A80036; stroke-width: 1.5;" x1="7.5" x2="78.5" y1="264" y2="264"/><path d="M115,19 L115,45.3516 L189,45.3516 L189,29 L179,19 L115,19 " fill="#FBFB77" filter="url(#fotcklo3rn5hf)" style="stroke: #A80036; stroke-width: 1.0;"/><path d="M179,19 L179,29 L189,29 L179,19 " fill="#FBFB77" style="stroke: #A80036; stroke-width: 1.0;"/><text fill="#000000" font-family="sans-serif" font-size="13" lengthAdjust="spacingAndGlyphs" textLength="53" x="121" y="37.4951">Multilevel</text><!--reverse link ClassC to ClassD--><path d="M43,76.024 C43,89.579 43,104.038 43,115.678 " fill="none" id="ClassC&lt;-ClassD" style="stroke: #A80036; stroke-width: 1.0;"/><polygon fill="none" points="36.0001,76,43,56,50.0001,76,36.0001,76" style="stroke: #A80036; stroke-width: 1.0;"/><!--reverse link ClassD to ClassE--><path d="M43,184.0236 C43,197.5792 43,212.0381 43,223.6784 " fill="none" id="ClassD&lt;-ClassE" style="stroke: #A80036; stroke-width: 1.0;"/><polygon fill="none" points="36.0001,184.0005,43,164,50.0001,184.0004,36.0001,184.0005" style="stroke: #A80036; stroke-width: 1.0;"/><!--
@startuml inheritance
skinparam classAttributeIconSize 0
ClassC <|- - ClassD
ClassD <|- - ClassE
note "Multilevel" as n
@enduml

PlantUML version 1.2019.09(Mon Aug 26 23:19:51 ICT 2019)
(GPL source distribution)
Java Runtime: Java(TM) SE Runtime Environment
JVM: Java HotSpot(TM) 64-Bit Server VM
Java Version: 11.0.6+8-LTS
Operating System: Windows 10
OS Version: 10.0
Default Encoding: Cp1252
Language: en
Country: US
--></g></svg>