<?xml version="1.0" encoding="UTF-8" standalone="no"?><svg xmlns="http://www.w3.org/2000/svg" xmlns:xlink="http://www.w3.org/1999/xlink" contentScriptType="application/ecmascript" contentStyleType="text/css" height="452px" preserveAspectRatio="none" style="width:470px;height:452px;" version="1.1" viewBox="0 0 470 452" width="470px" zoomAndPan="magnify"><defs><filter height="300%" id="f128wr748x8a89" width="300%" x="-1" y="-1"><feGaussianBlur result="blurOut" stdDeviation="2.0"/><feColorMatrix in="blurOut" result="blurOut2" type="matrix" values="0 0 0 0 0 0 0 0 0 0 0 0 0 0 0 0 0 0 .4 0"/><feOffset dx="4.0" dy="4.0" in="blurOut2" result="blurOut3"/><feBlend in="SourceGraphic" in2="blurOut3" mode="normal"/></filter></defs><g><!--class Jagoan--><rect fill="#FEFECE" filter="url(#f128wr748x8a89)" height="255.5391" id="Jagoan" style="stroke: #A80036; stroke-width: 1.5;" width="151" x="172" y="8"/><ellipse cx="222.75" cy="24" fill="#ADD1B2" rx="11" ry="11" style="stroke: #A80036; stroke-width: 1.0;"/><path d="M225.5156,19.875 Q225.6719,19.6563 225.8594,19.5469 Q226.0469,19.4375 226.2656,19.4375 Q226.6406,19.4375 226.875,19.7031 Q227.1094,19.9531 227.1094,20.5625 L227.1094,22.0156 Q227.1094,22.625 226.875,22.8906 Q226.6406,23.1563 226.2656,23.1563 Q225.9219,23.1563 225.7188,22.9531 Q225.5156,22.7656 225.4063,22.25 Q225.3594,21.8906 225.1719,21.7031 Q224.8438,21.3281 224.2344,21.1094 Q223.625,20.8906 223,20.8906 Q222.2344,20.8906 221.5938,21.2188 Q220.9688,21.5469 220.4688,22.2969 Q219.9844,23.0469 219.9844,24.0781 L219.9844,25.1719 Q219.9844,26.4063 220.875,27.2344 Q221.7656,28.0469 223.3594,28.0469 Q224.2969,28.0469 224.9531,27.7969 Q225.3438,27.6406 225.7656,27.2031 Q226.0313,26.9375 226.1719,26.8594 Q226.3281,26.7813 226.5313,26.7813 Q226.8594,26.7813 227.1094,27.0469 Q227.375,27.2969 227.375,27.6406 Q227.375,27.9844 227.0313,28.3906 Q226.5313,28.9688 225.7344,29.2969 Q224.6563,29.75 223.3594,29.75 Q221.8438,29.75 220.6406,29.125 Q219.6563,28.625 218.9688,27.5625 Q218.2813,26.4844 218.2813,25.2031 L218.2813,24.0469 Q218.2813,22.7188 218.8906,21.5781 Q219.5156,20.4219 220.6094,19.8125 Q221.7031,19.1875 222.9375,19.1875 Q223.6719,19.1875 224.3125,19.3594 Q224.9688,19.5156 225.5156,19.875 Z "/><text fill="#000000" font-family="sans-serif" font-size="12" lengthAdjust="spacingAndGlyphs" textLength="41" x="243.25" y="28.9102">Jagoan</text><line style="stroke: #A80036; stroke-width: 1.5;" x1="173" x2="322" y1="40" y2="40"/><text fill="#000000" font-family="sans-serif" font-size="11" lengthAdjust="spacingAndGlyphs" textLength="64" x="178" y="55.4189">-nama: String</text><text fill="#000000" font-family="sans-serif" font-size="11" lengthAdjust="spacingAndGlyphs" textLength="100" x="178" y="69.2549">-kesehatanDasar: int</text><text fill="#000000" font-family="sans-serif" font-size="11" lengthAdjust="spacingAndGlyphs" textLength="93" x="178" y="83.0908">-kekuatanDasar: int</text><text fill="#000000" font-family="sans-serif" font-size="11" lengthAdjust="spacingAndGlyphs" textLength="65" x="178" y="96.9268">-jubah: Jubah</text><text fill="#000000" font-family="sans-serif" font-size="11" lengthAdjust="spacingAndGlyphs" textLength="81" x="178" y="110.7627">-senjata: Senjata</text><text fill="#000000" font-family="sans-serif" font-size="11" lengthAdjust="spacingAndGlyphs" textLength="54" x="178" y="124.5986">-derajat: int</text><text fill="#000000" font-family="sans-serif" font-size="11" lengthAdjust="spacingAndGlyphs" textLength="108" x="178" y="138.4346">-kenaikanKekuatan: int</text><text fill="#000000" font-family="sans-serif" font-size="11" lengthAdjust="spacingAndGlyphs" textLength="115" x="178" y="152.2705">-kenaikanKesehatan: int</text><line style="stroke: #A80036; stroke-width: 1.5;" x1="173" x2="322" y1="158.6875" y2="158.6875"/><text fill="#000000" font-family="sans-serif" font-size="11" lengthAdjust="spacingAndGlyphs" textLength="101" x="178" y="174.1064">+Player(name:String)</text><text fill="#000000" font-family="sans-serif" font-size="11" lengthAdjust="spacingAndGlyphs" textLength="67" x="178" y="187.9424">+naikDerajat()</text><text fill="#000000" font-family="sans-serif" font-size="11" lengthAdjust="spacingAndGlyphs" textLength="116" x="178" y="201.7783">+setJubah(jubah:Jubah)</text><text fill="#000000" font-family="sans-serif" font-size="11" lengthAdjust="spacingAndGlyphs" textLength="139" x="178" y="215.6143">+setSenjata(senjata:Senjata)</text><text fill="#000000" font-family="sans-serif" font-size="11" lengthAdjust="spacingAndGlyphs" textLength="101" x="178" y="229.4502">+sehatMaksimal(): int</text><text fill="#000000" font-family="sans-serif" font-size="11" lengthAdjust="spacingAndGlyphs" textLength="134" x="178" y="243.2861">+getKekuatanMaksimal(): int</text><text fill="#000000" font-family="sans-serif" font-size="11" lengthAdjust="spacingAndGlyphs" textLength="32" x="178" y="257.1221">+info()</text><!--class Jubah--><rect fill="#FEFECE" filter="url(#f128wr748x8a89)" height="117.1797" id="Jubah" style="stroke: #A80036; stroke-width: 1.5;" width="239" x="6" y="324"/><ellipse cx="104.25" cy="340" fill="#ADD1B2" rx="11" ry="11" style="stroke: #A80036; stroke-width: 1.0;"/><path d="M107.0156,335.875 Q107.1719,335.6563 107.3594,335.5469 Q107.5469,335.4375 107.7656,335.4375 Q108.1406,335.4375 108.375,335.7031 Q108.6094,335.9531 108.6094,336.5625 L108.6094,338.0156 Q108.6094,338.625 108.375,338.8906 Q108.1406,339.1563 107.7656,339.1563 Q107.4219,339.1563 107.2188,338.9531 Q107.0156,338.7656 106.9063,338.25 Q106.8594,337.8906 106.6719,337.7031 Q106.3438,337.3281 105.7344,337.1094 Q105.125,336.8906 104.5,336.8906 Q103.7344,336.8906 103.0938,337.2188 Q102.4688,337.5469 101.9688,338.2969 Q101.4844,339.0469 101.4844,340.0781 L101.4844,341.1719 Q101.4844,342.4063 102.375,343.2344 Q103.2656,344.0469 104.8594,344.0469 Q105.7969,344.0469 106.4531,343.7969 Q106.8438,343.6406 107.2656,343.2031 Q107.5313,342.9375 107.6719,342.8594 Q107.8281,342.7813 108.0313,342.7813 Q108.3594,342.7813 108.6094,343.0469 Q108.875,343.2969 108.875,343.6406 Q108.875,343.9844 108.5313,344.3906 Q108.0313,344.9688 107.2344,345.2969 Q106.1563,345.75 104.8594,345.75 Q103.3438,345.75 102.1406,345.125 Q101.1563,344.625 100.4688,343.5625 Q99.7813,342.4844 99.7813,341.2031 L99.7813,340.0469 Q99.7813,338.7188 100.3906,337.5781 Q101.0156,336.4219 102.1094,335.8125 Q103.2031,335.1875 104.4375,335.1875 Q105.1719,335.1875 105.8125,335.3594 Q106.4688,335.5156 107.0156,335.875 Z "/><text fill="#000000" font-family="sans-serif" font-size="12" lengthAdjust="spacingAndGlyphs" textLength="34" x="124.75" y="344.9102">Jubah</text><line style="stroke: #A80036; stroke-width: 1.5;" x1="7" x2="244" y1="356" y2="356"/><text fill="#000000" font-family="sans-serif" font-size="11" lengthAdjust="spacingAndGlyphs" textLength="64" x="12" y="371.4189">-nama: String</text><text fill="#000000" font-family="sans-serif" font-size="11" lengthAdjust="spacingAndGlyphs" textLength="71" x="12" y="385.2549">-kesehatan: int</text><line style="stroke: #A80036; stroke-width: 1.5;" x1="7" x2="244" y1="391.6719" y2="391.6719"/><text fill="#000000" font-family="sans-serif" font-size="11" lengthAdjust="spacingAndGlyphs" textLength="227" x="12" y="407.0908">+Jubah(nama:String,kekuatan:int,kesehatan:int)</text><text fill="#000000" font-family="sans-serif" font-size="11" lengthAdjust="spacingAndGlyphs" textLength="87" x="12" y="420.9268">+getNama():String</text><text fill="#000000" font-family="sans-serif" font-size="11" lengthAdjust="spacingAndGlyphs" textLength="136" x="12" y="434.7627">+getTambahKesehatan(): int</text><!--class Senjata--><rect fill="#FEFECE" filter="url(#f128wr748x8a89)" height="117.1797" id="Senjata" style="stroke: #A80036; stroke-width: 1.5;" width="179" x="280" y="324"/><ellipse cx="344.25" cy="340" fill="#ADD1B2" rx="11" ry="11" style="stroke: #A80036; stroke-width: 1.0;"/><path d="M347.0156,335.875 Q347.1719,335.6563 347.3594,335.5469 Q347.5469,335.4375 347.7656,335.4375 Q348.1406,335.4375 348.375,335.7031 Q348.6094,335.9531 348.6094,336.5625 L348.6094,338.0156 Q348.6094,338.625 348.375,338.8906 Q348.1406,339.1563 347.7656,339.1563 Q347.4219,339.1563 347.2188,338.9531 Q347.0156,338.7656 346.9063,338.25 Q346.8594,337.8906 346.6719,337.7031 Q346.3438,337.3281 345.7344,337.1094 Q345.125,336.8906 344.5,336.8906 Q343.7344,336.8906 343.0938,337.2188 Q342.4688,337.5469 341.9688,338.2969 Q341.4844,339.0469 341.4844,340.0781 L341.4844,341.1719 Q341.4844,342.4063 342.375,343.2344 Q343.2656,344.0469 344.8594,344.0469 Q345.7969,344.0469 346.4531,343.7969 Q346.8438,343.6406 347.2656,343.2031 Q347.5313,342.9375 347.6719,342.8594 Q347.8281,342.7813 348.0313,342.7813 Q348.3594,342.7813 348.6094,343.0469 Q348.875,343.2969 348.875,343.6406 Q348.875,343.9844 348.5313,344.3906 Q348.0313,344.9688 347.2344,345.2969 Q346.1563,345.75 344.8594,345.75 Q343.3438,345.75 342.1406,345.125 Q341.1563,344.625 340.4688,343.5625 Q339.7813,342.4844 339.7813,341.2031 L339.7813,340.0469 Q339.7813,338.7188 340.3906,337.5781 Q341.0156,336.4219 342.1094,335.8125 Q343.2031,335.1875 344.4375,335.1875 Q345.1719,335.1875 345.8125,335.3594 Q346.4688,335.5156 347.0156,335.875 Z "/><text fill="#000000" font-family="sans-serif" font-size="12" lengthAdjust="spacingAndGlyphs" textLength="42" x="364.75" y="344.9102">Senjata</text><line style="stroke: #A80036; stroke-width: 1.5;" x1="281" x2="458" y1="356" y2="356"/><text fill="#000000" font-family="sans-serif" font-size="11" lengthAdjust="spacingAndGlyphs" textLength="64" x="286" y="371.4189">-nama: String</text><text fill="#000000" font-family="sans-serif" font-size="11" lengthAdjust="spacingAndGlyphs" textLength="64" x="286" y="385.2549">-kekuatan: int</text><line style="stroke: #A80036; stroke-width: 1.5;" x1="281" x2="458" y1="391.6719" y2="391.6719"/><text fill="#000000" font-family="sans-serif" font-size="11" lengthAdjust="spacingAndGlyphs" textLength="167" x="286" y="407.0908">+Senjata(nama:String,kekuatan:int)</text><text fill="#000000" font-family="sans-serif" font-size="11" lengthAdjust="spacingAndGlyphs" textLength="90" x="286" y="420.9268">+getNama(): String</text><text fill="#000000" font-family="sans-serif" font-size="11" lengthAdjust="spacingAndGlyphs" textLength="126" x="286" y="434.7627">+getKekuatanSerang(): int</text><!--link Jagoan to Jubah--><path d="M183.999,264.263 C173.577,285.149 163.253,305.84 154.246,323.891 " fill="none" id="Jagoan-Jubah" style="stroke: #A80036; stroke-width: 1.0;"/><!--link Jagoan to Senjata--><path d="M311.001,264.263 C321.423,285.149 331.747,305.84 340.754,323.891 " fill="none" id="Jagoan-Senjata" style="stroke: #A80036; stroke-width: 1.0;"/><!--
@startuml classJagoanJubahSenjata
skinparam classAttributeIconSize 0
Jagoan - - Jubah
Jagoan - - Senjata

class Jagoan {
    -nama: String
    -kesehatanDasar: int
    -kekuatanDasar: int
    -jubah: Jubah
    -senjata: Senjata
    -derajat: int
    -kenaikanKekuatan: int
    -kenaikanKesehatan: int
    +Player(name:String)
    +naikDerajat()
    +setJubah(jubah:Jubah)
    +setSenjata(senjata:Senjata)
    +sehatMaksimal(): int
    +getKekuatanMaksimal(): int
    +info()
}

class Jubah {
    -nama: String
    -kesehatan: int
    +Jubah(nama:String,kekuatan:int,kesehatan:int)
    +getNama():String
    +getTambahKesehatan(): int
}

class Senjata {
    -nama: String
    -kekuatan: int
    +Senjata(nama:String,kekuatan:int)
    +getNama(): String
    +getKekuatanSerang(): int
}
@enduml

PlantUML version 1.2019.09(Mon Aug 26 23:19:51 ICT 2019)
(GPL source distribution)
Java Runtime: Java(TM) SE Runtime Environment
JVM: Java HotSpot(TM) 64-Bit Server VM
Java Version: 11.0.6+8-LTS
Operating System: Windows 10
OS Version: 10.0
Default Encoding: Cp1252
Language: en
Country: US
--></g></svg>