<?xml version="1.0" encoding="UTF-8" standalone="no"?><svg xmlns="http://www.w3.org/2000/svg" xmlns:xlink="http://www.w3.org/1999/xlink" contentScriptType="application/ecmascript" contentStyleType="text/css" height="283px" preserveAspectRatio="none" style="width:238px;height:283px;" version="1.1" viewBox="0 0 238 283" width="238px" zoomAndPan="magnify"><defs><filter height="300%" id="fq638z943r30" width="300%" x="-1" y="-1"><feGaussianBlur result="blurOut" stdDeviation="2.0"/><feColorMatrix in="blurOut" result="blurOut2" type="matrix" values="0 0 0 0 0 0 0 0 0 0 0 0 0 0 0 0 0 0 .4 0"/><feOffset dx="4.0" dy="4.0" in="blurOut2" result="blurOut3"/><feBlend in="SourceGraphic" in2="blurOut3" mode="normal"/></filter></defs><g><!--class ClassL--><rect fill="#FEFECE" filter="url(#fq638z943r30)" height="48" id="ClassL" style="stroke: #A80036; stroke-width: 1.5;" width="72" x="61" y="8"/><ellipse cx="76" cy="24" fill="#ADD1B2" rx="11" ry="11" style="stroke: #A80036; stroke-width: 1.0;"/><path d="M78.7656,19.875 Q78.9219,19.6563 79.1094,19.5469 Q79.2969,19.4375 79.5156,19.4375 Q79.8906,19.4375 80.125,19.7031 Q80.3594,19.9531 80.3594,20.5625 L80.3594,22.0156 Q80.3594,22.625 80.125,22.8906 Q79.8906,23.1563 79.5156,23.1563 Q79.1719,23.1563 78.9688,22.9531 Q78.7656,22.7656 78.6563,22.25 Q78.6094,21.8906 78.4219,21.7031 Q78.0938,21.3281 77.4844,21.1094 Q76.875,20.8906 76.25,20.8906 Q75.4844,20.8906 74.8438,21.2188 Q74.2188,21.5469 73.7188,22.2969 Q73.2344,23.0469 73.2344,24.0781 L73.2344,25.1719 Q73.2344,26.4063 74.125,27.2344 Q75.0156,28.0469 76.6094,28.0469 Q77.5469,28.0469 78.2031,27.7969 Q78.5938,27.6406 79.0156,27.2031 Q79.2813,26.9375 79.4219,26.8594 Q79.5781,26.7813 79.7813,26.7813 Q80.1094,26.7813 80.3594,27.0469 Q80.625,27.2969 80.625,27.6406 Q80.625,27.9844 80.2813,28.3906 Q79.7813,28.9688 78.9844,29.2969 Q77.9063,29.75 76.6094,29.75 Q75.0938,29.75 73.8906,29.125 Q72.9063,28.625 72.2188,27.5625 Q71.5313,26.4844 71.5313,25.2031 L71.5313,24.0469 Q71.5313,22.7188 72.1406,21.5781 Q72.7656,20.4219 73.8594,19.8125 Q74.9531,19.1875 76.1875,19.1875 Q76.9219,19.1875 77.5625,19.3594 Q78.2188,19.5156 78.7656,19.875 Z "/><text fill="#000000" font-family="sans-serif" font-size="12" lengthAdjust="spacingAndGlyphs" textLength="40" x="90" y="28.9102">ClassL</text><line style="stroke: #A80036; stroke-width: 1.5;" x1="62" x2="132" y1="40" y2="40"/><line style="stroke: #A80036; stroke-width: 1.5;" x1="62" x2="132" y1="48" y2="48"/><!--class ClassM--><rect fill="#FEFECE" filter="url(#fq638z943r30)" height="48" id="ClassM" style="stroke: #A80036; stroke-width: 1.5;" width="74" x="6" y="116"/><ellipse cx="21" cy="132" fill="#ADD1B2" rx="11" ry="11" style="stroke: #A80036; stroke-width: 1.0;"/><path d="M23.7656,127.875 Q23.9219,127.6563 24.1094,127.5469 Q24.2969,127.4375 24.5156,127.4375 Q24.8906,127.4375 25.125,127.7031 Q25.3594,127.9531 25.3594,128.5625 L25.3594,130.0156 Q25.3594,130.625 25.125,130.8906 Q24.8906,131.1563 24.5156,131.1563 Q24.1719,131.1563 23.9688,130.9531 Q23.7656,130.7656 23.6563,130.25 Q23.6094,129.8906 23.4219,129.7031 Q23.0938,129.3281 22.4844,129.1094 Q21.875,128.8906 21.25,128.8906 Q20.4844,128.8906 19.8438,129.2188 Q19.2188,129.5469 18.7188,130.2969 Q18.2344,131.0469 18.2344,132.0781 L18.2344,133.1719 Q18.2344,134.4063 19.125,135.2344 Q20.0156,136.0469 21.6094,136.0469 Q22.5469,136.0469 23.2031,135.7969 Q23.5938,135.6406 24.0156,135.2031 Q24.2813,134.9375 24.4219,134.8594 Q24.5781,134.7813 24.7813,134.7813 Q25.1094,134.7813 25.3594,135.0469 Q25.625,135.2969 25.625,135.6406 Q25.625,135.9844 25.2813,136.3906 Q24.7813,136.9688 23.9844,137.2969 Q22.9063,137.75 21.6094,137.75 Q20.0938,137.75 18.8906,137.125 Q17.9063,136.625 17.2188,135.5625 Q16.5313,134.4844 16.5313,133.2031 L16.5313,132.0469 Q16.5313,130.7188 17.1406,129.5781 Q17.7656,128.4219 18.8594,127.8125 Q19.9531,127.1875 21.1875,127.1875 Q21.9219,127.1875 22.5625,127.3594 Q23.2188,127.5156 23.7656,127.875 Z "/><text fill="#000000" font-family="sans-serif" font-size="12" lengthAdjust="spacingAndGlyphs" textLength="42" x="35" y="136.9102">ClassM</text><line style="stroke: #A80036; stroke-width: 1.5;" x1="7" x2="79" y1="148" y2="148"/><line style="stroke: #A80036; stroke-width: 1.5;" x1="7" x2="79" y1="156" y2="156"/><!--class ClassN--><rect fill="#FEFECE" filter="url(#fq638z943r30)" height="48" id="ClassN" style="stroke: #A80036; stroke-width: 1.5;" width="74" x="115" y="116"/><ellipse cx="130" cy="132" fill="#ADD1B2" rx="11" ry="11" style="stroke: #A80036; stroke-width: 1.0;"/><path d="M132.7656,127.875 Q132.9219,127.6563 133.1094,127.5469 Q133.2969,127.4375 133.5156,127.4375 Q133.8906,127.4375 134.125,127.7031 Q134.3594,127.9531 134.3594,128.5625 L134.3594,130.0156 Q134.3594,130.625 134.125,130.8906 Q133.8906,131.1563 133.5156,131.1563 Q133.1719,131.1563 132.9688,130.9531 Q132.7656,130.7656 132.6563,130.25 Q132.6094,129.8906 132.4219,129.7031 Q132.0938,129.3281 131.4844,129.1094 Q130.875,128.8906 130.25,128.8906 Q129.4844,128.8906 128.8438,129.2188 Q128.2188,129.5469 127.7188,130.2969 Q127.2344,131.0469 127.2344,132.0781 L127.2344,133.1719 Q127.2344,134.4063 128.125,135.2344 Q129.0156,136.0469 130.6094,136.0469 Q131.5469,136.0469 132.2031,135.7969 Q132.5938,135.6406 133.0156,135.2031 Q133.2813,134.9375 133.4219,134.8594 Q133.5781,134.7813 133.7813,134.7813 Q134.1094,134.7813 134.3594,135.0469 Q134.625,135.2969 134.625,135.6406 Q134.625,135.9844 134.2813,136.3906 Q133.7813,136.9688 132.9844,137.2969 Q131.9063,137.75 130.6094,137.75 Q129.0938,137.75 127.8906,137.125 Q126.9063,136.625 126.2188,135.5625 Q125.5313,134.4844 125.5313,133.2031 L125.5313,132.0469 Q125.5313,130.7188 126.1406,129.5781 Q126.7656,128.4219 127.8594,127.8125 Q128.9531,127.1875 130.1875,127.1875 Q130.9219,127.1875 131.5625,127.3594 Q132.2188,127.5156 132.7656,127.875 Z "/><text fill="#000000" font-family="sans-serif" font-size="12" lengthAdjust="spacingAndGlyphs" textLength="42" x="144" y="136.9102">ClassN</text><line style="stroke: #A80036; stroke-width: 1.5;" x1="116" x2="188" y1="148" y2="148"/><line style="stroke: #A80036; stroke-width: 1.5;" x1="116" x2="188" y1="156" y2="156"/><!--class ClassO--><rect fill="#FEFECE" filter="url(#fq638z943r30)" height="48" id="ClassO" style="stroke: #A80036; stroke-width: 1.5;" width="74" x="60" y="224"/><ellipse cx="75" cy="240" fill="#ADD1B2" rx="11" ry="11" style="stroke: #A80036; stroke-width: 1.0;"/><path d="M77.7656,235.875 Q77.9219,235.6563 78.1094,235.5469 Q78.2969,235.4375 78.5156,235.4375 Q78.8906,235.4375 79.125,235.7031 Q79.3594,235.9531 79.3594,236.5625 L79.3594,238.0156 Q79.3594,238.625 79.125,238.8906 Q78.8906,239.1563 78.5156,239.1563 Q78.1719,239.1563 77.9688,238.9531 Q77.7656,238.7656 77.6563,238.25 Q77.6094,237.8906 77.4219,237.7031 Q77.0938,237.3281 76.4844,237.1094 Q75.875,236.8906 75.25,236.8906 Q74.4844,236.8906 73.8438,237.2188 Q73.2188,237.5469 72.7188,238.2969 Q72.2344,239.0469 72.2344,240.0781 L72.2344,241.1719 Q72.2344,242.4063 73.125,243.2344 Q74.0156,244.0469 75.6094,244.0469 Q76.5469,244.0469 77.2031,243.7969 Q77.5938,243.6406 78.0156,243.2031 Q78.2813,242.9375 78.4219,242.8594 Q78.5781,242.7813 78.7813,242.7813 Q79.1094,242.7813 79.3594,243.0469 Q79.625,243.2969 79.625,243.6406 Q79.625,243.9844 79.2813,244.3906 Q78.7813,244.9688 77.9844,245.2969 Q76.9063,245.75 75.6094,245.75 Q74.0938,245.75 72.8906,245.125 Q71.9063,244.625 71.2188,243.5625 Q70.5313,242.4844 70.5313,241.2031 L70.5313,240.0469 Q70.5313,238.7188 71.1406,237.5781 Q71.7656,236.4219 72.8594,235.8125 Q73.9531,235.1875 75.1875,235.1875 Q75.9219,235.1875 76.5625,235.3594 Q77.2188,235.5156 77.7656,235.875 Z "/><text fill="#000000" font-family="sans-serif" font-size="12" lengthAdjust="spacingAndGlyphs" textLength="42" x="89" y="244.9102">ClassO</text><line style="stroke: #A80036; stroke-width: 1.5;" x1="61" x2="133" y1="256" y2="256"/><line style="stroke: #A80036; stroke-width: 1.5;" x1="61" x2="133" y1="264" y2="264"/><path d="M168,19 L168,45.3516 L226,45.3516 L226,29 L216,19 L168,19 " fill="#FBFB77" filter="url(#fq638z943r30)" style="stroke: #A80036; stroke-width: 1.0;"/><path d="M216,19 L216,29 L226,29 L216,19 " fill="#FBFB77" style="stroke: #A80036; stroke-width: 1.0;"/><text fill="#000000" font-family="sans-serif" font-size="13" lengthAdjust="spacingAndGlyphs" textLength="37" x="174" y="37.4951">Hybrid</text><!--reverse link ClassL to ClassM--><path d="M76.0655,74.094 C68.8814,88.196 61.0932,103.484 54.8808,115.678 " fill="none" id="ClassL&lt;-ClassM" style="stroke: #A80036; stroke-width: 1.0;"/><polygon fill="none" points="69.967,70.644,85.2828,56,82.4415,76.999,69.967,70.644" style="stroke: #A80036; stroke-width: 1.0;"/><!--reverse link ClassL to ClassN--><path d="M118.322,74.094 C125.639,88.196 133.572,103.484 139.899,115.678 " fill="none" id="ClassL&lt;-ClassN" style="stroke: #A80036; stroke-width: 1.0;"/><polygon fill="none" points="111.932,76.977,108.934,56,124.359,70.529,111.932,76.977" style="stroke: #A80036; stroke-width: 1.0;"/><!--reverse link ClassM to ClassO--><path d="M63.9345,182.0936 C71.1186,196.1958 78.9068,211.4838 85.1192,223.6784 " fill="none" id="ClassM&lt;-ClassO" style="stroke: #A80036; stroke-width: 1.0;"/><polygon fill="none" points="57.5585,184.9987,54.7172,164,70.033,178.6437,57.5585,184.9987" style="stroke: #A80036; stroke-width: 1.0;"/><!--reverse link ClassN to ClassO--><path d="M130.678,182.0936 C123.361,196.1958 115.428,211.4838 109.101,223.6784 " fill="none" id="ClassN&lt;-ClassO" style="stroke: #A80036; stroke-width: 1.0;"/><polygon fill="none" points="124.641,178.529,140.066,164,137.068,184.9769,124.641,178.529" style="stroke: #A80036; stroke-width: 1.0;"/><!--
@startuml inheritance
skinparam classAttributeIconSize 0
ClassL <|- - ClassM
ClassL <|- - ClassN
ClassM <|- - ClassO
ClassN <|- - ClassO
note "Hybrid" as n
@enduml

PlantUML version 1.2019.09(Mon Aug 26 23:19:51 ICT 2019)
(GPL source distribution)
Java Runtime: Java(TM) SE Runtime Environment
JVM: Java HotSpot(TM) 64-Bit Server VM
Java Version: 11.0.6+8-LTS
Operating System: Windows 10
OS Version: 10.0
Default Encoding: Cp1252
Language: en
Country: US
--></g></svg>