<?xml version="1.0" encoding="UTF-8" standalone="no"?><svg xmlns="http://www.w3.org/2000/svg" xmlns:xlink="http://www.w3.org/1999/xlink" contentScriptType="application/ecmascript" contentStyleType="text/css" height="355px" preserveAspectRatio="none" style="width:256px;height:355px;" version="1.1" viewBox="0 0 256 355" width="256px" zoomAndPan="magnify"><defs><filter height="300%" id="fl5xdhjk6382z" width="300%" x="-1" y="-1"><feGaussianBlur result="blurOut" stdDeviation="2.0"/><feColorMatrix in="blurOut" result="blurOut2" type="matrix" values="0 0 0 0 0 0 0 0 0 0 0 0 0 0 0 0 0 0 .4 0"/><feOffset dx="4.0" dy="4.0" in="blurOut2" result="blurOut3"/><feBlend in="SourceGraphic" in2="blurOut3" mode="normal"/></filter></defs><g><!--class Dosen--><rect fill="#FEFECE" filter="url(#fl5xdhjk6382z)" height="158.6875" id="Dosen" style="stroke: #A80036; stroke-width: 1.5;" width="239" x="6" y="8"/><ellipse cx="102.75" cy="24" fill="#ADD1B2" rx="11" ry="11" style="stroke: #A80036; stroke-width: 1.0;"/><path d="M105.5156,19.875 Q105.6719,19.6563 105.8594,19.5469 Q106.0469,19.4375 106.2656,19.4375 Q106.6406,19.4375 106.875,19.7031 Q107.1094,19.9531 107.1094,20.5625 L107.1094,22.0156 Q107.1094,22.625 106.875,22.8906 Q106.6406,23.1563 106.2656,23.1563 Q105.9219,23.1563 105.7188,22.9531 Q105.5156,22.7656 105.4063,22.25 Q105.3594,21.8906 105.1719,21.7031 Q104.8438,21.3281 104.2344,21.1094 Q103.625,20.8906 103,20.8906 Q102.2344,20.8906 101.5938,21.2188 Q100.9688,21.5469 100.4688,22.2969 Q99.9844,23.0469 99.9844,24.0781 L99.9844,25.1719 Q99.9844,26.4063 100.875,27.2344 Q101.7656,28.0469 103.3594,28.0469 Q104.2969,28.0469 104.9531,27.7969 Q105.3438,27.6406 105.7656,27.2031 Q106.0313,26.9375 106.1719,26.8594 Q106.3281,26.7813 106.5313,26.7813 Q106.8594,26.7813 107.1094,27.0469 Q107.375,27.2969 107.375,27.6406 Q107.375,27.9844 107.0313,28.3906 Q106.5313,28.9688 105.7344,29.2969 Q104.6563,29.75 103.3594,29.75 Q101.8438,29.75 100.6406,29.125 Q99.6563,28.625 98.9688,27.5625 Q98.2813,26.4844 98.2813,25.2031 L98.2813,24.0469 Q98.2813,22.7188 98.8906,21.5781 Q99.5156,20.4219 100.6094,19.8125 Q101.7031,19.1875 102.9375,19.1875 Q103.6719,19.1875 104.3125,19.3594 Q104.9688,19.5156 105.5156,19.875 Z "/><text fill="#000000" font-family="sans-serif" font-size="12" lengthAdjust="spacingAndGlyphs" textLength="37" x="123.25" y="28.9102">Dosen</text><line style="stroke: #A80036; stroke-width: 1.5;" x1="7" x2="244" y1="40" y2="40"/><rect fill="none" height="6" style="stroke: #C82930; stroke-width: 1.0;" width="6" x="14" y="48"/><text fill="#000000" font-family="sans-serif" font-size="11" lengthAdjust="spacingAndGlyphs" textLength="51" x="26" y="55.4189">String nidn</text><rect fill="none" height="6" style="stroke: #C82930; stroke-width: 1.0;" width="6" x="14" y="61.8359"/><text fill="#000000" font-family="sans-serif" font-size="11" lengthAdjust="spacingAndGlyphs" textLength="57" x="26" y="69.2549">String nama</text><rect fill="none" height="6" style="stroke: #C82930; stroke-width: 1.0;" width="6" x="14" y="75.6719"/><text fill="#000000" font-family="sans-serif" font-size="11" lengthAdjust="spacingAndGlyphs" textLength="113" x="26" y="83.0908">String[] npmMahasiswa</text><line style="stroke: #A80036; stroke-width: 1.5;" x1="7" x2="244" y1="89.5078" y2="89.5078"/><ellipse cx="17" cy="100.5078" fill="#84BE84" rx="3" ry="3" style="stroke: #038048; stroke-width: 1.0;"/><text fill="#000000" font-family="sans-serif" font-size="11" lengthAdjust="spacingAndGlyphs" textLength="153" x="26" y="104.9268">Dosen(String nidn, String nama)</text><ellipse cx="17" cy="114.3438" fill="#84BE84" rx="3" ry="3" style="stroke: #038048; stroke-width: 1.0;"/><text fill="#000000" font-family="sans-serif" font-size="11" lengthAdjust="spacingAndGlyphs" textLength="213" x="26" y="118.7627">setNpmMahasiswa(String[] npmMahasiswa)</text><ellipse cx="17" cy="128.1797" fill="#84BE84" rx="3" ry="3" style="stroke: #038048; stroke-width: 1.0;"/><text fill="#000000" font-family="sans-serif" font-size="11" lengthAdjust="spacingAndGlyphs" textLength="80" x="26" y="132.5986">getNIDN(): String</text><ellipse cx="17" cy="142.0156" fill="#84BE84" rx="3" ry="3" style="stroke: #038048; stroke-width: 1.0;"/><text fill="#000000" font-family="sans-serif" font-size="11" lengthAdjust="spacingAndGlyphs" textLength="84" x="26" y="146.4346">getNama(): String</text><ellipse cx="17" cy="155.8516" fill="#84BE84" rx="3" ry="3" style="stroke: #038048; stroke-width: 1.0;"/><text fill="#000000" font-family="sans-serif" font-size="11" lengthAdjust="spacingAndGlyphs" textLength="100" x="26" y="160.2705">getNpmMahasiswa()</text><!--class Mahasiswa--><rect fill="#FEFECE" filter="url(#fl5xdhjk6382z)" height="117.1797" id="Mahasiswa" style="stroke: #A80036; stroke-width: 1.5;" width="204" x="23.5" y="227"/><ellipse cx="89.75" cy="243" fill="#ADD1B2" rx="11" ry="11" style="stroke: #A80036; stroke-width: 1.0;"/><path d="M92.5156,238.875 Q92.6719,238.6563 92.8594,238.5469 Q93.0469,238.4375 93.2656,238.4375 Q93.6406,238.4375 93.875,238.7031 Q94.1094,238.9531 94.1094,239.5625 L94.1094,241.0156 Q94.1094,241.625 93.875,241.8906 Q93.6406,242.1563 93.2656,242.1563 Q92.9219,242.1563 92.7188,241.9531 Q92.5156,241.7656 92.4063,241.25 Q92.3594,240.8906 92.1719,240.7031 Q91.8438,240.3281 91.2344,240.1094 Q90.625,239.8906 90,239.8906 Q89.2344,239.8906 88.5938,240.2188 Q87.9688,240.5469 87.4688,241.2969 Q86.9844,242.0469 86.9844,243.0781 L86.9844,244.1719 Q86.9844,245.4063 87.875,246.2344 Q88.7656,247.0469 90.3594,247.0469 Q91.2969,247.0469 91.9531,246.7969 Q92.3438,246.6406 92.7656,246.2031 Q93.0313,245.9375 93.1719,245.8594 Q93.3281,245.7813 93.5313,245.7813 Q93.8594,245.7813 94.1094,246.0469 Q94.375,246.2969 94.375,246.6406 Q94.375,246.9844 94.0313,247.3906 Q93.5313,247.9688 92.7344,248.2969 Q91.6563,248.75 90.3594,248.75 Q88.8438,248.75 87.6406,248.125 Q86.6563,247.625 85.9688,246.5625 Q85.2813,245.4844 85.2813,244.2031 L85.2813,243.0469 Q85.2813,241.7188 85.8906,240.5781 Q86.5156,239.4219 87.6094,238.8125 Q88.7031,238.1875 89.9375,238.1875 Q90.6719,238.1875 91.3125,238.3594 Q91.9688,238.5156 92.5156,238.875 Z "/><text fill="#000000" font-family="sans-serif" font-size="12" lengthAdjust="spacingAndGlyphs" textLength="63" x="110.25" y="247.9102">Mahasiswa</text><line style="stroke: #A80036; stroke-width: 1.5;" x1="24.5" x2="226.5" y1="259" y2="259"/><rect fill="none" height="6" style="stroke: #C82930; stroke-width: 1.0;" width="6" x="31.5" y="267"/><text fill="#000000" font-family="sans-serif" font-size="11" lengthAdjust="spacingAndGlyphs" textLength="51" x="43.5" y="274.4189">String npm</text><rect fill="none" height="6" style="stroke: #C82930; stroke-width: 1.0;" width="6" x="31.5" y="280.8359"/><text fill="#000000" font-family="sans-serif" font-size="11" lengthAdjust="spacingAndGlyphs" textLength="57" x="43.5" y="288.2549">String nama</text><line style="stroke: #A80036; stroke-width: 1.5;" x1="24.5" x2="226.5" y1="294.6719" y2="294.6719"/><ellipse cx="34.5" cy="305.6719" fill="#84BE84" rx="3" ry="3" style="stroke: #038048; stroke-width: 1.0;"/><text fill="#000000" font-family="sans-serif" font-size="11" lengthAdjust="spacingAndGlyphs" textLength="178" x="43.5" y="310.0908">Mahasiswa(String npm, String nama)</text><ellipse cx="34.5" cy="319.5078" fill="#84BE84" rx="3" ry="3" style="stroke: #038048; stroke-width: 1.0;"/><text fill="#000000" font-family="sans-serif" font-size="11" lengthAdjust="spacingAndGlyphs" textLength="78" x="43.5" y="323.9268">getNPM(): String</text><ellipse cx="34.5" cy="333.3438" fill="#84BE84" rx="3" ry="3" style="stroke: #038048; stroke-width: 1.0;"/><text fill="#000000" font-family="sans-serif" font-size="11" lengthAdjust="spacingAndGlyphs" textLength="84" x="43.5" y="337.7627">getNama(): String</text><!--link Dosen to Mahasiswa--><path d="M125.5,167.091 C125.5,187.007 125.5,208.037 125.5,226.71 " fill="none" id="Dosen-Mahasiswa" style="stroke: #A80036; stroke-width: 1.0;"/><text fill="#000000" font-family="sans-serif" font-size="13" lengthAdjust="spacingAndGlyphs" textLength="7" x="118.1992" y="188.142">1</text><text fill="#000000" font-family="sans-serif" font-size="13" lengthAdjust="spacingAndGlyphs" textLength="32" x="91.55" y="216.0756">many</text><!--
@startuml DosenMahasiswa
Dosen "1" - - "many" Mahasiswa
class Dosen {
    -String nidn
    -String nama
    -String[] npmMahasiswa
    +Dosen(String nidn, String nama)
    +setNpmMahasiswa(String[] npmMahasiswa)
    +getNIDN(): String
    +getNama(): String
    +getNpmMahasiswa()
}
class Mahasiswa {
    -String npm
    -String nama
    +Mahasiswa(String npm, String nama)
    +getNPM(): String
    +getNama(): String
}
@enduml

PlantUML version 1.2019.09(Mon Aug 26 23:19:51 ICT 2019)
(GPL source distribution)
Java Runtime: Java(TM) SE Runtime Environment
JVM: Java HotSpot(TM) 64-Bit Server VM
Java Version: 11.0.6+8-LTS
Operating System: Windows 10
OS Version: 10.0
Default Encoding: Cp1252
Language: en
Country: US
--></g></svg>