<?xml version="1.0" encoding="UTF-8" standalone="no"?><svg xmlns="http://www.w3.org/2000/svg" xmlns:xlink="http://www.w3.org/1999/xlink" contentScriptType="application/ecmascript" contentStyleType="text/css" height="258px" preserveAspectRatio="none" style="width:342px;height:258px;" version="1.1" viewBox="0 0 342 258" width="342px" zoomAndPan="magnify"><defs><filter height="300%" id="f1t0zz350uucjy" width="300%" x="-1" y="-1"><feGaussianBlur result="blurOut" stdDeviation="2.0"/><feColorMatrix in="blurOut" result="blurOut2" type="matrix" values="0 0 0 0 0 0 0 0 0 0 0 0 0 0 0 0 0 0 .4 0"/><feOffset dx="4.0" dy="4.0" in="blurOut2" result="blurOut3"/><feBlend in="SourceGraphic" in2="blurOut3" mode="normal"/></filter></defs><g><!--class Database--><rect fill="#FEFECE" filter="url(#f1t0zz350uucjy)" height="89.5078" id="Database" style="stroke: #A80036; stroke-width: 1.5;" width="144" x="96.5" y="8"/><ellipse cx="137.6" cy="24" fill="#A9DCDF" rx="11" ry="11" style="stroke: #A80036; stroke-width: 1.0;"/><path d="M139.7875,25.7656 L135.6469,25.7656 L135.225,26.7969 L135.6469,26.7969 Q136.2563,26.7969 136.5219,27.0313 Q136.7875,27.2656 136.7875,27.6563 Q136.7875,28.0313 136.5219,28.2656 Q136.2563,28.5 135.6469,28.5 L133.35,28.5 Q132.7406,28.5 132.4906,28.2656 Q132.225,28.0313 132.225,27.6406 Q132.225,27.2656 132.5063,27.0313 Q132.7719,26.7813 133.3969,26.7969 L136.0688,20.1406 L134.9594,20.1406 Q134.35,20.1406 134.0844,19.9063 Q133.8188,19.6719 133.8188,19.2813 Q133.8188,18.9063 134.0844,18.6719 Q134.35,18.4375 134.9594,18.4375 L138.6313,18.4375 L142.0219,26.7969 Q142.6156,26.7969 142.8031,26.9375 Q143.1938,27.2031 143.1938,27.6563 Q143.1938,28.0313 142.9281,28.2656 Q142.6781,28.5 142.0688,28.5 L139.7719,28.5 Q139.1625,28.5 138.8969,28.2656 Q138.6313,28.0313 138.6313,27.6406 Q138.6313,27.2656 138.8969,27.0313 Q139.1625,26.7969 139.7719,26.7969 L140.1938,26.7969 L139.7875,25.7656 Z M139.0688,24.0625 L137.7094,20.6875 L136.3344,24.0625 L139.0688,24.0625 Z "/><text fill="#000000" font-family="sans-serif" font-size="12" font-style="italic" lengthAdjust="spacingAndGlyphs" textLength="54" x="157.4" y="28.9102">Database</text><line style="stroke: #A80036; stroke-width: 1.5;" x1="97.5" x2="239.5" y1="40" y2="40"/><line style="stroke: #A80036; stroke-width: 1.5;" x1="97.5" x2="239.5" y1="48" y2="48"/><text fill="#000000" font-family="sans-serif" font-size="11" font-style="italic" lengthAdjust="spacingAndGlyphs" textLength="122" x="102.5" y="63.4189">String getDatabaseApp()</text><text fill="#000000" font-family="sans-serif" font-size="11" font-style="italic" lengthAdjust="spacingAndGlyphs" textLength="132" x="102.5" y="77.2549">String getDatabaseName()</text><text fill="#000000" font-family="sans-serif" font-size="11" font-style="italic" lengthAdjust="spacingAndGlyphs" textLength="113" x="102.5" y="91.0908">String getTableName()</text><!--class MySQL--><rect fill="#FEFECE" filter="url(#f1t0zz350uucjy)" height="89.5078" id="MySQL" style="stroke: #A80036; stroke-width: 1.5;" width="145" x="6" y="158"/><ellipse cx="55.25" cy="174" fill="#ADD1B2" rx="11" ry="11" style="stroke: #A80036; stroke-width: 1.0;"/><path d="M58.0156,169.875 Q58.1719,169.6563 58.3594,169.5469 Q58.5469,169.4375 58.7656,169.4375 Q59.1406,169.4375 59.375,169.7031 Q59.6094,169.9531 59.6094,170.5625 L59.6094,172.0156 Q59.6094,172.625 59.375,172.8906 Q59.1406,173.1563 58.7656,173.1563 Q58.4219,173.1563 58.2188,172.9531 Q58.0156,172.7656 57.9063,172.25 Q57.8594,171.8906 57.6719,171.7031 Q57.3438,171.3281 56.7344,171.1094 Q56.125,170.8906 55.5,170.8906 Q54.7344,170.8906 54.0938,171.2188 Q53.4688,171.5469 52.9688,172.2969 Q52.4844,173.0469 52.4844,174.0781 L52.4844,175.1719 Q52.4844,176.4063 53.375,177.2344 Q54.2656,178.0469 55.8594,178.0469 Q56.7969,178.0469 57.4531,177.7969 Q57.8438,177.6406 58.2656,177.2031 Q58.5313,176.9375 58.6719,176.8594 Q58.8281,176.7813 59.0313,176.7813 Q59.3594,176.7813 59.6094,177.0469 Q59.875,177.2969 59.875,177.6406 Q59.875,177.9844 59.5313,178.3906 Q59.0313,178.9688 58.2344,179.2969 Q57.1563,179.75 55.8594,179.75 Q54.3438,179.75 53.1406,179.125 Q52.1563,178.625 51.4688,177.5625 Q50.7813,176.4844 50.7813,175.2031 L50.7813,174.0469 Q50.7813,172.7188 51.3906,171.5781 Q52.0156,170.4219 53.1094,169.8125 Q54.2031,169.1875 55.4375,169.1875 Q56.1719,169.1875 56.8125,169.3594 Q57.4688,169.5156 58.0156,169.875 Z "/><text fill="#000000" font-family="sans-serif" font-size="12" lengthAdjust="spacingAndGlyphs" textLength="38" x="75.75" y="178.9102">MySQL</text><line style="stroke: #A80036; stroke-width: 1.5;" x1="7" x2="150" y1="190" y2="190"/><line style="stroke: #A80036; stroke-width: 1.5;" x1="7" x2="150" y1="198" y2="198"/><ellipse cx="17" cy="209" fill="#84BE84" rx="3" ry="3" style="stroke: #038048; stroke-width: 1.0;"/><text fill="#000000" font-family="sans-serif" font-size="11" lengthAdjust="spacingAndGlyphs" textLength="112" x="26" y="213.4189">void getDatabaseApp()</text><ellipse cx="17" cy="222.8359" fill="#84BE84" rx="3" ry="3" style="stroke: #038048; stroke-width: 1.0;"/><text fill="#000000" font-family="sans-serif" font-size="11" lengthAdjust="spacingAndGlyphs" textLength="119" x="26" y="227.2549">void getDatabaseName()</text><ellipse cx="17" cy="236.6719" fill="#84BE84" rx="3" ry="3" style="stroke: #038048; stroke-width: 1.0;"/><text fill="#000000" font-family="sans-serif" font-size="11" lengthAdjust="spacingAndGlyphs" textLength="99" x="26" y="241.0908">void getTableName()</text><!--class PostgreSQL--><rect fill="#FEFECE" filter="url(#f1t0zz350uucjy)" height="89.5078" id="PostgreSQL" style="stroke: #A80036; stroke-width: 1.5;" width="145" x="186" y="158"/><ellipse cx="221.7" cy="174" fill="#ADD1B2" rx="11" ry="11" style="stroke: #A80036; stroke-width: 1.0;"/><path d="M224.4656,169.875 Q224.6219,169.6563 224.8094,169.5469 Q224.9969,169.4375 225.2156,169.4375 Q225.5906,169.4375 225.825,169.7031 Q226.0594,169.9531 226.0594,170.5625 L226.0594,172.0156 Q226.0594,172.625 225.825,172.8906 Q225.5906,173.1563 225.2156,173.1563 Q224.8719,173.1563 224.6688,172.9531 Q224.4656,172.7656 224.3563,172.25 Q224.3094,171.8906 224.1219,171.7031 Q223.7938,171.3281 223.1844,171.1094 Q222.575,170.8906 221.95,170.8906 Q221.1844,170.8906 220.5438,171.2188 Q219.9188,171.5469 219.4188,172.2969 Q218.9344,173.0469 218.9344,174.0781 L218.9344,175.1719 Q218.9344,176.4063 219.825,177.2344 Q220.7156,178.0469 222.3094,178.0469 Q223.2469,178.0469 223.9031,177.7969 Q224.2938,177.6406 224.7156,177.2031 Q224.9813,176.9375 225.1219,176.8594 Q225.2781,176.7813 225.4813,176.7813 Q225.8094,176.7813 226.0594,177.0469 Q226.325,177.2969 226.325,177.6406 Q226.325,177.9844 225.9813,178.3906 Q225.4813,178.9688 224.6844,179.2969 Q223.6063,179.75 222.3094,179.75 Q220.7938,179.75 219.5906,179.125 Q218.6063,178.625 217.9188,177.5625 Q217.2313,176.4844 217.2313,175.2031 L217.2313,174.0469 Q217.2313,172.7188 217.8406,171.5781 Q218.4656,170.4219 219.5594,169.8125 Q220.6531,169.1875 221.8875,169.1875 Q222.6219,169.1875 223.2625,169.3594 Q223.9188,169.5156 224.4656,169.875 Z "/><text fill="#000000" font-family="sans-serif" font-size="12" lengthAdjust="spacingAndGlyphs" textLength="67" x="240.3" y="178.9102">PostgreSQL</text><line style="stroke: #A80036; stroke-width: 1.5;" x1="187" x2="330" y1="190" y2="190"/><line style="stroke: #A80036; stroke-width: 1.5;" x1="187" x2="330" y1="198" y2="198"/><ellipse cx="197" cy="209" fill="#84BE84" rx="3" ry="3" style="stroke: #038048; stroke-width: 1.0;"/><text fill="#000000" font-family="sans-serif" font-size="11" lengthAdjust="spacingAndGlyphs" textLength="112" x="206" y="213.4189">void getDatabaseApp()</text><ellipse cx="197" cy="222.8359" fill="#84BE84" rx="3" ry="3" style="stroke: #038048; stroke-width: 1.0;"/><text fill="#000000" font-family="sans-serif" font-size="11" lengthAdjust="spacingAndGlyphs" textLength="119" x="206" y="227.2549">void getDatabaseName()</text><ellipse cx="197" cy="236.6719" fill="#84BE84" rx="3" ry="3" style="stroke: #038048; stroke-width: 1.0;"/><text fill="#000000" font-family="sans-serif" font-size="11" lengthAdjust="spacingAndGlyphs" textLength="99" x="206" y="241.0908">void getTableName()</text><!--reverse link Database to MySQL--><path d="M131.09,115.519 C122.439,129.744 113.404,144.603 105.3116,157.9098 " fill="none" id="Database&lt;-MySQL" style="stroke: #A80036; stroke-width: 1.0;"/><polygon fill="none" points="125.368,111.456,141.741,98.004,137.33,118.73,125.368,111.456" style="stroke: #A80036; stroke-width: 1.0;"/><!--reverse link Database to PostgreSQL--><path d="M205.91,115.519 C214.561,129.744 223.596,144.603 231.688,157.9098 " fill="none" id="Database&lt;-PostgreSQL" style="stroke: #A80036; stroke-width: 1.0;"/><polygon fill="none" points="199.67,118.73,195.259,98.004,211.632,111.456,199.67,118.73" style="stroke: #A80036; stroke-width: 1.0;"/><!--
@startuml abstract
Database <|- - MySQL
Database <|- - PostgreSQL

abstract class Database {
    {abstract} String getDatabaseApp()
    {abstract} String getDatabaseName()
    {abstract} String getTableName()
}

class MySQL {
    +void getDatabaseApp()
    +void getDatabaseName()
    +void getTableName()
}

class PostgreSQL {
    +void getDatabaseApp()
    +void getDatabaseName()
    +void getTableName()
}
@enduml

PlantUML version 1.2019.09(Mon Aug 26 23:19:51 ICT 2019)
(GPL source distribution)
Java Runtime: Java(TM) SE Runtime Environment
JVM: Java HotSpot(TM) 64-Bit Server VM
Java Version: 11.0.6+8-LTS
Operating System: Windows 10
OS Version: 10.0
Default Encoding: Cp1252
Language: en
Country: US
--></g></svg>