<?xml version="1.0" encoding="UTF-8" standalone="no"?><svg xmlns="http://www.w3.org/2000/svg" xmlns:xlink="http://www.w3.org/1999/xlink" contentScriptType="application/ecmascript" contentStyleType="text/css" height="244px" preserveAspectRatio="none" style="width:220px;height:244px;" version="1.1" viewBox="0 0 220 244" width="220px" zoomAndPan="magnify"><defs><filter height="300%" id="f90fvqni35a7q" width="300%" x="-1" y="-1"><feGaussianBlur result="blurOut" stdDeviation="2.0"/><feColorMatrix in="blurOut" result="blurOut2" type="matrix" values="0 0 0 0 0 0 0 0 0 0 0 0 0 0 0 0 0 0 .4 0"/><feOffset dx="4.0" dy="4.0" in="blurOut2" result="blurOut3"/><feBlend in="SourceGraphic" in2="blurOut3" mode="normal"/></filter></defs><g><!--class Mobil--><rect fill="#FEFECE" filter="url(#f90fvqni35a7q)" height="89.5078" id="Mobil" style="stroke: #A80036; stroke-width: 1.5;" width="107" x="9.5" y="8"/><ellipse cx="45.2" cy="24" fill="#ADD1B2" rx="11" ry="11" style="stroke: #A80036; stroke-width: 1.0;"/><path d="M47.9656,19.875 Q48.1219,19.6563 48.3094,19.5469 Q48.4969,19.4375 48.7156,19.4375 Q49.0906,19.4375 49.325,19.7031 Q49.5594,19.9531 49.5594,20.5625 L49.5594,22.0156 Q49.5594,22.625 49.325,22.8906 Q49.0906,23.1563 48.7156,23.1563 Q48.3719,23.1563 48.1688,22.9531 Q47.9656,22.7656 47.8563,22.25 Q47.8094,21.8906 47.6219,21.7031 Q47.2938,21.3281 46.6844,21.1094 Q46.075,20.8906 45.45,20.8906 Q44.6844,20.8906 44.0438,21.2188 Q43.4188,21.5469 42.9188,22.2969 Q42.4344,23.0469 42.4344,24.0781 L42.4344,25.1719 Q42.4344,26.4063 43.325,27.2344 Q44.2156,28.0469 45.8094,28.0469 Q46.7469,28.0469 47.4031,27.7969 Q47.7938,27.6406 48.2156,27.2031 Q48.4813,26.9375 48.6219,26.8594 Q48.7781,26.7813 48.9813,26.7813 Q49.3094,26.7813 49.5594,27.0469 Q49.825,27.2969 49.825,27.6406 Q49.825,27.9844 49.4813,28.3906 Q48.9813,28.9688 48.1844,29.2969 Q47.1063,29.75 45.8094,29.75 Q44.2938,29.75 43.0906,29.125 Q42.1063,28.625 41.4188,27.5625 Q40.7313,26.4844 40.7313,25.2031 L40.7313,24.0469 Q40.7313,22.7188 41.3406,21.5781 Q41.9656,20.4219 43.0594,19.8125 Q44.1531,19.1875 45.3875,19.1875 Q46.1219,19.1875 46.7625,19.3594 Q47.4188,19.5156 47.9656,19.875 Z "/><text fill="#000000" font-family="sans-serif" font-size="12" lengthAdjust="spacingAndGlyphs" textLength="29" x="63.8" y="28.9102">Mobil</text><line style="stroke: #A80036; stroke-width: 1.5;" x1="10.5" x2="115.5" y1="40" y2="40"/><text fill="#000000" font-family="sans-serif" font-size="11" lengthAdjust="spacingAndGlyphs" textLength="63" x="15.5" y="55.4189">#String nama</text><line style="stroke: #A80036; stroke-width: 1.5;" x1="10.5" x2="115.5" y1="61.8359" y2="61.8359"/><text fill="#000000" font-family="sans-serif" font-size="11" lengthAdjust="spacingAndGlyphs" textLength="95" x="15.5" y="77.2549">+Mobil(String nama)</text><text fill="#000000" font-family="sans-serif" font-size="11" lengthAdjust="spacingAndGlyphs" textLength="50" x="15.5" y="91.0908">+klakson()</text><!--class Sedan--><rect fill="#FEFECE" filter="url(#f90fvqni35a7q)" height="75.6719" id="Sedan" style="stroke: #A80036; stroke-width: 1.5;" width="114" x="6" y="158"/><ellipse cx="41.7" cy="174" fill="#ADD1B2" rx="11" ry="11" style="stroke: #A80036; stroke-width: 1.0;"/><path d="M44.4656,169.875 Q44.6219,169.6563 44.8094,169.5469 Q44.9969,169.4375 45.2156,169.4375 Q45.5906,169.4375 45.825,169.7031 Q46.0594,169.9531 46.0594,170.5625 L46.0594,172.0156 Q46.0594,172.625 45.825,172.8906 Q45.5906,173.1563 45.2156,173.1563 Q44.8719,173.1563 44.6688,172.9531 Q44.4656,172.7656 44.3563,172.25 Q44.3094,171.8906 44.1219,171.7031 Q43.7938,171.3281 43.1844,171.1094 Q42.575,170.8906 41.95,170.8906 Q41.1844,170.8906 40.5438,171.2188 Q39.9188,171.5469 39.4188,172.2969 Q38.9344,173.0469 38.9344,174.0781 L38.9344,175.1719 Q38.9344,176.4063 39.825,177.2344 Q40.7156,178.0469 42.3094,178.0469 Q43.2469,178.0469 43.9031,177.7969 Q44.2938,177.6406 44.7156,177.2031 Q44.9813,176.9375 45.1219,176.8594 Q45.2781,176.7813 45.4813,176.7813 Q45.8094,176.7813 46.0594,177.0469 Q46.325,177.2969 46.325,177.6406 Q46.325,177.9844 45.9813,178.3906 Q45.4813,178.9688 44.6844,179.2969 Q43.6063,179.75 42.3094,179.75 Q40.7938,179.75 39.5906,179.125 Q38.6063,178.625 37.9188,177.5625 Q37.2313,176.4844 37.2313,175.2031 L37.2313,174.0469 Q37.2313,172.7188 37.8406,171.5781 Q38.4656,170.4219 39.5594,169.8125 Q40.6531,169.1875 41.8875,169.1875 Q42.6219,169.1875 43.2625,169.3594 Q43.9188,169.5156 44.4656,169.875 Z "/><text fill="#000000" font-family="sans-serif" font-size="12" lengthAdjust="spacingAndGlyphs" textLength="36" x="60.3" y="178.9102">Sedan</text><line style="stroke: #A80036; stroke-width: 1.5;" x1="7" x2="119" y1="190" y2="190"/><line style="stroke: #A80036; stroke-width: 1.5;" x1="7" x2="119" y1="198" y2="198"/><text fill="#000000" font-family="sans-serif" font-size="11" lengthAdjust="spacingAndGlyphs" textLength="102" x="12" y="213.4189">+Sedan(String nama)</text><text fill="#000000" font-family="sans-serif" font-size="11" lengthAdjust="spacingAndGlyphs" textLength="50" x="12" y="227.2549">+klakson()</text><path d="M151.5,40 L151.5,66.3516 L208.5,66.3516 L208.5,50 L198.5,40 L151.5,40 " fill="#FBFB77" filter="url(#f90fvqni35a7q)" style="stroke: #A80036; stroke-width: 1.0;"/><path d="M198.5,40 L198.5,50 L208.5,50 L198.5,40 " fill="#FBFB77" style="stroke: #A80036; stroke-width: 1.0;"/><text fill="#000000" font-family="sans-serif" font-size="13" lengthAdjust="spacingAndGlyphs" textLength="36" x="157.5" y="58.4951">Single</text><!--reverse link Mobil to Sedan--><path d="M63,118.666 C63,131.995 63,145.6043 63,157.5703 " fill="none" id="Mobil&lt;-Sedan" style="stroke: #A80036; stroke-width: 1.0;"/><polygon fill="none" points="56.0001,118.226,63,98.226,70.0001,118.226,56.0001,118.226" style="stroke: #A80036; stroke-width: 1.0;"/><!--
@startuml mobil
skinparam classAttributeIconSize 0
Mobil <|- - Sedan
note "Single" as n
class Mobil {
    #String nama
    +Mobil(String nama)
    +klakson()
}
class Sedan {
    +Sedan(String nama)
    +klakson()
}
@enduml

PlantUML version 1.2019.09(Mon Aug 26 23:19:51 ICT 2019)
(GPL source distribution)
Java Runtime: Java(TM) SE Runtime Environment
JVM: Java HotSpot(TM) 64-Bit Server VM
Java Version: 11.0.6+8-LTS
Operating System: Windows 10
OS Version: 10.0
Default Encoding: Cp1252
Language: en
Country: US
--></g></svg>