<?xml version="1.0" encoding="UTF-8" standalone="no"?><svg xmlns="http://www.w3.org/2000/svg" xmlns:xlink="http://www.w3.org/1999/xlink" contentScriptType="application/ecmascript" contentStyleType="text/css" height="175px" preserveAspectRatio="none" style="width:78px;height:175px;" version="1.1" viewBox="0 0 78 175" width="78px" zoomAndPan="magnify"><defs><filter height="300%" id="fwyombyook2ge" width="300%" x="-1" y="-1"><feGaussianBlur result="blurOut" stdDeviation="2.0"/><feColorMatrix in="blurOut" result="blurOut2" type="matrix" values="0 0 0 0 0 0 0 0 0 0 0 0 0 0 0 0 0 0 .4 0"/><feOffset dx="4.0" dy="4.0" in="blurOut2" result="blurOut3"/><feBlend in="SourceGraphic" in2="blurOut3" mode="normal"/></filter></defs><g><!--class Mobil--><rect fill="#FEFECE" filter="url(#fwyombyook2ge)" height="48" id="Mobil" style="stroke: #A80036; stroke-width: 1.5;" width="61" x="6" y="8"/><ellipse cx="21" cy="24" fill="#ADD1B2" rx="11" ry="11" style="stroke: #A80036; stroke-width: 1.0;"/><path d="M23.7656,19.875 Q23.9219,19.6563 24.1094,19.5469 Q24.2969,19.4375 24.5156,19.4375 Q24.8906,19.4375 25.125,19.7031 Q25.3594,19.9531 25.3594,20.5625 L25.3594,22.0156 Q25.3594,22.625 25.125,22.8906 Q24.8906,23.1563 24.5156,23.1563 Q24.1719,23.1563 23.9688,22.9531 Q23.7656,22.7656 23.6563,22.25 Q23.6094,21.8906 23.4219,21.7031 Q23.0938,21.3281 22.4844,21.1094 Q21.875,20.8906 21.25,20.8906 Q20.4844,20.8906 19.8438,21.2188 Q19.2188,21.5469 18.7188,22.2969 Q18.2344,23.0469 18.2344,24.0781 L18.2344,25.1719 Q18.2344,26.4063 19.125,27.2344 Q20.0156,28.0469 21.6094,28.0469 Q22.5469,28.0469 23.2031,27.7969 Q23.5938,27.6406 24.0156,27.2031 Q24.2813,26.9375 24.4219,26.8594 Q24.5781,26.7813 24.7813,26.7813 Q25.1094,26.7813 25.3594,27.0469 Q25.625,27.2969 25.625,27.6406 Q25.625,27.9844 25.2813,28.3906 Q24.7813,28.9688 23.9844,29.2969 Q22.9063,29.75 21.6094,29.75 Q20.0938,29.75 18.8906,29.125 Q17.9063,28.625 17.2188,27.5625 Q16.5313,26.4844 16.5313,25.2031 L16.5313,24.0469 Q16.5313,22.7188 17.1406,21.5781 Q17.7656,20.4219 18.8594,19.8125 Q19.9531,19.1875 21.1875,19.1875 Q21.9219,19.1875 22.5625,19.3594 Q23.2188,19.5156 23.7656,19.875 Z "/><text fill="#000000" font-family="sans-serif" font-size="12" lengthAdjust="spacingAndGlyphs" textLength="29" x="35" y="28.9102">Mobil</text><line style="stroke: #A80036; stroke-width: 1.5;" x1="7" x2="66" y1="40" y2="40"/><line style="stroke: #A80036; stroke-width: 1.5;" x1="7" x2="66" y1="48" y2="48"/><!--class Ban--><rect fill="#FEFECE" filter="url(#fwyombyook2ge)" height="48" id="Ban" style="stroke: #A80036; stroke-width: 1.5;" width="54" x="9.5" y="116"/><ellipse cx="24.5" cy="132" fill="#ADD1B2" rx="11" ry="11" style="stroke: #A80036; stroke-width: 1.0;"/><path d="M27.2656,127.875 Q27.4219,127.6563 27.6094,127.5469 Q27.7969,127.4375 28.0156,127.4375 Q28.3906,127.4375 28.625,127.7031 Q28.8594,127.9531 28.8594,128.5625 L28.8594,130.0156 Q28.8594,130.625 28.625,130.8906 Q28.3906,131.1563 28.0156,131.1563 Q27.6719,131.1563 27.4688,130.9531 Q27.2656,130.7656 27.1563,130.25 Q27.1094,129.8906 26.9219,129.7031 Q26.5938,129.3281 25.9844,129.1094 Q25.375,128.8906 24.75,128.8906 Q23.9844,128.8906 23.3438,129.2188 Q22.7188,129.5469 22.2188,130.2969 Q21.7344,131.0469 21.7344,132.0781 L21.7344,133.1719 Q21.7344,134.4063 22.625,135.2344 Q23.5156,136.0469 25.1094,136.0469 Q26.0469,136.0469 26.7031,135.7969 Q27.0938,135.6406 27.5156,135.2031 Q27.7813,134.9375 27.9219,134.8594 Q28.0781,134.7813 28.2813,134.7813 Q28.6094,134.7813 28.8594,135.0469 Q29.125,135.2969 29.125,135.6406 Q29.125,135.9844 28.7813,136.3906 Q28.2813,136.9688 27.4844,137.2969 Q26.4063,137.75 25.1094,137.75 Q23.5938,137.75 22.3906,137.125 Q21.4063,136.625 20.7188,135.5625 Q20.0313,134.4844 20.0313,133.2031 L20.0313,132.0469 Q20.0313,130.7188 20.6406,129.5781 Q21.2656,128.4219 22.3594,127.8125 Q23.4531,127.1875 24.6875,127.1875 Q25.4219,127.1875 26.0625,127.3594 Q26.7188,127.5156 27.2656,127.875 Z "/><text fill="#000000" font-family="sans-serif" font-size="12" lengthAdjust="spacingAndGlyphs" textLength="22" x="38.5" y="136.9102">Ban</text><line style="stroke: #A80036; stroke-width: 1.5;" x1="10.5" x2="62.5" y1="148" y2="148"/><line style="stroke: #A80036; stroke-width: 1.5;" x1="10.5" x2="62.5" y1="156" y2="156"/><!--reverse link Mobil to Ban--><path d="M36.5,69.3383 C36.5,84.6813 36.5,102.098 36.5,115.6784 " fill="none" id="Mobil&lt;-Ban" style="stroke: #A80036; stroke-width: 1.0;"/><polygon fill="#FFFFFF" points="36.5,56,32.5,62,36.5,68,40.5,62,36.5,56" style="stroke: #A80036; stroke-width: 1.0;"/><text fill="#000000" font-family="sans-serif" font-size="13" lengthAdjust="spacingAndGlyphs" textLength="7" x="28.6469" y="77.338">1</text><text fill="#000000" font-family="sans-serif" font-size="13" lengthAdjust="spacingAndGlyphs" textLength="7" x="28.6469" y="105.338">4</text><!--
@startuml agregasi
Mobil "1" o- - "4" Ban
@enduml

PlantUML version 1.2019.09(Mon Aug 26 23:19:51 ICT 2019)
(GPL source distribution)
Java Runtime: Java(TM) SE Runtime Environment
JVM: Java HotSpot(TM) 64-Bit Server VM
Java Version: 11.0.6+8-LTS
Operating System: Windows 10
OS Version: 10.0
Default Encoding: Cp1252
Language: en
Country: US
--></g></svg>